<?xml version="1.0" encoding="utf-8"?><svg viewBox="0 0 1230 424" xmlns="http://www.w3.org/2000/svg" xmlns:xlink="http://www.w3.org/1999/xlink"><style>:root>svg{display:none}:root>svg:target{display:block}</style><svg fill="none" viewBox="0 0 25 18" id="arrow" xmlns="http://www.w3.org/2000/svg"><path d="m16 17 8-8-8-8m7 8H1"/></svg><svg fill="none" viewBox="0 0 15 12" id="arrow-purp" xmlns="http://www.w3.org/2000/svg"><path d="M9.478 11 14 6 9.478 1m3.957 5H1" stroke="#833CFA" stroke-linecap="round" stroke-linejoin="round"/></svg><svg fill="none" viewBox="0 0 25 18" id="arrow_purp" xmlns="http://www.w3.org/2000/svg"><path d="M9 17 1 9l8-8M2 9h22" stroke="#D896FA" stroke-width="2" stroke-linecap="round" stroke-linejoin="round"/></svg><svg fill="none" viewBox="0 0 134 62" id="circles" xmlns="http://www.w3.org/2000/svg"><circle cx="76" cy="4" r="4" fill="#9251FF"/><circle cx="94" cy="4" r="4" fill="#9251FF"/><circle cx="112" cy="4" r="4" fill="#9251FF"/><circle cx="130" cy="4" r="4" fill="#9251FF"/><circle cx="76" cy="22" r="4" fill="#9251FF"/><circle cx="94" cy="22" r="4" fill="#9251FF"/><circle cx="112" cy="22" r="4" fill="#9251FF"/><circle cx="130" cy="22" r="4" fill="#9251FF"/><circle cx="76" cy="40" r="4" fill="#9251FF"/><circle cx="94" cy="40" r="4" fill="#9251FF"/><circle cx="112" cy="40" r="4" fill="#9251FF"/><circle cx="130" cy="40" r="4" fill="#9251FF"/><circle cx="76" cy="58" r="4" fill="#9251FF"/><circle cx="94" cy="58" r="4" fill="#9251FF"/><circle cx="112" cy="58" r="4" fill="#9251FF"/><circle cx="130" cy="58" r="4" fill="#9251FF"/><circle cx="4" cy="4" r="4" fill="#9251FF"/><circle cx="22" cy="4" r="4" fill="#9251FF"/><circle cx="40" cy="4" r="4" fill="#9251FF"/><circle cx="58" cy="4" r="4" fill="#9251FF"/><circle cx="4" cy="22" r="4" fill="#9251FF"/><circle cx="22" cy="22" r="4" fill="#9251FF"/><circle cx="40" cy="22" r="4" fill="#9251FF"/><circle cx="58" cy="22" r="4" fill="#9251FF"/><circle cx="4" cy="40" r="4" fill="#9251FF"/><circle cx="22" cy="40" r="4" fill="#9251FF"/><circle cx="40" cy="40" r="4" fill="#9251FF"/><circle cx="58" cy="40" r="4" fill="#9251FF"/><circle cx="4" cy="58" r="4" fill="#9251FF"/><circle cx="22" cy="58" r="4" fill="#9251FF"/><circle cx="40" cy="58" r="4" fill="#9251FF"/><circle cx="58" cy="58" r="4" fill="#9251FF"/></svg><svg fill="none" viewBox="0 0 41 42" id="client" xmlns="http://www.w3.org/2000/svg"><g clip-path="url(#aea)"><path d="M24.107 33.498c0-4.696 3.762-8.473 8.44-8.473 4.72 0 8.453 3.777 8.453 8.516a8.426 8.426 0 0 1-8.468 8.445c-4.677 0-8.425-3.777-8.425-8.488Zm9.637-2.334c0-.226.014-.467 0-.693-.042-.693-.55-1.203-1.212-1.203-.69-.014-1.225.51-1.24 1.245-.014.425-.028.85 0 1.273.029.382-.126.496-.479.467-.38-.028-.774-.014-1.155 0-.817.029-1.324.524-1.324 1.273 0 .75.507 1.245 1.324 1.274.423.014.845.014 1.268 0 .268-.014.38.085.366.367-.014.481-.014.948 0 1.43.029.664.536 1.16 1.198 1.173.676.029 1.212-.467 1.254-1.16a6.384 6.384 0 0 0 0-1.16c-.056-.495.084-.707.62-.65.38.042.775.028 1.155 0 .747-.057 1.184-.566 1.184-1.288-.014-.693-.451-1.174-1.184-1.23-.225-.015-.45 0-.69 0-1.085-.043-1.085-.043-1.085-1.118Z" fill="#833CFA"/><path d="M16.921 19.508c-5.368 0-9.707-4.386-9.707-9.79 0-5.347 4.381-9.732 9.721-9.718 5.383.014 9.722 4.385 9.708 9.79-.014 5.36-4.382 9.718-9.722 9.718Zm-.028-2.547c3.931.029 7.2-3.197 7.214-7.115.014-4.046-3.156-7.286-7.13-7.314-3.973-.014-7.213 3.169-7.241 7.144-.014 4.032 3.17 7.271 7.157 7.285ZM24.445 25.293c.014.92-.831 1.514-1.761 1.189-1.38-.481-2.79-.835-4.255-.948-5.072-.41-9.44 1.188-13.145 4.668-1.156 1.075-2.086 2.334-2.889 3.692-.45.75-1.254.948-1.888.481-.563-.41-.676-1.103-.282-1.796a18.127 18.127 0 0 1 3.89-4.768c3.874-3.366 8.368-5.021 13.497-4.88 2.029.057 4.015.467 5.931 1.146.606.198.902.622.902 1.216Z" fill="#30415B"/><path d="M33.744 31.164c0 1.075 0 1.075 1.085 1.075.225 0 .465-.014.69 0 .733.07 1.184.538 1.184 1.23.014.736-.423 1.232-1.184 1.288-.38.029-.775.043-1.155 0-.535-.056-.676.156-.62.65.042.383.014.779 0 1.16-.042.694-.592 1.19-1.254 1.16-.662-.027-1.17-.508-1.198-1.173-.014-.481-.014-.948 0-1.429.014-.283-.098-.368-.366-.368a19.01 19.01 0 0 1-1.268 0c-.817-.028-1.324-.523-1.324-1.273 0-.75.507-1.245 1.324-1.273.38-.014.775-.028 1.155 0 .353.028.508-.07.48-.467a12.81 12.81 0 0 1 0-1.273c.028-.722.549-1.245 1.24-1.245.676.014 1.183.51 1.211 1.202v.736Z" fill="#FEFEFE"/></g><defs><clipPath id="aea"><path fill="#fff" d="M0 0h41v42H0z"/></clipPath></defs></svg><svg fill="none" viewBox="0 0 61 80" id="clients-1" xmlns="http://www.w3.org/2000/svg"><path d="M23.669 46.762c0-.882-.055-1.102-.11-1.323-.11-.386-.33-.662-.715-.937l-9.841-7.553c-3.574-2.701-5.224-4.906-5.224-7.773v-3.75c0-4.52 3.19-7.827 7.698-7.993v10.254c0 .772.22 1.269.824 1.71l9.732 7.442c3.409 2.59 5.333 4.741 5.333 7.553v4.19c0 4.465-3.134 7.773-7.697 7.993v-9.813Zm-.165-20.508c0-.717-.495-1.103-1.045-1.103h-5.608v-7.718h6.378c4.619 0 8.137 3.363 8.137 7.994v2.867h-7.862v-2.04ZM15.75 56.575c-4.562 0-8.136-3.417-8.136-7.993V45.66h7.862v2.095c0 .661.495 1.102 1.044 1.102h5.718v7.718h-6.488Zm21.663-38.867h8.136V56.3h-8.136V17.708Zm9.511 30.874H61V56.3H46.925v-7.718ZM11.017 71.129h33.968c.223 0 .424.095.57.25a.879.879 0 0 1 .237.603.88.88 0 0 1-.236.605.784.784 0 0 1-.57.25h-33.97a.786.786 0 0 1-.567-.25.873.873 0 0 1-.239-.604c0-.235.09-.45.237-.604a.794.794 0 0 1 .57-.25ZM23.057 6.82H33a.86.86 0 0 1 .624.273.967.967 0 0 1 .002 1.321.86.86 0 0 1-.626.276h-9.944a.86.86 0 0 1-.625-.274.97.97 0 0 1 0-1.321.851.851 0 0 1 .625-.276Z" fill="#858585"/><path d="M9.434 0h36.132C50.76 0 55 4.253 55 9.46v6.374h-3.349V9.46c0-3.353-2.741-6.102-6.085-6.102H9.434c-3.343 0-6.085 2.75-6.085 6.102v61.08c0 3.353 2.742 6.102 6.085 6.102h36.132c3.344 0 6.085-2.75 6.085-6.102V61.3h3.35v9.24c0 5.207-4.242 9.46-9.435 9.46H9.434C4.242 80 0 75.748 0 70.54V9.46C0 4.252 4.242 0 9.434 0Z" fill="#858585"/></svg><svg fill="none" viewBox="0 0 15 15" id="close" xmlns="http://www.w3.org/2000/svg"><path d="m1 1 13 13M14 1 1 14" stroke="#BFCCDF" stroke-width="2"/></svg><svg viewBox="0 0 31 38" id="context" xmlns="http://www.w3.org/2000/svg"><path d="M0 20.238V6.937c0-2.628 1.785-4.445 4.354-4.445.645 0 1.29-.01 1.935 0 .635.011 1.022.405 1.011 1.03-.01.59-.387.973-1.01.984-.646.011-1.29 0-1.936 0-1.44.011-2.376.964-2.376 2.43v26.559c0 1.565.925 2.485 2.484 2.485h21.642c.774 0 .956-.208.978-.996l.258-8.813c.01-.274.032-.547.075-.821a.97.97 0 0 1 1.01-.854c.549.022.947.405.947.963.01 1.555-.075 3.12-.14 4.675-.043 1.117-.064 2.244-.107 3.36-.022.723-.044 1.446-.087 2.168-.075 1.26-1.247 2.321-2.547 2.332-3 .011-5.989 0-8.988 0H4.236c-2.161 0-3.838-1.445-4.204-3.602C0 34.108 0 33.802 0 33.495V20.238Z" fill="#fff"/><path d="M30.974 15.673c0 .514.01 1.04 0 1.554-.011.493-.258.843-.667.974-.398.132-.785.033-1.064-.36-.215-.318-.29-.187-.42.043a12967.86 12967.86 0 0 1-7.482 12.699c-.086.142-.162.285-.258.416-.344.449-.86.525-1.312.175a1.8 1.8 0 0 1-.29-.285l-8.182-8.33c-.376-.384-.365-.384-.623.109-.764 1.478-1.527 2.956-2.29 4.423-.398.766-1.172.92-1.667.328-.3-.361-.29-.755-.086-1.15.344-.678.688-1.357 1.043-2.036l2-3.842c.484-.941 1.182-1.062 1.924-.307 2.731 2.77 5.451 5.55 8.182 8.331.387.394.387.394.677-.087 2.269-3.843 4.537-7.685 6.816-11.528.172-.295.27-.47-.172-.59-.354-.1-.58-.417-.591-.8-.01-.372.13-.712.473-.898.882-.47 1.753-.952 2.656-1.38.655-.317 1.311.143 1.354.899.011.273 0 .547 0 .82-.01.274-.01.548-.021.822ZM14.568.029c.849 0 1.688-.011 2.537 0 1.44.022 2.451.712 3.02 2.047.14.318.302.416.625.416 1.333-.01 2.655-.01 3.988-.01 2.516 0 4.322 1.827 4.333 4.389v2.091c-.011.712-.377 1.117-1 1.117-.602 0-.968-.416-.978-1.106-.011-.679 0-1.369 0-2.047-.022-1.467-.936-2.42-2.376-2.42-1.366-.01-2.742 0-4.107-.01-.29 0-.452.087-.602.35-.645 1.16-1.613 1.795-2.957 1.784-1.688-.01-3.386 0-5.074 0C10.31 6.62 8.87 5.317 8.73 3.707c-.161-1.784.967-3.35 2.666-3.634.839-.143 1.688-.033 2.537-.044h.635Zm0 2.025c-.86 0-1.72-.022-2.58 0-.753.022-1.312.602-1.301 1.292a1.28 1.28 0 0 0 1.279 1.27c1.71.022 3.408.022 5.117 0a1.262 1.262 0 0 0 1.205-.876c.279-.854-.312-1.664-1.27-1.697-.805-.01-1.623.011-2.45.011ZM5.494 29.521c.559 0 .978.383.978.909 0 .503-.473.974-.957.974s-.957-.482-.957-.974c-.01-.515.398-.898.936-.909Z" fill="#fff"/></svg><svg fill="none" viewBox="0 0 38 40" id="conversion" xmlns="http://www.w3.org/2000/svg"><g clip-path="url(#aia)"><path d="M18.99 29.838H4.34c-2.587 0-4.34-1.757-4.34-4.36V2.825c0-.932.306-1.239 1.225-1.239 5.46 0 10.931 0 16.391.01.37 0 .486-.095.444-.454-.021-.138 0-.297.032-.434a.944.944 0 0 1 1.014-.71c.496.053.834.434.855.974.021.614.021.614.623.614h16.19c.93 0 1.237.307 1.237 1.228v22.694c0 2.572-1.754 4.318-4.33 4.329H18.988ZM19 3.492c-5.555 0-11.11 0-16.655-.01-.36 0-.455.085-.455.444.011 7.177.011 14.364.011 21.54 0 1.578.877 2.467 2.44 2.467h29.287c1.594 0 2.481-.879 2.481-2.466 0-7.177 0-14.353.011-21.54 0-.36-.095-.445-.454-.445-5.555.01-11.11.01-16.666.01ZM19.95 34.951c0 1.429.011 2.73 0 4.044-.01.762-.718 1.227-1.362.9-.38-.191-.539-.52-.528-.943v-3.895c-.158 0-.211.127-.285.201l-4.34 4.287c-.487.476-.973.53-1.395.159a.903.903 0 0 1-.148-1.25c.074-.095.159-.18.243-.264l6.073-6.086c.528-.53 1.035-.53 1.574.01 2.059 2.054 4.108 4.107 6.157 6.171.496.498.486 1.09 0 1.482-.412.328-.877.286-1.31-.138-1.003-.994-1.996-2-3-3.005-.548-.52-1.066-1.059-1.678-1.673Z" fill="#30415B"/><path d="M12.653 15.157c-.402.773-.76 1.43-1.11 2.096-.454.879-.908 1.757-1.372 2.636-.106.212-.212.423-.423.56-.37.255-.887.234-1.214-.052-.317-.275-.412-.762-.19-1.196.77-1.503 1.563-2.996 2.344-4.499.254-.476.497-.963.771-1.429.39-.698 1.088-.793 1.669-.222 1.5 1.492 2.989 2.996 4.478 4.488l3.865 3.874c.053.053.117.106.201.17 2.408-4.012 4.805-8.003 7.213-12.025-.39-.063-.718-.17-.908-.519-.253-.476-.095-1.047.423-1.323.845-.455 1.71-.889 2.577-1.302.633-.296 1.31.17 1.32.879.01 1.027 0 2.064 0 3.09 0 .509-.254.869-.687.996-.422.127-.834-.053-1.109-.477-.031-.042-.052-.074-.126-.158-.497.825-.972 1.608-1.447 2.402-2.07 3.462-4.15 6.933-6.22 10.395-.413.688-1.036.762-1.596.2-2.735-2.74-5.47-5.482-8.195-8.224-.085-.074-.148-.19-.264-.36ZM6.326 23.138c0-.529.444-.995.961-.995.539 0 1.025.466 1.025.995 0 .477-.507.974-1.003.985-.518.01-.983-.455-.983-.985Z" fill="#833CFA"/></g><defs><clipPath id="aia"><path fill="#fff" d="M0 0h38v40H0z"/></clipPath></defs></svg><svg fill="none" viewBox="0 0 81 17" id="diez" xmlns="http://www.w3.org/2000/svg"><path fill-rule="evenodd" clip-rule="evenodd" d="M7.862 5.325h-2.87l-.56 5.42h2.846l.584-5.42Zm.948 0-.584 5.42h3.437l-.073.81H8.153l-.584 5.302H6.62l.584-5.301H4.336l-.559 5.301h-.949l.584-5.301H0l.072-.812h3.412l.584-5.419H.632l.072-.812h3.438L4.603.119h.949l-.463 4.394h2.845L8.395.119h.949l-.461 4.394h3.437l-.074.812H8.81ZM17.026 2.53v11.938h1.508c.852 0 1.362-.43 1.362-1.623V4.154c0-1.194-.51-1.624-1.362-1.624h-1.508ZM14.353.143h4.229c2.675 0 3.988 1.456 3.988 4.13v8.452c0 2.674-1.313 4.132-3.988 4.132h-4.229V.143ZM24.27.143h2.675v16.713H24.27V.143ZM31.563 7.186h3.672v2.387h-3.672v4.895h4.62v2.389h-7.295V.143h7.295V2.53h-4.62v4.656ZM45.25.143v2.34l-5.082 11.985h5.082v2.389h-7.83v-2.34L42.503 2.53h-4.839V.143h7.587ZM49.77 16.857V1.146h-3.477V.143h8.047v1.003H50.89v15.71H49.77ZM61.56 7.878v1.003h-4.644v6.972h5.593v1.004h-6.71V.143h6.71v1.003h-5.593v6.732h4.644ZM71.6 4.225v1.386h-1.07V4.154c0-1.79-.706-3.152-2.577-3.152-1.873 0-2.577 1.362-2.577 3.152v8.692c0 1.79.704 3.127 2.577 3.127 1.871 0 2.577-1.337 2.577-3.127v-1.982h1.07v1.91c0 2.412-1.07 4.226-3.672 4.226-2.602 0-3.67-1.814-3.67-4.226V4.225c0-2.41 1.068-4.225 3.67-4.225S71.6 1.815 71.6 4.225ZM74.54 9v7.857H73.42V.143h1.118v7.855h5.301V.143h1.144v16.713H79.84V9h-5.3Z" fill="#FA0013"/></svg><svg fill="none" viewBox="0 0 34 34" id="insta" xmlns="http://www.w3.org/2000/svg"><path d="M33.25 17c0 8.975-7.275 16.25-16.25 16.25S.75 25.975.75 17 8.025.75 17 .75 33.25 8.025 33.25 17Z" stroke="#833CFA" stroke-width="1.5"/><path d="M16.99 24.994h-3.176c-2.262-.005-4.315-1.723-4.727-3.95A4.992 4.992 0 0 1 9 20.115c.005-2.096 0-4.196.005-6.292.005-2.396 1.874-4.492 4.256-4.787.199-.024.393-.034.587-.034 2.106 0 4.213-.005 6.314 0 2.412.005 4.504 1.859 4.804 4.26.024.203.034.406.034.61v6.253a4.904 4.904 0 0 1-4.266 4.84c-.422.053-.843.029-1.26.034-.828 0-1.656-.005-2.484-.005Zm.218-1.331c.92-.03 2.063.053 3.201-.034 1.017-.078 1.836-.542 2.475-1.326.552-.678.78-1.467.784-2.328.005-1.8 0-3.597 0-5.397 0-.334 0-.663-.029-.997-.097-1.017-.552-1.835-1.336-2.473-.678-.547-1.468-.78-2.33-.78-1.835-.005-3.665 0-5.5 0-.291 0-.582 0-.877.03-1.032.091-1.86.556-2.504 1.355-.542.672-.765 1.461-.765 2.313-.005 1.825 0 3.654 0 5.48 0 .3 0 .594.029.895.097 1.02.552 1.848 1.346 2.487.673.542 1.458.77 2.31.775.993.005 1.986 0 3.196 0Z" fill="#833CFA"/><path d="M17.02 12.765a4.24 4.24 0 0 1 4.203 4.568 4.214 4.214 0 0 1-4.29 3.902c-2.382-.044-4.258-2.027-4.165-4.37a4.24 4.24 0 0 1 4.252-4.1Zm2.835 4.227c0-1.583-1.276-2.883-2.855-2.873a2.861 2.861 0 0 0-2.873 2.878 2.874 2.874 0 0 0 2.883 2.869c1.573.005 2.85-1.281 2.845-2.874Z" fill="#833CFA"/></svg><svg fill="none" viewBox="0 0 170 46" id="logo" xmlns="http://www.w3.org/2000/svg"><path d="m0 22.733 18.11-8.677V0L0 8.836v13.897ZM0 23.267l18.11 8.678V46L0 37.164V23.267ZM46.952 22.733l-18.11-8.677V0l18.11 8.836v13.897ZM46.952 23.267l-18.11 8.678V46l18.11-8.836V23.267Z" fill="#833CFA"/><path d="M79.235 21.087h-2.502L68.808 8.552v12.535h-2.477V4.14h2.477l7.925 12.536V4.14h2.502v16.947Zm12.803-1.994c1.783 0 3.303-.631 4.557-1.894 1.255-1.262 1.882-2.79 1.882-4.585s-.627-3.323-1.882-4.586c-1.255-1.263-2.774-1.894-4.556-1.894-1.784 0-3.303.632-4.558 1.894-1.254 1.263-1.882 2.791-1.882 4.586 0 1.794.628 3.323 1.882 4.585 1.255 1.263 2.774 1.894 4.558 1.894Zm0 2.492c-1.634 0-3.128-.402-4.482-1.208a9.077 9.077 0 0 1-3.232-3.253c-.8-1.362-1.201-2.865-1.201-4.51 0-1.645.4-3.149 1.2-4.511a9.076 9.076 0 0 1 3.233-3.253c1.354-.806 2.848-1.208 4.483-1.208 1.634 0 3.128.402 4.482 1.208a9.076 9.076 0 0 1 3.232 3.253c.801 1.362 1.201 2.866 1.201 4.51 0 1.646-.4 3.15-1.2 4.511a9.075 9.075 0 0 1-3.233 3.253c-1.354.806-2.848 1.209-4.483 1.209Zm20.333-.498h-2.476L102.713 4.14h2.476l5.944 14.031 5.968-14.03h2.477l-7.207 16.946Zm16.667-6.48-2.6-7.077-2.576 7.077h5.176Zm4.854 6.48h-2.502l-1.436-3.987h-7.009l-1.461 3.987h-2.476l6.191-16.947h2.476l6.217 16.947ZM74.504 43.072h-2.476V28.618H66.33v-2.493h13.87v2.493h-5.697v14.454Zm21.299 0H83.42V26.125h12.383v2.493h-9.907v4.735h8.42v2.492h-8.42v4.736h9.907v2.492Zm11.417.499c-1.651 0-3.15-.403-4.496-1.209a9.112 9.112 0 0 1-3.219-3.253c-.8-1.362-1.2-2.865-1.2-4.51 0-1.629.4-3.124 1.2-4.486a9.118 9.118 0 0 1 3.219-3.253c1.346-.806 2.844-1.208 4.496-1.208 1.469 0 2.827.328 4.074.984a9.096 9.096 0 0 1 3.108 2.654l-2.155 1.271c-1.321-1.612-2.997-2.417-5.027-2.417-1.784 0-3.302.631-4.557 1.894-1.255 1.262-1.882 2.783-1.882 4.56 0 1.762.627 3.282 1.882 4.561 1.255 1.28 2.773 1.92 4.557 1.92 2.03 0 3.706-.807 5.027-2.418l2.155 1.246a8.983 8.983 0 0 1-3.108 2.679c-1.247.656-2.605.984-4.074.984Zm23.205-.499h-2.477v-7.227h-7.925v7.227h-2.477V26.125h2.477v7.228h7.925v-7.228h2.477v16.947Zm17.831 0h-2.477l-7.925-12.535v12.535h-2.477V26.125h2.477l7.925 12.536V26.125h2.477v16.947Zm12.828-1.994c1.783 0 3.303-.631 4.557-1.894 1.255-1.262 1.882-2.79 1.882-4.585 0-1.794-.628-3.323-1.882-4.586-1.255-1.263-2.774-1.894-4.557-1.894-1.783 0-3.302.632-4.557 1.894-1.254 1.263-1.882 2.791-1.882 4.586 0 1.794.628 3.323 1.882 4.586 1.255 1.262 2.774 1.893 4.557 1.893Zm0 2.493c-1.634 0-3.128-.403-4.482-1.209a9.076 9.076 0 0 1-3.232-3.253c-.801-1.362-1.201-2.865-1.201-4.51 0-1.645.4-3.149 1.201-4.511a9.072 9.072 0 0 1 3.232-3.253c1.354-.806 2.848-1.208 4.482-1.208 1.635 0 3.129.402 4.483 1.208a9.076 9.076 0 0 1 3.232 3.253c.801 1.362 1.201 2.866 1.201 4.51 0 1.646-.4 3.15-1.201 4.511a9.08 9.08 0 0 1-3.232 3.253c-1.354.806-2.848 1.209-4.483 1.209Z" fill="#000"/></svg><svg fill="none" viewBox="0 0 170 46" id="logo-footer" xmlns="http://www.w3.org/2000/svg"><path d="m0 22.733 18.11-8.677V0L0 8.836v13.897ZM0 23.267l18.11 8.677V46L0 37.164V23.267ZM46.951 22.733l-18.11-8.677V0l18.11 8.836v13.897ZM46.951 23.267l-18.11 8.677V46l18.11-8.836V23.267Z" fill="#833CFA"/><path d="M79.234 21.087h-2.501L68.808 8.552v12.535H66.33V4.14h2.477l7.925 12.536V4.14h2.501v16.947Zm12.804-1.994c1.783 0 3.302-.631 4.556-1.894 1.255-1.262 1.883-2.79 1.883-4.585s-.628-3.323-1.883-4.586c-1.254-1.263-2.773-1.894-4.556-1.894s-3.302.632-4.557 1.894c-1.255 1.263-1.882 2.791-1.882 4.586 0 1.794.628 3.323 1.882 4.585 1.255 1.263 2.774 1.894 4.557 1.894Zm0 2.492c-1.635 0-3.129-.402-4.482-1.208a9.076 9.076 0 0 1-3.233-3.253c-.8-1.362-1.2-2.865-1.2-4.51 0-1.645.4-3.149 1.2-4.511a9.075 9.075 0 0 1 3.233-3.253c1.353-.806 2.847-1.208 4.482-1.208 1.635 0 3.129.402 4.482 1.208a9.076 9.076 0 0 1 3.233 3.253c.8 1.362 1.201 2.866 1.201 4.51 0 1.646-.4 3.15-1.201 4.511a9.076 9.076 0 0 1-3.233 3.253c-1.353.806-2.847 1.209-4.482 1.209Zm20.332-.498h-2.476L102.712 4.14h2.476l5.944 14.031 5.968-14.03h2.477l-7.207 16.946Zm16.668-6.48-2.601-7.077-2.575 7.077h5.176Zm4.853 6.48h-2.501l-1.437-3.987h-7.008l-1.461 3.987h-2.477l6.191-16.947h2.477l6.216 16.947ZM74.504 43.073h-2.477V28.618h-5.696v-2.492H80.2v2.492h-5.697v14.455h.001Zm21.298 0H83.42V26.125h12.383v2.493h-9.906v4.735h8.42v2.493h-8.42v4.735h9.906v2.492Zm11.417.498c-1.651 0-3.149-.403-4.495-1.209a9.101 9.101 0 0 1-3.22-3.252c-.8-1.363-1.2-2.866-1.2-4.511 0-1.628.4-3.124 1.2-4.486a9.107 9.107 0 0 1 3.22-3.253c1.345-.805 2.844-1.208 4.495-1.208 1.47 0 2.827.328 4.074.984a9.078 9.078 0 0 1 3.108 2.654l-2.155 1.271c-1.32-1.611-2.996-2.417-5.027-2.417-1.783 0-3.302.632-4.557 1.894-1.255 1.263-1.882 2.783-1.882 4.56 0 1.762.628 3.282 1.882 4.561 1.255 1.28 2.774 1.92 4.557 1.92 2.031 0 3.707-.806 5.027-2.418l2.155 1.246a8.965 8.965 0 0 1-3.108 2.679c-1.246.657-2.604.984-4.074.984Zm23.205-.498h-2.476v-7.228h-7.925v7.228h-2.477V26.125h2.477v7.228h7.925v-7.228h2.476v16.948Zm17.831 0h-2.476l-7.925-12.536v12.536h-2.477V26.125h2.477l7.925 12.536V26.125h2.476v16.948Zm12.829-1.994c1.783 0 3.302-.632 4.556-1.894 1.255-1.263 1.883-2.792 1.883-4.586 0-1.794-.628-3.323-1.883-4.585-1.254-1.263-2.773-1.895-4.556-1.895s-3.302.632-4.557 1.895c-1.255 1.262-1.882 2.79-1.882 4.585 0 1.794.627 3.323 1.882 4.586 1.255 1.263 2.774 1.894 4.557 1.894Zm0 2.492c-1.635 0-3.129-.403-4.482-1.209a9.071 9.071 0 0 1-3.233-3.252c-.8-1.363-1.201-2.866-1.201-4.511s.401-3.149 1.201-4.51a9.074 9.074 0 0 1 3.233-3.253c1.353-.806 2.847-1.209 4.482-1.209 1.635 0 3.129.403 4.482 1.209a9.067 9.067 0 0 1 3.232 3.252c.801 1.362 1.202 2.866 1.202 4.51 0 1.646-.4 3.15-1.202 4.512a9.064 9.064 0 0 1-3.232 3.252c-1.353.806-2.847 1.209-4.482 1.209Z" fill="#fff"/></svg><svg viewBox="0 0 42 42" id="m-admin" xmlns="http://www.w3.org/2000/svg"><path d="M20.543 0C31.703-.042 40.87 9.12 41 20.253c.13 11.457-9.287 20.89-20.749 20.749C9.146 40.87.021 31.73 0 20.533-.022 9.238 9.243-.086 20.543.001Zm9.666 20.49c-.087-5.415-4.308-9.703-9.73-9.692-5.412.01-9.677 4.288-9.677 9.68-.01 5.426 4.286 9.715 9.687 9.715 5.434 0 9.644-4.3 9.72-9.703Zm-28.185.314c.033.411.065 1.104.14 1.787.434 3.833 1.96 7.19 4.47 10.114.228.271.38.293.64.033a376.43 376.43 0 0 1 4.156-4.159c.216-.216.238-.335.032-.595-1.558-1.885-2.467-4.05-2.652-6.476-.248-3.173.628-6.021 2.652-8.49.184-.228.206-.336-.01-.553A516.522 516.522 0 0 1 7.23 8.253c-.238-.239-.368-.217-.573.021-3.053 3.52-4.568 7.603-4.633 12.53Zm18.487-18.81c-.368.02-.725.053-1.093.075-.368.033-.726.043-1.093.087-3.605.422-6.787 1.808-9.601 4.093-.249.206-.303.336-.043.596a382.953 382.953 0 0 1 4.188 4.19c.239.25.39.217.639.022 1.775-1.332 3.777-2.1 5.985-2.274 3.172-.238 6.018.628 8.486 2.664.227.184.357.195.563-.021a381.897 381.897 0 0 1 4.189-4.191c.238-.239.249-.38-.011-.607-3.507-3.021-7.577-4.537-12.21-4.635Zm.13 36.981c.379-.021.92-.043 1.46-.075.282-.022.564-.054.845-.087 3.691-.52 6.938-2.003 9.752-4.44.25-.217.292-.346.033-.606a382.252 382.252 0 0 1-4.189-4.191c-.227-.228-.346-.217-.585-.022-1.894 1.56-4.07 2.458-6.505 2.642-2.922.217-5.595-.541-7.966-2.295-.249-.185-.368-.141-.573.054-1.375 1.397-2.771 2.783-4.157 4.169-.346.346-.346.346.044.66 3.41 2.751 7.306 4.127 11.84 4.191Zm18.335-18.659c-.054-.747-.087-1.7-.238-2.653-.53-3.335-1.873-6.302-4.005-8.923-.205-.26-.335-.292-.595-.033a376.422 376.422 0 0 1-4.156 4.159c-.25.238-.26.39-.055.66 3.085 4.213 3.074 9.758-.021 13.97-.195.271-.173.412.054.64 1.385 1.364 2.76 2.75 4.134 4.125.347.347.347.347.672-.043 2.76-3.411 4.134-7.32 4.21-11.902Z" fill="#833CFA"/></svg><svg viewBox="0 0 37 42" id="m-copyright" xmlns="http://www.w3.org/2000/svg"><path d="M30.53 8.497a.108.108 0 0 0 .13-.022c.233-.251.465-.501.709-.74 1.018-.947 2.192-1.254 3.51-.758 1.342.509 2.025 1.538 2.097 2.933.036.804-.24 1.537-.79 2.164-.516.58-1.091 1.1-1.642 1.644-1.282 1.265-2.552 2.543-3.834 3.796-.192.19-.252.378-.24.639 0 4.399.012 8.81 0 13.209 0 .39.156.473.503.461 1.282-.012 2.576-.012 3.858 0 .78 0 1.139.284 1.15 1.04.049 1.668.12 3.348-.047 5.003-.18 1.774-1.857 3.122-3.834 3.134-3.966.012-7.933 0-11.899 0H3.991C2.036 41 .55 39.9.12 38.126A4.955 4.955 0 0 1 0 36.944V3.157C-.012 1.135 1.162 0 3.211 0h24.12c1.989 0 3.139 1.147 3.139 3.122v5.282a.11.11 0 0 0 .06.093Zm-2.001 11.808c0-.249-.247-.399-.419-.219-.033.035-.064.069-.096.1-4.625 4.553-9.25 9.107-13.863 13.66-.216.212-.432.402-.731.508a600.655 600.655 0 0 0-4.913 1.833c-.431.166-.827.154-1.162-.166-.36-.343-.348-.757-.18-1.194a293.173 293.173 0 0 0 1.738-4.517c.18-.485.455-.876.826-1.242C15.888 23 22.035 16.923 28.193 10.856c.24-.236.336-.485.336-.816-.012-2.27 0-4.553 0-6.823 0-1.03-.276-1.301-1.342-1.301H3.247c-.227 0-.443 0-.67.07-.36.119-.588.356-.6.734-.012.201-.012.414-.012.615v33.822c0 .934.491 1.632 1.27 1.82.324.084.647.095.983.095H17.11c3.787 0 7.573 0 11.371.012.395 0 .515-.059.323-.461-.227-.473-.275-.993-.275-1.514V20.305Zm-14.2 10.264c.092.122.283.09.397-.011.067-.061.135-.122.204-.19l13.659-13.48c.946-.935 1.881-1.87 2.828-2.792.215-.213.24-.354 0-.567-.408-.367-.791-.769-1.175-1.16-.419-.413-.419-.413-.826-.011L14.81 26.774l-1.905 1.88c-.192.19-.204.32 0 .508.468.44.913.9 1.369 1.34.021.022.037.043.055.067Zm19.7 5.24v-1.68c0-.284-.108-.402-.396-.39-.922.012-1.857.012-2.78 0-.263 0-.383.083-.383.355.012 1.111-.024 2.211.012 3.323.036.946.863 1.679 1.821 1.644.959-.024 1.69-.745 1.714-1.703.024-.52.012-1.041.012-1.55Zm-.336-27.093c-.311-.012-.611.059-.85.295-.492.473-.971.958-1.462 1.431-.144.13-.132.237 0 .367.49.473.97.958 1.461 1.443.132.13.264.189.42.035.503-.509 1.03-.993 1.498-1.526.359-.402.359-.898.12-1.371-.228-.485-.636-.698-1.187-.674ZM10.856 30.747c-.486 1.114.66 2.252 1.792 1.807l.053-.021c.048-.024.096-.071.144-.107.24-.177.263-.355.024-.58-.42-.39-.827-.815-1.235-1.217-.371-.367-.575-.367-.778.118Z" fill="#833CFA"/><path d="M15.672 9.118h9.166c.48 0 .803.2.983.626.156.39.024.734-.264 1.006-.263.26-.61.284-.958.284H6.949c-.203 0-.419 0-.622-.048-.504-.106-.815-.532-.767-.993.048-.497.431-.852.97-.863 1.246-.012 2.48 0 3.727 0 1.785-.012 3.594-.012 5.415-.012ZM15.66 6.492h-5.068c-.228 0-.455-.011-.67-.07a.914.914 0 0 1-.708-.911c0-.426.288-.793.72-.899a3.15 3.15 0 0 1 .67-.07h10.137c.227 0 .455.01.67.058.456.083.78.473.78.899.012.426-.3.828-.755.934-.228.048-.48.06-.707.06H15.66ZM15.72 13.647c1.798 0 3.595-.012 5.392 0 .85 0 1.33.733.947 1.407-.228.39-.587.509-1.03.509h-5.932c-1.605 0-3.199.012-4.804 0-.863-.012-1.354-.793-.935-1.455.228-.366.587-.461 1.006-.461h5.356Z" fill="#833CFA"/></svg><svg viewBox="0 0 42 36" id="m-map" xmlns="http://www.w3.org/2000/svg"><path d="M2.52 32.166c-.086.091.065.223.18.172.453-.2.868-.378 1.273-.566 1.911-.856 3.81-1.712 5.734-2.542.464-.2.69-.495.862-.95.677-1.846 1.394-3.693 2.097-5.525.053-.12.093-.255.146-.375.213-.442.624-.629 1.022-.468.399.16.61.575.452 1.03-.332.95-.69 1.873-1.049 2.823-.385 1.003-.743 2.007-1.155 2.997-.132.334-.066.495.253.669 2.455 1.391 4.91 2.796 7.366 4.187.45.255.477.228.477-.294 0-1.19.014-2.368 0-3.559 0-.428.107-.642.584-.629 1.128.04 1.036-.12 1.036 1.057 0 1.057.013 2.1 0 3.158 0 .348.04.522.438.294 2.495-1.431 4.99-2.863 7.498-4.268.345-.2.24-.415.146-.669-.69-1.806-1.38-3.625-2.07-5.432-.04-.093-.08-.187-.106-.28-.146-.496.013-.924.424-1.084.412-.174.836.027 1.035.508.253.615.478 1.244.717 1.873.531 1.405 1.075 2.81 1.606 4.215.093.254.212.468.491.588 2.429 1.07 4.858 2.168 7.273 3.251.127.051.247-.096.192-.221-.289-.652-.552-1.252-.816-1.852-1.154-2.57-2.322-5.138-3.464-7.72a1.258 1.258 0 0 0-.676-.682c-1.925-.87-3.836-1.767-5.76-2.623-.465-.2-.545-.415-.319-.87.425-.829.398-.856 1.274-.468l5.893 2.69c.358.16.637.387.796.776 1.818 4.053 3.637 8.107 5.468 12.148.173.374.266.736-.026 1.07-.292.348-.65.348-1.036.174-1.54-.696-3.092-1.378-4.645-2.074-1.513-.682-3.039-1.351-4.539-2.033-.371-.174-.677-.134-1.022.067-2.906 1.672-5.84 3.318-8.733 5.003-.584.348-1.061.362-1.645.014-2.84-1.66-5.72-3.265-8.56-4.91-.518-.308-.93-.308-1.474-.067-2.933 1.338-5.88 2.635-8.813 3.947-.384.173-.756.28-1.101-.054-.358-.361-.266-.75-.08-1.15 1.832-4.068 3.663-8.135 5.482-12.202.132-.308.345-.509.65-.643 2.15-.95 4.313-1.913 6.463-2.876.345-.16.518-.107.677.254.505 1.177.531.95-.504 1.418-1.818.816-3.637 1.633-5.455 2.435-.252.107-.451.255-.57.522-1.443 3.241-2.911 6.469-4.353 9.696a.169.169 0 0 1-.035.05Z" fill="#833CFA"/><path d="M12.388 8.613C12.4 4.13 15.825.438 20.192.037c5.202-.482 9.675 3.826 9.356 9.044-.106 1.7-.756 3.278-1.393 4.843-1.792 4.375-4.061 8.523-6.41 12.617-.385.682-1.102.75-1.46.12-2.827-4.977-5.654-9.954-7.446-15.426-.292-.883-.504-1.78-.451-2.622Zm8.096-7.01c-1.58.026-3.398.789-4.778 2.407-1.712 2.007-2.164 4.295-1.34 6.837 1.167 3.572 2.866 6.904 4.605 10.208.57 1.098 1.194 2.168 1.778 3.252.173.32.279.307.451 0 .213-.415.452-.817.677-1.231 1.898-3.466 3.756-6.957 5.15-10.664.53-1.378 1.035-2.769.915-4.32-.278-3.653-3.291-6.476-7.458-6.49Z" fill="#833CFA"/><path d="M16.157 8.666c.013-2.702 2.19-4.896 4.844-4.883 2.681.013 4.818 2.22 4.791 4.964-.013 2.689-2.19 4.816-4.897 4.79-2.614-.027-4.765-2.222-4.738-4.87Zm4.791 3.252c1.805 0 3.278-1.445 3.278-3.252 0-1.78-1.473-3.25-3.238-3.25a3.236 3.236 0 0 0-3.265 3.264c-.013 1.752 1.46 3.224 3.225 3.238Z" fill="#833CFA"/></svg><svg viewBox="0 0 41 41" id="m-marketing" xmlns="http://www.w3.org/2000/svg"><path d="M33.513 23.194a14.421 14.421 0 0 0-.244-2.897c-.074-.383-.062-.74.256-1.023a.838.838 0 0 1 .856-.185c.403.123.574.443.635.826.11.74.233 1.491.27 2.243.134 2.453-.16 4.87-1.064 7.162-2.42 6.2-6.869 10.07-13.347 11.353C12.723 42.288 4.547 37.8 1.332 29.948A17.56 17.56 0 0 1 0 23.157c.061-9 6.515-16.149 14.752-17.53a17.392 17.392 0 0 1 6.771.186c.318.074.636.16.807.456.183.32.195.653-.012.961-.233.345-.575.444-.966.382-.513-.086-1.014-.21-1.528-.27-5.304-.654-9.887.911-13.603 4.77-3.006 3.118-4.436 6.927-4.424 11.291.024 7.42 5.45 14.274 13.273 15.569 8.714 1.43 16.659-4.5 18.162-12.87.208-.936.318-1.922.281-2.909Z" fill="#833CFA"/><path d="M33.06 17.24c-.421.544-1.194.43-1.862.263l-.02-.005c-1.613-.406-3.226-.8-4.84-1.232-.342-.086-.562-.012-.806.234-2.127 2.17-4.265 4.314-6.404 6.472-.122.123-.233.246-.367.345-.379.296-.831.259-1.161-.074a.855.855 0 0 1-.086-1.134c.123-.173.282-.32.428-.481 2.151-2.17 4.29-4.34 6.453-6.496.355-.345.428-.666.306-1.147-.403-1.516-.746-3.044-1.161-4.56-.16-.592-.037-1.024.39-1.455 2.494-2.49 4.975-5.005 7.456-7.507.294-.296.587-.555 1.04-.432.488.124.647.518.745.95.305 1.257.623 2.502.916 3.76.086.344.16.43.44.135.648-.678 1.308-1.331 1.98-1.997.282-.284.624-.395 1.003-.259.305.111.488.358.55.678.06.358-.086.629-.33.863-.721.727-1.443 1.467-2.176 2.182-.269.271-.22.37.122.444 1.48.37 2.958.74 4.437 1.121.953.247 1.173 1.023.489 1.714-2.518 2.539-5.036 5.078-7.541 7.618ZM29.7 12.32c-1.028 1.053-.534 2.82.892 3.181.393.1.783.198 1.173.295.171.037.294-.024.416-.148.684-.69 1.356-1.38 2.04-2.058.209-.21.148-.284-.11-.345-1.331-.333-2.663-.666-3.996-1.011-.159-.037-.293-.05-.415.086Zm4.65-3.977c-.273-.068-.555-.118-.764.07-.66.665-1.307 1.331-1.98 1.984-.232.235-.195.333.11.407 1.308.32 2.604.653 3.9.986.17.05.33.062.464-.074l2.102-2.12c.159-.16.134-.259-.086-.308-.28-.062-.562-.136-.843-.21-.956-.238-1.92-.486-2.903-.735Zm-1.798-2.55c-.39-1.367-2.067-1.837-3.084-.844-.147.148-.172.308-.123.493.281 1.122.563 2.231.831 3.353.086.37.22.283.404.086.55-.555 1.075-1.146 1.662-1.652.44-.382.501-.752.354-1.282l-.044-.154ZM28.603 9.87c-.344-1.414-2.107-1.897-3.132-.864-.147.148-.122.296-.073.469.28 1.097.55 2.206.818 3.303.074.296.147.383.392.136a146.55 146.55 0 0 1 1.943-1.96c.159-.148.232-.32.183-.542l-.13-.542Z" fill="#833CFA"/><path d="M27.927 23.28c.025-1.418-.232-2.65-.684-3.858-.232-.592-.061-1.073.403-1.295.49-.222.99.013 1.235.617.464 1.146.733 2.354.819 3.587.39 5.608-3.031 10.724-8.348 12.474-7.04 2.33-14.617-2.465-15.632-9.849-.904-6.582 3.496-12.524 9.729-13.695 2.408-.456 4.742-.172 6.99.79.539.233.759.64.624 1.084-.159.567-.684.813-1.27.58-.99-.408-2.018-.691-3.093-.802-2.75-.271-5.219.431-7.37 2.157-2.42 1.923-3.715 4.462-3.911 7.581-.33 5.202 3.349 9.985 8.69 10.835 5.536.876 10.743-2.921 11.696-8.505.098-.617.16-1.22.122-1.701Z" fill="#833CFA"/><path d="M17.686 29.739c-3.374-.012-6.148-2.626-6.466-5.917-.318-3.328 2.029-6.792 6.013-7.137.147-.012.306-.012.453 0 .525.062.855.431.843.912-.012.48-.355.838-.892.875-.611.037-1.21.136-1.785.37-2.078.863-3.263 3.143-2.799 5.35.501 2.317 2.506 3.846 4.926 3.747 2.114-.086 4.02-1.873 4.314-4.043.037-.259.012-.53.061-.777.086-.493.49-.813.93-.788.464.024.806.406.83.936.122 2.996-2.432 6.028-5.402 6.398-.354.025-.709.111-1.026.074Z" fill="#833CFA"/></svg><svg viewBox="0 0 43 34" id="m-site" xmlns="http://www.w3.org/2000/svg"><path d="M22.006 0h13.248c2.1 0 3.79 1.312 4.29 3.323.089.367.122.734.122 1.112v19.373c0 .811-.511 1.312-1.2 1.167-.512-.111-.8-.5-.8-1.111V4.535c0-1.59-.945-2.545-2.535-2.545H8.847C7.29 2 6.335 2.968 6.335 4.524v19.24c0 .655-.2 1-.667 1.167-.611.21-1.245-.167-1.323-.812-.022-.133-.01-.278-.01-.411V4.59C4.334 1.834 6.167 0 8.924 0h13.08ZM21.95 33H5.535c-2.69 0-4.546-1.856-4.546-4.557v-.667c.011-.722.389-1.111 1.111-1.111h11.503c.534 0 .867.244 1.012.71.133.412-.023.857-.367 1.112-.245.167-.511.19-.8.19H4.034c-.233 0-.478.022-.711-.012-.334-.044-.356.123-.311.39.222 1.189 1.156 1.955 2.434 1.955h26.373c2.279 0 4.557.012 6.835 0 1.156 0 2.034-.744 2.29-1.867.078-.344.055-.478-.367-.478-3.378.022-6.746.011-10.125.011-.856 0-1.356-.689-1.045-1.411.2-.445.578-.59 1.056-.59H41.833c.778 0 1.134.379 1.156 1.145.011.89.022 1.779-.378 2.613-.811 1.689-2.167 2.556-4.034 2.567-3.512.022-7.024 0-10.536 0H21.95Z" fill="#833CFA"/><path d="M24.538 9.797c.182.326.118.727.013 1.084-1.045 3.157-2.1 6.314-3.157 9.46a2.818 2.818 0 0 1-.21.5c-.279.455-.768.61-1.212.41-.512-.233-.745-.7-.578-1.222 1.1-3.323 2.212-6.647 3.323-9.97.189-.545.622-.8 1.156-.7.3.04.533.199.665.438ZM17.927 12.604c.01.39-.156.656-.423.89-.61.522-1.2 1.066-1.811 1.589-.211.178-.223.3 0 .478.544.456 1.067.922 1.6 1.39.345.288.667.577.634 1.1-.023.422-.234.722-.59.878-.344.155-.71.133-1.01-.145-.99-.878-1.979-1.734-2.946-2.623-.633-.578-.622-1.112.022-1.69.967-.877 1.945-1.733 2.923-2.6.311-.278.69-.3 1.056-.145.367.178.567.478.545.878ZM27.096 19.006c-.478 0-.845-.233-.99-.61a1.046 1.046 0 0 1 .29-1.135c.61-.544 1.222-1.089 1.845-1.622.233-.2.3-.323 0-.556-.623-.5-1.212-1.056-1.812-1.6-.445-.412-.5-1.046-.144-1.457.344-.4.944-.455 1.411-.055 1.034.889 2.045 1.79 3.034 2.723.478.444.467.99-.011 1.422-.99.912-2 1.801-3.012 2.69a.816.816 0 0 1-.611.2ZM21.994 26.665h3.168c.733 0 1.167.389 1.167 1.011-.011.6-.445.99-1.145.99h-6.368c-.7 0-1.134-.379-1.145-.99-.011-.622.434-1.011 1.167-1.011h3.156Z" fill="#833CFA"/></svg><svg viewBox="0 0 40 33" id="m-video" xmlns="http://www.w3.org/2000/svg"><path d="M20.006 0h16.867C38.893 0 40 1.11 40 3.135v26.8c0 1.897-1.142 3.053-3.046 3.053H3.08c-1.96 0-3.08-1.122-3.08-3.1C.012 20.96.012 12.03.012 3.1.012 1.122 1.13 0 3.092 0h16.914Zm.023 7.23H2.469c-.6 0-.6 0-.6.59 0 5.794 0 11.589-.011 17.384 0 .44.126.555.565.555 11.722-.011 23.444-.011 35.154 0 .439 0 .566-.116.566-.555-.012-5.795-.012-11.59-.012-17.385 0-.59 0-.59-.6-.59H20.029ZM12.01 1.873c-.877 0-1.753.011-2.63 0-.289 0-.415.08-.404.393.012.914.012 1.816 0 2.73 0 .289.104.382.38.37 1.777-.012 3.543-.012 5.32 0 .288 0 .415-.081.415-.393-.012-.89-.012-1.793 0-2.684 0-.324-.127-.428-.439-.416-.888.011-1.765 0-2.642 0Zm16.003 3.493c.877 0 1.753-.012 2.63 0 .289 0 .416-.081.416-.393-.012-.914-.012-1.816 0-2.73 0-.278-.104-.382-.381-.382-1.777.012-3.542.012-5.319 0-.323 0-.427.127-.415.44.011.879.011 1.758 0 2.637 0 .324.115.428.438.428.877-.012 1.754 0 2.63 0Zm-16.049 25.76c.889 0 1.788-.012 2.677 0 .323 0 .438-.105.427-.429a99.93 99.93 0 0 1 0-2.637c0-.312-.092-.44-.427-.428a399.43 399.43 0 0 1-5.273 0c-.323 0-.427.104-.427.428.012.88.024 1.758 0 2.637-.011.359.139.44.462.44.865-.023 1.707-.012 2.561-.012Zm16.049-3.494c-.877 0-1.754.012-2.63 0-.312 0-.44.104-.428.428.012.88.012 1.758 0 2.637-.011.359.15.44.462.44 1.742-.012 3.484-.012 5.226 0 .323 0 .427-.104.427-.428-.011-.88-.023-1.758 0-2.637.012-.359-.127-.44-.461-.44-.866.012-1.731 0-2.596 0ZM20.017 5.367c.866 0 1.73-.012 2.596 0 .323 0 .439-.104.439-.428a100.8 100.8 0 0 1 0-2.637c0-.313-.104-.44-.427-.428-1.73.011-3.462.011-5.192 0-.335 0-.462.115-.45.45.011.868.011 1.736 0 2.603 0 .336.115.463.45.452.854-.024 1.719-.012 2.584-.012Zm.035 22.266c-.865 0-1.73.012-2.596-.011-.346-.012-.496.092-.485.462.023.868.023 1.735 0 2.603-.011.347.139.44.462.44 1.719-.012 3.427-.012 5.146 0 .369 0 .473-.14.461-.487-.011-.856-.023-1.7 0-2.556.012-.37-.138-.474-.485-.462-.83.023-1.66.011-2.503.011ZM4.488 5.367c.738 0 1.465-.012 2.204 0 .288 0 .415-.093.415-.393-.012-.914-.012-1.816 0-2.73 0-.29-.115-.37-.392-.37-1.258.011-2.504 0-3.761.011-.739.012-1.05.324-1.073 1.065-.012.659.011 1.33-.012 1.989-.011.359.127.44.462.44.715-.024 1.442-.012 2.157-.012Zm31.012 0c.75 0 1.5-.012 2.25 0 .3.012.416-.104.404-.405-.012-.66 0-1.33-.012-1.99-.011-.774-.323-1.087-1.084-1.098-1.234-.012-2.48 0-3.715-.012-.323 0-.427.104-.427.428.012.88.012 1.758 0 2.649 0 .312.092.44.427.428.715-.012 1.43 0 2.157 0Zm-31 22.266c-.75 0-1.5.012-2.25 0-.277 0-.392.093-.38.382.01.682-.012 1.353.01 2.035.012.752.324 1.065 1.062 1.076 1.258.012 2.504 0 3.761.012.3 0 .404-.104.404-.405-.012-.89-.012-1.793 0-2.684.012-.335-.138-.416-.438-.404-.727 0-1.443-.012-2.17-.012Zm31.047 0c-.75 0-1.5.012-2.25 0-.277 0-.38.104-.38.382.01.913.01 1.816 0 2.73 0 .277.091.393.38.381 1.269-.011 2.538.012 3.807-.011.715-.012 1.027-.324 1.038-1.053.024-.682 0-1.353.012-2.036.012-.3-.092-.416-.404-.404-.738.023-1.465.011-2.203.011Z" fill="#833CFA"/><path d="M14.099 16.54c0-1.515-.046-3.03.011-4.545.07-1.92 2.32-3.1 3.98-2.082 1.604.983 3.15 2.035 4.72 3.065.61.405 1.234.798 1.845 1.214 1.73 1.192 1.754 3.424.023 4.604-2.123 1.446-4.28 2.845-6.426 4.245-.877.567-1.834.636-2.757.127s-1.408-1.33-1.408-2.417c.012-1.411 0-2.81.012-4.21Zm1.869-.115v4.152c0 .382.08.729.438.926.37.196.692.069 1.004-.15.08-.059.173-.116.254-.163 1.926-1.26 3.853-2.533 5.791-3.782.889-.578.9-1.226.024-1.793-1.546-1.018-3.081-2.024-4.627-3.03-.53-.347-1.05-.718-1.604-1.03-.68-.393-1.292-.011-1.28.764v4.106Z" fill="#833CFA"/></svg><svg fill="none" viewBox="0 0 20 20" id="mail" xmlns="http://www.w3.org/2000/svg"><path d="M13.857 10a3.857 3.857 0 1 1-7.714 0 3.857 3.857 0 0 1 7.714 0Zm0 0v1.286a2.571 2.571 0 0 0 5.143 0V10a9 9 0 1 0-3.857 7.387" stroke="#833CFA" stroke-width="1.5" stroke-linecap="round" stroke-linejoin="round"/></svg><svg fill="none" viewBox="0 0 20 20" id="phone" xmlns="http://www.w3.org/2000/svg"><path d="M19 14.477v2.71c.004 1.035-.928 1.9-1.974 1.806C8 19 1 11.935 1.007 2.969.913 1.93 1.774 1.001 2.808 1h2.715c.44-.004.865.151 1.198.437.947.812 1.556 3.57 1.322 4.667-.183.856-1.046 1.455-1.633 2.04a14.467 14.467 0 0 0 5.43 5.42c.587-.585 1.187-1.446 2.045-1.629 1.1-.234 3.877.376 4.686 1.329.287.338.44.77.428 1.213Z" stroke="#833CFA" stroke-width="1.5" stroke-linecap="round" stroke-linejoin="round"/></svg><svg fill="none" viewBox="0 0 41 37" id="plane" xmlns="http://www.w3.org/2000/svg"><g clip-path="url(#ava)"><path d="M26.965 0h12.668c1.218 0 1.703.818 1.093 1.857a19546.39 19546.39 0 0 1-12.481 21.767c-.56.978-1.554.99-2.138.013a779.899 779.899 0 0 1-4.103-6.902c-.161-.281-.373-.403-.684-.44a615.054 615.054 0 0 1-4.711-.574c-.46-.061-.883-.183-1.156-.586-.237-.354-.2-.709-.05-1.088.634-1.514 1.255-3.041 1.89-4.568.111-.269.099-.464-.05-.708-1.38-2.285-2.735-4.569-4.103-6.853C12.506.855 12.991.024 14.234.024h12.718c.012 0 .012-.012.012-.024Zm.21 20.986c.075-.135.162-.257.237-.391 2.089-3.628 4.19-7.268 6.278-10.896 1.368-2.37 2.735-4.752 4.103-7.11.174-.293.149-.378-.212-.366-.609.025-1.206.012-1.815.025l-19.244.036c-.162 0-.323.012-.547.025 1.081 1.808 2.113 3.542 3.158 5.289.136.22.285.122.435.073.77-.22 1.541-.44 2.312-.672 2.747-.794 5.495-1.588 8.255-2.37.634-.183 1.143.05 1.38.587.248.562.024 1.063-.647 1.478-3.742 2.26-7.484 4.507-11.226 6.767l-.522.342c1.07.135 2.051.281 3.033.379.634.061 1.094.317 1.418.88 1.069 1.856 2.175 3.688 3.282 5.52.099.147.136.33.323.404Z" fill="#30415B"/><path d="M19.02 21.67c.013.317-.161.61-.434.855a58.629 58.629 0 0 0-3.096 2.968c-2.921 3.054-5.395 6.438-7.36 10.163-.136.27-.286.538-.447.806-.311.501-.97.672-1.504.391-.51-.268-.71-.88-.448-1.417a46.412 46.412 0 0 1 5.246-8.172c1.492-1.88 3.133-3.615 4.886-5.252.423-.403.845-.806 1.293-1.185.348-.305.77-.415 1.206-.195.398.195.659.513.659 1.038ZM1.156 24.357c-.522 0-.97-.317-1.119-.782a1.09 1.09 0 0 1 .485-1.233c.746-.452 1.517-.88 2.288-1.32 2.76-1.575 5.52-3.163 8.28-4.74.273-.158.546-.353.894-.353.522-.013.995.256 1.144.684.186.5.025 1.026-.46 1.307-1.144.684-2.3 1.331-3.444 1.99-2.436 1.393-4.885 2.786-7.322 4.178-.236.135-.472.294-.746.27ZM11.81 7.683c.895.013 1.28.33 1.393.941a1.049 1.049 0 0 1-.746 1.173c-1.604.464-3.208.903-4.824 1.331-.51.134-1.119-.256-1.268-.77-.174-.61.124-1.184.758-1.38 1.107-.33 2.226-.623 3.344-.928.535-.135 1.045-.367 1.343-.367ZM1.48 11.3c.012-.612.51-1.051 1.156-1.051.609.012 1.13.525 1.143 1.099 0 .574-.572 1.112-1.18 1.1a1.13 1.13 0 0 1-1.12-1.149Z" fill="#833CFA"/></g><defs><clipPath id="ava"><path fill="#fff" d="M0 0h41v37H0z"/></clipPath></defs></svg><svg fill="none" viewBox="0 0 82 79" id="plate" xmlns="http://www.w3.org/2000/svg"><path fill-rule="evenodd" clip-rule="evenodd" d="M74.308 14.416c11.37 15.633 7.913 37.523-7.72 48.892l-11 8c-15.632 11.37-37.522 7.913-48.891-7.72-11.37-15.632-7.913-37.522 7.72-48.891l11-8c15.632-11.37 37.522-7.913 48.891 7.72Z" fill="#F6F7FA"/></svg><svg fill="none" viewBox="0 0 15 18" id="play" xmlns="http://www.w3.org/2000/svg"><path d="M3.06.912C1.728.08 0 1.038 0 2.608v12.784c0 1.57 1.728 2.528 3.06 1.695l10.226-6.391a2 2 0 0 0 0-3.392L3.06.912Z" fill="#833CFA"/></svg><svg fill="none" viewBox="0 0 1230 424" id="round-bg" xmlns="http://www.w3.org/2000/svg"><mask id="baa" style="mask-type:alpha" maskUnits="userSpaceOnUse" x="0" y="0" width="1230" height="424"><rect width="1230" height="424" rx="30" fill="#833CFA"/></mask><g mask="url(#baa)"><circle cx="1123" cy="70" r="4" fill="#9251FF"/><circle cx="1141" cy="70" r="4" fill="#9251FF"/><circle cx="1159" cy="70" r="4" fill="#9251FF"/><circle cx="1177" cy="70" r="4" fill="#9251FF"/><circle cx="1123" cy="88" r="4" fill="#9251FF"/><circle cx="1141" cy="88" r="4" fill="#9251FF"/><circle cx="1159" cy="88" r="4" fill="#9251FF"/><circle cx="1177" cy="88" r="4" fill="#9251FF"/><circle cx="1123" cy="106" r="4" fill="#9251FF"/><circle cx="1141" cy="106" r="4" fill="#9251FF"/><circle cx="1159" cy="106" r="4" fill="#9251FF"/><circle cx="1177" cy="106" r="4" fill="#9251FF"/><circle cx="1123" cy="124" r="4" fill="#9251FF"/><circle cx="1141" cy="124" r="4" fill="#9251FF"/><circle cx="1159" cy="124" r="4" fill="#9251FF"/><circle cx="1177" cy="124" r="4" fill="#9251FF"/><circle cx="1051" cy="70" r="4" fill="#9251FF"/><circle cx="1069" cy="70" r="4" fill="#9251FF"/><circle cx="1087" cy="70" r="4" fill="#9251FF"/><circle cx="1105" cy="70" r="4" fill="#9251FF"/><circle cx="1051" cy="88" r="4" fill="#9251FF"/><circle cx="1069" cy="88" r="4" fill="#9251FF"/><circle cx="1087" cy="88" r="4" fill="#9251FF"/><circle cx="1105" cy="88" r="4" fill="#9251FF"/><circle cx="1051" cy="106" r="4" fill="#9251FF"/><circle cx="1069" cy="106" r="4" fill="#9251FF"/><circle cx="1087" cy="106" r="4" fill="#9251FF"/><circle cx="1105" cy="106" r="4" fill="#9251FF"/><circle cx="1051" cy="124" r="4" fill="#9251FF"/><circle cx="1069" cy="124" r="4" fill="#9251FF"/><circle cx="1087" cy="124" r="4" fill="#9251FF"/><circle cx="1105" cy="124" r="4" fill="#9251FF"/><path fill-rule="evenodd" clip-rule="evenodd" d="M952 633c186.12 0 337-150.88 337-337S1138.12-41 952-41 615 109.88 615 296s150.88 337 337 337Zm0 3c187.78 0 340-152.223 340-340S1139.78-44 952-44c-187.777 0-340 152.223-340 340s152.223 340 340 340Z" fill="#9556FD"/><path fill-rule="evenodd" clip-rule="evenodd" d="M668 155c186.12 0 337-150.88 337-337S854.12-519 668-519 331-368.12 331-182s150.88 337 337 337Zm0 3c187.777 0 340-152.223 340-340S855.777-522 668-522 328-369.777 328-182s152.223 340 340 340Z" fill="#9556FD"/></g></svg><svg fill="none" viewBox="0 0 680 158" id="round-bg-desc" xmlns="http://www.w3.org/2000/svg"><path fill-rule="evenodd" clip-rule="evenodd" d="M340 155c186.12 0 337-150.88 337-337S526.12-519 340-519 3-368.12 3-182s150.88 337 337 337Zm0 3c187.777 0 340-152.223 340-340S527.777-522 340-522 0-369.777 0-182s152.223 340 340 340Z" fill="#D896FA"/></svg><svg fill="none" viewBox="0 0 275 230" id="round-bg-mobile" xmlns="http://www.w3.org/2000/svg"><path d="M273.5 115c0 62.444-60.627 113.5-136 113.5-75.373 0-136-51.056-136-113.5S62.127 1.5 137.5 1.5c75.373 0 136 51.056 136 113.5Z" stroke="#9251FF" stroke-width="2"/></svg><svg fill="none" viewBox="0 0 21 21" id="search" xmlns="http://www.w3.org/2000/svg"><path d="M19.47 20.53a.75.75 0 1 0 1.06-1.06l-1.06 1.06ZM17.41 9.58a7.83 7.83 0 0 1-7.83 7.831v1.5a9.33 9.33 0 0 0 9.33-9.33h-1.5Zm-7.83 7.831a7.83 7.83 0 0 1-7.831-7.83H.25a9.33 9.33 0 0 0 9.33 9.33v-1.5ZM1.75 9.581A7.83 7.83 0 0 1 9.58 1.75V.25A9.33 9.33 0 0 0 .25 9.58h1.5ZM9.58 1.75a7.83 7.83 0 0 1 7.831 7.83h1.5A9.33 9.33 0 0 0 9.581.25v1.5Zm10.95 17.72-4.29-4.29-1.06 1.06 4.29 4.29 1.06-1.06Z" fill="#833CFA"/></svg><svg viewBox="0 0 40 35" id="seo" xmlns="http://www.w3.org/2000/svg"><path d="M7.761 23.364c2.245 0 4.043 1.731 4.15 3.975.01.277.106.406.361.48.915.246 1.82.503 2.723.77.213.064.33.01.469-.171 1.542-2.116 4.042-2.468 6.117-.866.18.14.308.14.5.032.978-.544 1.946-1.09 2.936-1.613.319-.17.415-.352.33-.716-.532-2.393 1.042-4.7 3.457-5.042 1.596-.225 2.958.31 3.936 1.613.968 1.303 1.15 2.735.49 4.23-.17.396-.107.61.18.887 1.022.994 2.022 2.02 3.022 3.024.298.288.457.63.34 1.047-.213.812-1.096 1.058-1.713.46-.734-.717-1.447-1.454-2.18-2.18-.362-.364-.724-.716-1.064-1.08-.16-.17-.298-.192-.522-.085-1.606.77-3.117.577-4.52-.513-.192-.15-.33-.16-.533-.053a177.205 177.205 0 0 1-3.117 1.71c-.223.117-.255.245-.202.48.606 2.703-1.17 5.118-3.925 5.235-2.213.096-3.958-1.56-4.245-3.568-.138-.972.074-.737-.862-1.026-.723-.224-1.457-.416-2.18-.64-.245-.076-.405-.054-.564.18-1.309 1.838-3.554 2.351-5.511 1.24-.298-.17-.458-.117-.67.107-1.043 1.09-2.096 2.158-3.15 3.237-.233.246-.5.438-.861.428-.745-.033-1.202-.844-.809-1.486.107-.17.245-.32.383-.459a441.475 441.475 0 0 1 3.15-3.173c.233-.235.297-.427.17-.759-1.075-2.767.957-5.705 3.914-5.705Zm23.884.951c-.011-1.175-1.011-2.169-2.17-2.18-1.245 0-2.256 1.005-2.235 2.234.01 1.196 1.022 2.211 2.192 2.19a2.2 2.2 0 0 0 2.213-2.244ZM18.92 32.98c1.202-.011 2.213-1.047 2.192-2.244-.022-1.207-1.011-2.19-2.203-2.19-1.202-.01-2.212 1.015-2.212 2.222.01 1.218 1.02 2.222 2.223 2.212Zm-8.968-5.438c-.021-1.218-1.032-2.223-2.234-2.201-1.213.021-2.213 1.057-2.18 2.254.031 1.207 1.01 2.18 2.212 2.18 1.18 0 2.213-1.047 2.202-2.233ZM25.293 8.941V1.217c0-.898.32-1.218 1.192-1.218h5.936c.84 0 1.16.32 1.16 1.154v15.652c0 .683-.288 1.057-.83 1.121-.639.075-1.075-.342-1.075-1.036-.01-1.859 0-3.707 0-5.566V2.478c0-.556-.01-.567-.553-.567H27.73c-.511 0-.532.022-.532.545v14.338c0 .705-.298 1.09-.862 1.132-.596.054-1.032-.33-1.043-.94-.01-.759-.01-1.517-.01-2.286.01-1.913.01-3.836.01-5.759ZM3.591 12.21V4.4c0-.886.32-1.196 1.202-1.196h5.937c.808 0 1.149.331 1.149 1.133V20.03c0 .449-.107.823-.543 1.026-.372.17-.723.117-1.043-.14-.276-.224-.33-.523-.33-.865V5.683c0-.535-.01-.556-.52-.556H6.016c-.5 0-.51.021-.521.524v14.37c0 .672-.288 1.057-.83 1.121-.607.064-1.075-.352-1.075-.994-.01-1.41 0-2.83 0-4.241V12.21Z" fill="#fff"/><path d="M14.761 15.351V7.627c0-.897.309-1.218 1.192-1.218h5.979c.787 0 1.117.342 1.117 1.111v15.737c0 .428-.107.791-.532.994-.394.182-.755.118-1.075-.15-.276-.224-.308-.534-.308-.865V8.856c0-.502-.021-.524-.51-.524h-3.426c-.511 0-.532.01-.532.545v14.338c0 .673-.256 1.036-.777 1.132-.596.096-1.117-.32-1.127-.94-.011-.801 0-1.602 0-2.404v-5.652ZM39.006 34.946a.968.968 0 0 1-.968-1.005.979.979 0 0 1 1.958.022c-.011.566-.437.993-.99.983Z" fill="#fff"/></svg><svg fill="none" viewBox="0 0 30 26" id="seo-build" xmlns="http://www.w3.org/2000/svg"><path d="M29.995 7.091c-.01.618-.345.99-.873 1.216a689.223 689.223 0 0 0-3.983 1.696c-3.128 1.334-6.266 2.658-9.385 4-.518.226-.96.226-1.478 0C9.833 12.093 5.39 10.21.937 8.318.17 8.003-.157 7.366.083 6.67c.135-.392.413-.618.768-.765 3.608-1.54 7.216-3.079 10.825-4.608C12.559.924 13.45.56 14.324.159c.46-.215.893-.206 1.344-.01 2.341 1.01 4.692 2 7.034 3 2.13.913 4.27 1.824 6.4 2.727.557.225.855.617.893 1.215Zm-4.28.02c-.077-.05-.105-.079-.144-.088-3.455-1.471-6.9-2.942-10.354-4.412-.173-.079-.317-.04-.48.029-2.946 1.255-5.902 2.51-8.858 3.765-.508.216-1.007.431-1.573.677.163.088.25.137.345.176 3.34 1.422 6.689 2.843 10.019 4.275.259.108.47.088.72-.02 1.957-.843 3.915-1.667 5.872-2.5l4.453-1.902ZM.006 18.955c0-.96.797-1.52 1.68-1.147 2.39 1.01 4.779 2.03 7.168 3.05 1.91.813 3.83 1.627 5.739 2.45.288.128.537.118.825 0 4.213-1.804 8.426-3.598 12.639-5.392.201-.088.384-.196.604-.216.634-.069 1.123.245 1.286.814.173.598-.086 1.245-.652 1.51-.778.353-1.565.686-2.352 1.02-3.761 1.598-7.523 3.196-11.275 4.804-.451.196-.845.206-1.305.01C9.88 23.916 5.38 22.014.889 20.112c-.518-.225-.883-.54-.883-1.157Z" fill="#833CFA"/><path d="M29.995 13.15c-.02.432-.317.824-.864 1.06-2.063.872-4.116 1.745-6.17 2.627-2.438 1.04-4.875 2.06-7.303 3.108a1.521 1.521 0 0 1-1.305 0 3200.813 3200.813 0 0 0-13.31-5.667c-.432-.186-.816-.402-.97-.902-.143-.47-.086-.902.26-1.255.345-.353.767-.441 1.228-.255.873.363 1.756.736 2.63 1.108 3.502 1.49 7.014 2.98 10.517 4.481.24.098.432.069.653-.03 4.308-1.843 8.627-3.676 12.936-5.52.882-.372 1.698.148 1.698 1.246Z" fill="#833CFA"/></svg><svg fill="none" viewBox="0 0 31 31" id="seo-delivery" xmlns="http://www.w3.org/2000/svg"><path d="M0 14.983V4.567c0-.918.136-1.813.667-2.595C1.526.702 2.679 0 4.25 0c4.409.011 8.817 0 13.226 0 1.096 0 1.627.544 1.627 1.655 0 2.901.011 5.802-.011 8.715 0 .408.113.533.52.533 1.119-.023 2.227 0 3.346-.011.52-.012.938.17 1.3.52l5.188 5.203c.396.397.554.884.554 1.428 0 2.539.011 5.066 0 7.605-.011 1.145-.576 1.734-1.707 1.677-.848-.045-1.334.17-1.842.952-1.866 2.845-5.765 1.893-6.94-.487-.17-.351-.385-.453-.758-.442-1.571.023-3.131.011-4.703 0-.214 0-.43-.011-.633-.057-.689-.17-1.198-.884-1.119-1.552.08-.703.645-1.202 1.413-1.213a397 397 0 0 1 5.211 0c.283 0 .453-.08.588-.352.712-1.484 1.9-2.323 3.538-2.357 1.696-.034 2.928.805 3.776 2.244.045.068.067.159.113.227.045.068.056.192.158.17.136-.023.102-.147.102-.238v-5.656c0-.192-.102-.317-.226-.442-1.38-1.382-2.759-2.765-4.137-4.148-.17-.17-.362-.238-.61-.238-.86.012-1.73.023-2.59-.011-.406-.011-.542.113-.53.533.022 2.085.01 4.16 0 6.245 0 .736-.532 1.28-1.267 1.337-.904.068-1.503-.521-1.503-1.485V5.69c0-.816-.011-1.643 0-2.459 0-.295-.08-.43-.407-.43-3.855.01-7.71 0-11.575.01-.995 0-1.537.567-1.537 1.576v19.675c.034.136-.09.363.124.397.17.034.18-.181.237-.306.306-.623.712-1.156 1.266-1.576 1.538-1.167 3.72-1.03 5.177.33 1.515 1.405 1.764 3.501.645 5.258-1.843 2.867-5.675 2.108-6.963-.204-.283-.499-.588-.68-1.12-.623a2.823 2.823 0 0 1-.972-.046c-.655-.158-1.062-.578-1.164-1.246a3.451 3.451 0 0 1-.045-.59V14.983Zm23.082 12.15c.746 0 1.357-.533 1.38-1.213.01-.691-.589-1.315-1.278-1.315-.701 0-1.277.6-1.289 1.349-.011.714.464 1.179 1.187 1.179Zm-16.3 0c.791 0 1.334-.476 1.357-1.202.011-.76-.532-1.337-1.278-1.326-.678 0-1.243.6-1.254 1.338-.012.714.452 1.19 1.175 1.19Z" fill="#833CFA"/></svg><svg fill="none" viewBox="0 0 31 29" id="seo-franchise" xmlns="http://www.w3.org/2000/svg"><path d="M15.995 0H29.56c.98 0 1.43.427 1.43 1.373 0 1.429.02 2.848 0 4.277-.038 2.616-2.016 4.935-4.675 5.399-2.15.38-4.003-.27-5.5-1.81-.173-.175-.26-.259-.471-.018-2.506 2.858-6.72 2.32-8.794-.046-.182-.213-.259-.13-.393.019-1.229 1.354-2.755 2.04-4.637 1.966-.086 0-.173 0-.25-.009-.614-.065-.614-.065-.614.538v13.6c0 .223-.01.445.086.65.192.426.51.695 1.008.714 1.047.028 2.084-.028 3.13.046.192.019.288-.065.288-.26V15.28c0-.315.01-.621.038-.937a1.087 1.087 0 0 1 1.104-.983c3.092-.01 6.192-.01 9.284 0 .681 0 1.161.51 1.17 1.206.01 1.596 0 3.2 0 4.796 0 1.317.01 2.644 0 3.962-.009.77-.786 1.335-1.535 1.131a1.066 1.066 0 0 1-.797-.816c-.058-.223-.058-.455-.058-.687v-6.855c0-.473 0-.473-.499-.473-1.958 0-3.907.009-5.865-.01-.346 0-.452.084-.452.427.01 3.405.01 6.819 0 10.223 0 .362.106.446.47.446 2.746-.019 5.492.009 8.247-.019 1.258-.018 2.515-.018 3.773-.037.816-.01 1.238-.418 1.238-1.206V14.945c0-.204 0-.417.03-.621.095-.594.585-.974 1.218-.965.586.01 1.056.417 1.143 1.011.019.13.01.25.01.38 0 3.535-.03 7.07.009 10.604.029 2.023-1.7 3.655-3.773 3.646-6-.046-12-.019-17.99-.019-1.786 0-3.235-1.16-3.59-2.838-.058-.25-.039-.51-.039-.761v-14.89c0-.287-.077-.482-.317-.686C1.72 8.72 1.03 7.347 1.01 5.686c-.02-1.446-.01-2.894 0-4.35C1.01.426 1.45 0 2.392 0h13.603ZM28.59 4.35c0-.648-.01-1.177 0-1.715.01-.26-.076-.371-.364-.371-2.026.009-4.052.009-6.077 0-.288 0-.375.092-.375.361.01.974 0 1.949 0 2.913 0 1.689 1.392 3.182 3.188 3.312 1.785.14 3.254-1.196 3.542-2.616.154-.65.048-1.326.086-1.883ZM6.75 2.283H3.698c-.183 0-.346 0-.336.241.028 1.16-.068 2.32.057 3.47.144 1.392 1.555 3.061 3.629 2.857 1.555-.157 3.187-1.521 3.14-3.284-.03-.965-.01-1.92 0-2.885 0-.297-.087-.408-.414-.408-1.008.018-2.016 0-3.024.01Zm9.236-.01c-.999 0-1.988.02-2.986-.008-.355-.01-.451.11-.432.436.038.695.086 1.391.038 2.087-.028.436-.048.872.03 1.317.24 1.41 1.612 2.82 3.35 2.765 1.89-.056 3.34-1.457 3.388-3.182.03-1.02 0-2.041.01-3.062 0-.269-.096-.361-.374-.361-1.008.018-2.016.018-3.024.009Z" fill="#833CFA"/></svg><svg fill="none" viewBox="0 0 26 30" id="seo-gov" xmlns="http://www.w3.org/2000/svg"><path d="M12.978 16.146h11.499c.186 0 .373 0 .55.029.648.115.963.49.973 1.113a1.195 1.195 0 0 1-.963 1.2c-.275.068-.56.048-.846.048-.55 0-.55 0-.55.528v9.676c0 .826-.501 1.296-1.337 1.258-.58-.029-1.041-.47-1.061-1.037-.02-.441-.01-.883-.01-1.334v-8.601c0-.49 0-.49-.481-.49-5.17 0-10.34 0-15.51-.01-.373 0-.5.097-.48.471.029.394.01.787.01 1.19 0 .557 0 .557.55.557h9.65c.905 0 1.819-.01 2.723.01.786.019 1.19.393 1.219 1.104.03.652-.452 1.2-1.14 1.276-.148.02-.295.01-.443.01H5.538c-.905 0-.777-.106-.777.768-.01 1.584 0 3.168 0 4.752 0 .614-.304 1.036-.874 1.238-.738.259-1.406-.115-1.543-.864a3.223 3.223 0 0 1-.04-.538v-9.465c0-.499 0-.499-.51-.499-.296 0-.59.02-.885-.048-.59-.134-.954-.643-.905-1.305.04-.547.472-.989 1.042-1.046.148-.02.295-.01.442-.01 3.824.02 7.657.02 11.49.02ZM10.658 12.086c0 .144-.02.288 0 .432.108.825-.786 1.478-1.71 1.267-.393-.087-.639-.375-.688-.768-.216-1.728.03-3.331 1.337-4.637.206-.21.216-.307 0-.528-1.288-1.324-1.74-2.87-1.091-4.607C9.174 1.45 10.5.308 12.456.039c2.35-.327 4.718 1.45 5.2 3.84.304 1.535-.197 2.84-1.268 3.954-.216.221-.246.327-.01.567.894.892 1.376 1.967 1.356 3.235v1.008c-.01.652-.55 1.161-1.258 1.209-.59.038-1.032-.374-1.16-1.027-.107-.538-.039-1.075-.098-1.613-.137-1.372-1.434-1.996-2.663-1.747-1.248.25-1.897 1.046-1.897 2.294v.327Zm4.61-7.43c.01-1.238-1.003-2.265-2.251-2.285-1.219-.01-2.31 1.085-2.32 2.333-.01 1.21.983 2.131 2.31 2.14 1.307.02 2.25-.892 2.26-2.188Z" fill="#833CFA"/></svg><svg fill="none" viewBox="0 0 30 30" id="seo-house" xmlns="http://www.w3.org/2000/svg"><path d="M15.001 30H1.251c-.692 0-1.22-.451-1.249-1.075-.038-.74.451-1.267 1.19-1.277 2.325-.01 4.658 0 6.982 0 1.037 0 1.037 0 1.037-1.027v-2.37c.01-.73.47-1.2 1.19-1.2a362.7 362.7 0 0 1 4.571 0c.72 0 1.19.48 1.2 1.2.01 1.007.01 2.015 0 3.023 0 .297.097.393.394.393 1.258-.01 2.516-.01 3.784 0 .288 0 .403-.067.403-.384-.01-8.063-.01-16.126 0-24.18 0-.297-.077-.374-.365-.297C15.26 4.073 10.142 5.36 5.024 6.626c-.326.077-.365.25-.365.538.01 5.635 0 11.279.01 16.913 0 .346-.058.672-.298.931-.336.365-.835.49-1.287.317-.499-.192-.768-.576-.777-1.132V6.012c0-.873.259-1.219 1.094-1.43C9.393 3.085 15.385 1.577 21.367.08c.135-.038.279-.067.423-.077.768-.048 1.296.442 1.296 1.2.01 1.152.01 2.304 0 3.456 0 .278.096.432.346.547 1.152.557 2.295 1.152 3.447 1.708.567.279.826.692.826 1.335-.01 6.287-.01 12.574-.01 18.852 0 .518 0 .518.538.518h.538c.72.01 1.229.49 1.229 1.172 0 .69-.49 1.18-1.21 1.18h-5.33C20.648 30 17.825 30 15.002 30Zm8.095-12.316c0 3.178 0 6.355-.01 9.532 0 .317.077.451.423.432.49-.029.98-.019 1.479 0 .288.01.374-.086.374-.374-.01-6.038-.01-12.085 0-18.123 0-.24-.096-.365-.298-.47-.509-.24-1.008-.5-1.517-.749-.442-.22-.442-.22-.442.26-.01 3.167-.01 6.325-.01 9.492Zm-10.39 7.708c-.278 0-.557.01-.826 0-.201-.01-.317.058-.307.288.01.567.01 1.123 0 1.69 0 .192.077.288.278.278.567-.01 1.124-.01 1.69 0 .221 0 .298-.096.289-.307-.01-.547-.01-1.104 0-1.65 0-.212-.077-.308-.298-.299-.269.01-.547 0-.826 0Z" fill="#833CFA"/><path d="M9.268 10.409c0 .287-.01.575 0 .863.01.221-.086.298-.297.298-.586-.01-1.172-.01-1.757 0-.221 0-.298-.086-.298-.298.01-.585.01-1.17 0-1.756 0-.221.086-.298.298-.298.585.01 1.171.01 1.757 0 .22 0 .297.087.297.298-.01.297 0 .595 0 .893ZM13.878 10.36c0 .298-.01.596 0 .903 0 .201-.058.317-.279.307-.595-.01-1.2-.01-1.796 0-.201 0-.278-.086-.278-.278 0-.595.01-1.2 0-1.795 0-.202.086-.279.278-.279.596 0 1.2.01 1.796 0 .202 0 .279.087.279.279-.01.288 0 .576 0 .864ZM17.306 9.218h.902c.202 0 .279.077.279.279v1.795c0 .201-.087.278-.279.278h-1.795c-.202 0-.279-.077-.279-.278V9.497c0-.202.087-.279.279-.279h.893ZM8.097 13.826H9c.201 0 .278.086.278.278 0 .595-.01 1.2 0 1.795 0 .202-.086.278-.278.278H7.204c-.202 0-.279-.086-.279-.278v-1.795c0-.201.087-.278.279-.278h.893ZM13.878 15.035v.864c0 .192-.077.278-.279.278h-1.796c-.192 0-.278-.076-.278-.278v-1.795c0-.192.077-.278.278-.278H13.6c.192 0 .288.076.279.278-.01.307 0 .615 0 .931ZM16.134 15.006c0-.297.01-.595 0-.902 0-.192.077-.288.279-.278h1.795c.192 0 .288.076.279.278V15.9c0 .192-.077.288-.279.278-.595 0-1.2-.01-1.795 0-.23 0-.288-.115-.279-.307v-.864ZM9.268 19.604v.903c0 .201-.086.278-.278.278H7.194c-.201 0-.278-.086-.278-.278 0-.596.01-1.2 0-1.795 0-.202.086-.279.278-.279H8.99c.202 0 .278.087.278.279-.01.297 0 .595 0 .892ZM12.735 20.785c-.298 0-.595-.01-.903 0-.201 0-.317-.058-.307-.288.01-.595.01-1.2 0-1.795 0-.202.086-.278.278-.278H13.6c.202 0 .279.086.279.288 0 .595-.01 1.2 0 1.795 0 .201-.087.278-.279.278-.288-.01-.576 0-.864 0ZM17.277 20.785h-.864c-.192 0-.279-.077-.279-.278v-1.795c0-.192.077-.279.279-.279h1.795c.192 0 .279.077.279.279v1.795c0 .192-.077.288-.279.278-.307-.01-.624 0-.931 0Z" fill="#833CFA"/></svg><svg fill="none" viewBox="0 0 30 31" id="seo-logist" xmlns="http://www.w3.org/2000/svg"><path d="M15.029 31C7.543 31.07-.048 24.58-.001 15.455.049 6.24 7.496.04 14.885 0c7.851-.04 14.99 6.021 15.106 15.485.125 9.692-7.889 15.604-14.961 15.515Zm-5.391-3.71c-.029-.189-.058-.298-.067-.427-.039-.506.115-.932.538-1.22.413-.278.836-.258 1.259 0 .211.129.374.317.518.516.26.357.5.734.779 1.071.71.863 1.576 1.419 2.729 1.27.874-.11 1.547-.615 2.085-1.28 1.364-1.676 2.133-3.66 2.633-5.763.538-2.262.711-4.564.615-6.895a29.593 29.593 0 0 0-.442-4.127c-.038-.238-.144-.327-.365-.376-1.076-.209-2.162-.328-3.248-.417-1.192-.09-2.374-.01-3.565 0-.682.01-1.153-.427-1.192-1.071-.038-.645.462-1.27 1.086-1.36.375-.05.74-.059 1.115-.069 1.595-.02 3.19.01 4.776.218 1.825.248 3.613.665 5.314 1.4.73.317 1.422.693 2.114 1.11.01-.06.019-.08.019-.1-.02-.049-.039-.088-.058-.138-1.25-2.39-3.017-4.246-5.314-5.565-.49-.278-.49-.268-.519.307-.029.467-.23.834-.643 1.042-.414.208-.788.12-1.154-.139-.211-.149-.365-.357-.5-.575-.355-.546-.749-1.062-1.248-1.488-.808-.695-1.701-.992-2.74-.625-.614.218-1.123.615-1.546 1.11-1.403 1.687-2.172 3.701-2.69 5.824-.539 2.242-.702 4.514-.616 6.815.058 1.399.192 2.787.442 4.166.048.238.125.367.375.407 1.067.198 2.133.327 3.21.407 1.172.09 2.354.03 3.526 0 .653-.02 1.182.506 1.259 1.18.067.595-.346 1.101-1 1.24a4.33 4.33 0 0 1-.5.07c-1.94.02-3.89.07-5.822-.218-2.431-.358-4.767-1.032-6.88-2.371-.068-.04-.125-.13-.25-.06 1.354 2.718 3.305 4.752 5.967 6.13ZM2.402 15.495c-.029.833.336 1.508.865 2.093 1.028 1.13 2.316 1.825 3.68 2.4.327.14.27-.079.24-.267a30.116 30.116 0 0 1-.345-4.355c0-1.37.086-2.718.278-4.067.01-.1.212-.457-.182-.308-1.451.546-2.768 1.32-3.777 2.55-.451.565-.778 1.19-.759 1.954Zm25.234.02c.029-.913-.384-1.617-.98-2.232-.99-1.032-2.2-1.707-3.488-2.242-.096-.04-.202-.14-.298-.05-.087.08-.029.208-.01.318a27.67 27.67 0 0 1 .337 3.987c.01 1.488-.039 2.966-.289 4.445-.038.238 0 .367.279.247 1.364-.535 2.604-1.26 3.584-2.4.5-.595.884-1.25.865-2.073ZM9.666 3.73C7.39 4.593 3.873 8.253 3.729 9.9c1.24-.764 2.547-1.31 3.902-1.726.153-.05.23-.169.269-.318.432-1.418.99-2.787 1.768-4.126Zm16.711 17.36c-1.23.744-2.527 1.29-3.872 1.706-.231.07-.327.228-.385.436a19.7 19.7 0 0 1-.817 2.222c-.259.605-.557 1.19-.855 1.776 2.7-1.3 4.67-3.353 5.93-6.14Z" fill="#833CFA"/></svg><svg fill="none" viewBox="0 0 31 30" id="seo-market" xmlns="http://www.w3.org/2000/svg"><path d="M20.248 4.607h9.336c1.002 0 1.547.624 1.389 1.593-.764 4.443-1.528 8.887-2.292 13.32-.159.941-.615 1.297-1.677 1.297H9.227c-.297 0-.595-.01-.892.01-.615.028-1.062.498-1.082 1.112-.01.586.387 1.018 1.012 1.085.149.01.298.01.447.01h8.998c.625 0 1.081.307 1.29.854.248.671-.13 1.343-.844 1.487a3.025 3.025 0 0 1-.585.058c-.962.01-1.935 0-2.897 0-.466 0-.466 0-.377.432.367 1.804-.913 3.714-2.788 4.069-2.43.46-4.96-1.545-4.206-4.242.099-.336.01-.442-.308-.576-1.577-.643-2.51-2.274-2.202-3.781.347-1.68 1.865-2.899 3.621-2.908.06 0 .129-.01.188 0 .308.029.318-.106.229-.336-.387-.97-.764-1.948-1.141-2.927A4601.187 4601.187 0 0 1 2.907 2.802c-.139-.355-.318-.49-.695-.45-.327.028-.664.019-1.002 0C.486 2.321-.01 1.832 0 1.19.01.51.536.01 1.26 0h2.163c.744 0 1.11.24 1.379.921.655 1.67 1.3 3.34 1.944 5.02 1.568 4.05 3.145 8.1 4.703 12.16.099.259.238.335.516.335 4.662-.01 9.325-.01 13.988 0 .307 0 .427-.086.476-.393.595-3.532 1.22-7.064 1.826-10.595.079-.48.079-.48-.447-.48H10.883c-.754 0-1.16-.307-1.3-.97-.158-.758.338-1.382 1.142-1.382 1.428-.01 2.847 0 4.275 0 1.756-.01 3.502-.01 5.248-.01Zm-9.553 22.976c.684 0 1.16-.423 1.16-1.037 0-.633-.466-1.104-1.1-1.104-.616 0-1.112.51-1.112 1.152-.01.605.397.989 1.052.989Z" fill="#833CFA"/><path d="M25.11 29.991c-2.024 0-3.661-1.497-3.67-3.349a3.579 3.579 0 0 1 3.6-3.599c1.925 0 3.592 1.603 3.582 3.455 0 1.93-1.578 3.493-3.512 3.493Zm-.149-2.408c.675 0 1.22-.461 1.22-1.056 0-.566-.526-1.085-1.11-1.094-.616-.01-1.132.499-1.142 1.132-.01.614.397 1.018 1.032 1.018Z" fill="#833CFA"/></svg><svg fill="none" viewBox="0 0 30 31" id="seo-med" xmlns="http://www.w3.org/2000/svg"><path d="M29.99 17.883v9.297c0 2.223-1.545 3.82-3.696 3.82h-2.016c-.71-.01-1.2-.476-1.238-1.17-.038-.685.374-1.211 1.085-1.26.73-.05 1.459-.03 2.189-.04.864-.01 1.248-.397 1.286-1.28.086-2.054.038-4.118.067-6.172.01-.535.02-1.061.048-1.597.02-.298-.096-.377-.374-.377-1.767.01-3.523.01-5.29 0-.605 0-1.037-.328-1.21-.913-.249-.814.24-1.518 1.076-1.518 1.785-.01 3.571-.01 5.366 0 .346 0 .461-.1.442-.456-.096-2.342-.048-4.683-.077-7.025 0-.298-.029-.595-.048-.893-.048-.605-.46-1.032-1.056-1.052-.538-.02-1.075-.01-1.622-.01h-13.93c-.25 0-.5-.02-.749-.04-.605-.059-.998-.466-1.008-1.1-.019-1.648-.019-3.295 0-4.952.01-.674.519-1.13 1.229-1.14.95-.01 1.891 0 2.842 0h6.115c.931 0 1.373.456 1.373 1.408 0 .983.01 1.955-.01 2.937-.01.337.106.417.413.417 1.728-.01 3.456-.01 5.184 0C28.435 4.777 30 6.394 30 8.517c0 3.116-.01 6.241-.01 9.366ZM14.995 4.757c1.027 0 2.064-.01 3.091 0 .25 0 .346-.08.336-.337-.01-.536-.01-1.062 0-1.598.01-.258-.096-.347-.336-.347h-6.182c-.25 0-.346.09-.336.347.01.516.02 1.042 0 1.558-.01.298.106.377.374.377 1.018-.01 2.036 0 3.053 0ZM0 17.864V8.567c0-2.203 1.555-3.8 3.677-3.81H5.73c.691.01 1.19.466 1.229 1.14.038.715-.374 1.241-1.094 1.3-.768.06-1.527-.03-2.295.03-.749.06-1.133.437-1.171 1.22-.096 2.184-.038 4.366-.077 6.55-.01.436-.019.862-.048 1.299-.019.298.096.377.375.377 1.776-.01 3.552-.01 5.328 0 .614 0 1.046.347 1.2.962.201.794-.288 1.459-1.085 1.459-1.67.01-3.331 0-5.002 0-.144 0-.288.01-.432 0-.307-.04-.393.109-.374.407.077 1.349.038 2.698.057 4.048.02 1.23-.019 2.45.048 3.68.058.913.423 1.29 1.316 1.29h14.966c.374 0 .74-.02 1.114.04.566.1.988.625.979 1.24-.01.616-.461 1.131-1.037 1.181-.154.02-.307.01-.47.01H3.715C1.555 31 0 29.403 0 27.16v-9.296Z" fill="#833CFA"/><path d="M13.824 19.888c0-.794 0-.794-.797-.794-.931 0-1.45-.486-1.44-1.35.01-.605.423-1.051 1.018-1.08.278-.01.557-.02.825 0 .288.019.423-.08.394-.398a7.667 7.667 0 0 1 0-.813c.02-.675.518-1.161 1.162-1.171.652 0 1.17.506 1.19 1.18.01.288.01.566 0 .854 0 .198.077.297.278.297.26.01.528.03.788.04.69.02 1.17.566 1.17 1.32 0 .674-.45 1.101-1.17 1.111-.25 0-.51.01-.759 0-.24-.01-.317.1-.307.327.01.248 0 .496 0 .744-.01.715-.538 1.24-1.248 1.25-.662 0-1.094-.476-1.104-1.23v-.287Z" fill="#833CFA"/></svg><svg fill="none" viewBox="0 0 31 31" id="seo-prom" xmlns="http://www.w3.org/2000/svg"><path d="M15.491 30.98h-14.2c-.803 0-1.329-.535-1.289-1.299.03-.614.506-1.1 1.12-1.13.338-.01.675-.01 1.002 0 .228.01.337-.07.347-.307.08-1.061.189-2.122.278-3.183.149-1.685.287-3.38.426-5.066.11-1.299.209-2.588.318-3.887.138-1.675.287-3.35.426-5.026.11-1.309.208-2.618.317-3.916.14-1.666.278-3.332.427-4.997.03-.357.06-.714.099-1.071.08-.654.545-1.09 1.2-1.09 1.596-.01 3.193-.01 4.8 0 .634 0 1.12.436 1.19 1.06.138 1.428.257 2.856.376 4.293.139 1.666.287 3.331.426 4.997l.328 3.956.416 4.957.327 3.956c.139 1.666.288 3.331.417 4.997.02.278.138.347.396.347 3.729-.01 7.457-.01 11.196 0 .277 0 .377-.09.367-.367-.02-.515-.02-1.04 0-1.556.02-.337-.12-.417-.427-.417-2.618.01-5.226.01-7.844 0-.743 0-1.259-.515-1.249-1.23.01-.703.506-1.199 1.24-1.199 2.598 0 5.206-.01 7.804.01.376 0 .505-.1.476-.476a11.73 11.73 0 0 1 0-1.447c.02-.337-.12-.417-.427-.417-2.618.01-5.226.01-7.844 0-.793 0-1.328-.595-1.239-1.378.07-.625.575-1.05 1.27-1.05h7.734c.506 0 .506 0 .506-.506 0-.595-.02-1.19.01-1.785.01-.317-.11-.456-.397-.565-3.46-1.378-6.922-2.766-10.392-4.154-.12-.05-.228-.09-.347-.14-.655-.287-.952-.941-.704-1.585.238-.635.922-.952 1.586-.694 1.091.416 2.162.852 3.243 1.288 2.796 1.12 5.593 2.231 8.389 3.351.843.338 1.031.625 1.031 1.547v12.264c0 .506 0 .506.516.506h.515c.814 0 1.34.476 1.349 1.21 0 .743-.516 1.219-1.329 1.219h-8.478c-1.904-.02-3.798-.02-5.702-.02Zm-7.15-2.429c1.012 0 2.033-.01 3.045.01.307 0 .397-.109.367-.387-.04-.366-.06-.743-.09-1.11-.138-1.676-.287-3.351-.426-5.027-.109-1.299-.208-2.587-.317-3.886-.139-1.705-.288-3.4-.427-5.106-.089-1.051-.188-2.092-.267-3.143-.02-.258-.13-.337-.377-.327-.833.01-1.656 0-2.49 0-.872 0-.852 0-.911.882-.09 1.309-.209 2.618-.318 3.926-.139 1.626-.287 3.252-.416 4.878-.11 1.349-.208 2.687-.327 4.036a809.423 809.423 0 0 1-.427 4.877c-.03.288.06.397.367.387 1.002-.02 2.003-.01 3.015-.01Zm0-21.415c.417 0 .843-.02 1.26.01.307.02.397-.11.367-.397-.06-.605-.1-1.21-.149-1.814-.07-.744-.139-1.477-.198-2.22-.02-.19-.08-.288-.298-.288-.644.01-1.289.01-1.933 0-.179 0-.268.069-.288.257-.03.367-.07.744-.1 1.11-.088.982-.168 1.974-.257 2.955-.03.288.07.407.367.387.407-.01.823 0 1.23 0Z" fill="#833CFA"/></svg><svg fill="none" viewBox="0 0 31 21" id="seo-school" xmlns="http://www.w3.org/2000/svg"><path d="M23.91 15.045c0 .716-.02 1.422.01 2.138.02.63-.248 1.094-.774 1.432-1.607 1.045-3.362 1.742-5.247 2.129-3.68.735-6.992-.155-10.056-2.129-.486-.31-.764-.754-.744-1.345.01-.406-.05-.822.04-1.228.128-.61.674-.987 1.348-.93.605.05 1.101.494 1.071 1.094-.03.552.238.784.685 1.006 1.815.92 3.729 1.442 5.782 1.384 1.894-.058 3.6-.697 5.207-1.635.139-.087.208-.194.208-.358v-2.68c0-.387-.208-.184-.347-.117-1.587.765-3.184 1.53-4.75 2.323-.576.29-1.072.28-1.647 0C10.104 13.874 5.502 11.639.9 9.395.186 9.046-.11 8.533.037 7.885c.1-.426.387-.687.774-.87C5.046 4.952 9.28 2.892 13.516.821c.436-.213.872-.406 1.289-.639.496-.27.962-.222 1.448.02 2.281 1.122 4.592 2.235 6.893 3.367 2.35 1.142 4.7 2.293 7.051 3.435.447.213.744.522.794 1.016.06.58-.169 1.016-.704 1.286-.685.34-1.369.687-2.063 1.007-.258.116-.357.27-.357.56.01 1.423.01 2.855 0 4.277 0 .562-.486 1.065-1.091 1.162-.566.096-1.071-.184-1.27-.707-.099-.251-.109-.522-.109-.784v-2.68c0-.387-.02-.367-.397-.242-.872.271-1.24.774-1.09 1.684.069.455 0 .968 0 1.461Zm-1.478-4.615c0-.02-.01-.049-.01-.068-1.19-.164-2.37-.339-3.56-.503-1.161-.165-2.331-.329-3.492-.503-.396-.058-.734-.223-.922-.59-.238-.455-.199-.89.09-1.307.326-.454.793-.541 1.318-.464 3.184.445 6.368.9 9.551 1.335.407.058.823.223 1.24.039.109-.048.277-.068.287-.194.01-.145-.168-.154-.267-.203-3.62-1.77-7.25-3.531-10.87-5.312a.576.576 0 0 0-.585 0c-3.64 1.78-7.27 3.551-10.91 5.322-.1.048-.248.058-.248.184s.149.145.248.184c3.62 1.77 7.25 3.531 10.87 5.311.238.117.426.117.654 0 2.014-.996 4.027-1.973 6.05-2.96.189-.087.377-.175.556-.271Z" fill="#833CFA"/></svg><svg viewBox="0 0 40 36" id="target" xmlns="http://www.w3.org/2000/svg"><path d="M17.937 35.996c4.652-.075 8.72-1.661 12.168-4.82.298-.263.546-.55.533-.987-.012-.413-.186-.712-.533-.912-.36-.2-.72-.175-1.054.05-.174.125-.335.275-.496.424-2.555 2.323-5.532 3.71-8.956 4.047-4.96.487-9.252-1.024-12.8-4.521-2.592-2.535-4.08-5.645-4.552-9.23a15.922 15.922 0 0 1 8.77-16.397c8.136-3.996 18.096-.174 21.507 8.28.05.113.087.238.136.35.273.612.844.862 1.402.625.533-.225.769-.8.533-1.412a17.239 17.239 0 0 0-2.99-5.095C28.543 2.776 24.673.553 19.985.104 12.344-.621 6.427 2.414 2.409 9.02c-1.7 2.772-2.456 5.87-2.407 9.104.137 8.954 6.462 16.072 14.735 17.584 1.055.187 2.121.312 3.2.287Z" fill="#fff"/><path d="M17.838 5.96C11.885 5.96 6.8 10.42 6.03 16.327c-.856 6.532 3.523 12.514 9.985 13.525 3.572.562 6.784-.362 9.588-2.697.533-.45.632-1.1.248-1.561-.385-.475-1.03-.512-1.575-.05-1.452 1.211-3.101 1.973-4.974 2.248-4.999.75-9.799-2.485-10.99-7.406-1.364-5.582 2.171-11.127 7.79-12.189 4.453-.849 9.005 1.586 10.815 5.783.372.861.881 1.16 1.514.899.645-.275.793-.887.396-1.749-1.972-4.22-5.283-6.569-9.86-7.143-.062-.013-.124-.013-.186-.013-.323-.012-.633-.012-.943-.012Z" fill="#fff"/><path d="M38.527 25.68a2.547 2.547 0 0 0-.397-1.186c-.36-.562-.682-1.15-1.067-1.699-.21-.312-.149-.474.161-.649.596-.337 1.166-.724 1.737-1.087.732-.462 1.141-1.111 1.017-1.998-.136-.924-.707-1.486-1.625-1.698-1.885-.437-3.77-.887-5.643-1.336-.422-.1-.782-.025-1.154.2-1.352.849-2.716 1.685-4.068 2.547-.273.175-.521.225-.831.137-2.48-.599-4.974-1.174-7.454-1.76-.1-.025-.211-.05-.323-.063-.645-.112-1.141.187-1.29.774-.136.55.199 1.1.831 1.262.893.237 1.811.437 2.704.65 1.7.399 3.399.81 5.11 1.198a.82.82 0 0 1 .57.412c.832 1.349 1.675 2.698 2.494 4.059.273.462.632.724 1.153.837 1.86.412 3.709.874 5.557 1.298 1.327.313 2.505-.587 2.518-1.898Zm-2.307-.262c-.137 0-.199.012-.26 0-1.551-.362-3.102-.737-4.652-1.099a.673.673 0 0 1-.434-.325c-.645-1.061-1.302-2.123-1.96-3.184-.16-.263-.111-.4.15-.562 1.029-.625 2.058-1.274 3.075-1.924.248-.162.484-.162.757-.1.942.238 1.898.45 2.852.675.608.15 1.216.287 1.849.437-.112.212-.273.262-.397.337-.745.475-1.501.937-2.245 1.411-.633.413-.757.95-.372 1.599.21.362.434.712.657 1.074.298.55.62 1.086.98 1.661Z" fill="#fff"/><path d="M17.813 23.994c1.328.025 2.419-.362 3.424-1.024.632-.412.781-1.011.421-1.548-.347-.512-.942-.6-1.55-.213-2.32 1.449-5.16.487-5.954-2.035-.545-1.736.137-3.622 1.662-4.559a3.871 3.871 0 0 1 4.825.587c.162.163.31.35.472.512.409.412 1.017.437 1.426.088.41-.35.496-.974.149-1.436-1.054-1.412-2.456-2.248-4.192-2.41-3.312-.3-6.016 1.86-6.562 5.145-.508 3.072 1.662 6.169 4.726 6.768.422.1.843.15 1.153.125Z" fill="#fff"/></svg><svg fill="none" viewBox="0 0 34 34" id="tg" xmlns="http://www.w3.org/2000/svg"><circle cx="17" cy="17" r="16.25" stroke="#833CFA" stroke-width="1.5"/><path d="M25.162 10a.462.462 0 0 0-.179.032L9.326 15.986a.503.503 0 0 0 .016.948l3.63 1.223 2.186 4.382.008.008c.04.08.122.13.21.13a.242.242 0 0 0 .155-.057l2.049-1.742-2.292-1.733.178 2.284-1.644-3.41 8.748-5.257-7.282 6.375 5.67 4.3a1 1 0 0 0 .623.211 1.03 1.03 0 0 0 1.005-.785l3.062-12.255c.08-.308-.179-.608-.486-.608Z" fill="#833CFA"/></svg><svg fill="none" viewBox="0 0 20 20" id="triangle" xmlns="http://www.w3.org/2000/svg"><path d="m15.795 11.272-8 5A1.5 1.5 0 0 1 5.5 15V5a1.5 1.5 0 0 1 2.295-1.272l8 5a1.5 1.5 0 0 1 0 2.544Z" fill="currentColor"/></svg><svg fill="none" viewBox="0 0 34 34" id="vk" xmlns="http://www.w3.org/2000/svg"><circle cx="17" cy="17" r="16.25" stroke="#833CFA" stroke-width="1.5"/><path d="M21.015 16.992c.288.143.567.309.835.494a7.978 7.978 0 0 1 2.623 3.078c.216.446.387.909.522 1.385.01.037.007.05-.037.05a926.73 926.73 0 0 0-2.74.001c-.048 0-.056-.025-.068-.06a5.659 5.659 0 0 0-.88-1.699c-.596-.78-1.347-1.345-2.29-1.642a4.547 4.547 0 0 0-.809-.17c-.032-.004-.042.006-.04.037.002.015.001.03.001.046v3.412c0 .075 0 .075-.076.075-.365.001-.73-.005-1.093-.034-1.38-.11-2.681-.474-3.866-1.21a7.377 7.377 0 0 1-1.508-1.241c-.871-.933-1.472-2.025-1.885-3.226a12.181 12.181 0 0 1-.495-1.986c-.076-.458-.13-.919-.164-1.382-.021-.282-.03-.565-.045-.848-.002-.054.008-.072.067-.072.87.002 1.741.002 2.611 0 .046 0 .063.007.064.06.007.405.033.81.078 1.214.08.728.224 1.443.458 2.137.203.605.471 1.178.832 1.705.42.614.935 1.128 1.59 1.492.236.13.483.233.743.304.052.014.063.004.063-.048-.002-.42 0-.84 0-1.26v-5.521c0-.096-.01-.081.08-.081.825 0 1.65 0 2.476-.002.056 0 .071.012.071.07-.002 1.272-.001 2.544-.001 3.816 0 .074 0 .072.074.06.562-.086 1.047-.341 1.49-.684.68-.527 1.197-1.19 1.603-1.945.218-.406.391-.83.515-1.274.008-.03.02-.042.055-.042h2.5c.011 0 .023.003.048.005-.437 2.143-1.613 3.77-3.402 4.986Z" fill="#833CFA"/></svg><svg viewBox="0 0 20 20" id="vk-circle" xmlns="http://www.w3.org/2000/svg"><path d="M10 .4C4.698.4.4 4.698.4 10s4.298 9.6 9.6 9.6 9.6-4.298 9.6-9.6S15.302.4 10 .4zm3.692 10.831s.849.838 1.058 1.227c.006.008.009.016.011.02.085.143.105.254.063.337-.07.138-.31.206-.392.212h-1.5c-.104 0-.322-.027-.586-.209-.203-.142-.403-.375-.598-.602-.291-.338-.543-.63-.797-.63a.305.305 0 0 0-.095.015c-.192.062-.438.336-.438 1.066 0 .228-.18.359-.307.359h-.687c-.234 0-1.453-.082-2.533-1.221-1.322-1.395-2.512-4.193-2.522-4.219-.075-.181.08-.278.249-.278h1.515c.202 0 .268.123.314.232.054.127.252.632.577 1.2.527.926.85 1.302 1.109 1.302a.3.3 0 0 0 .139-.036c.338-.188.275-1.393.26-1.643 0-.047-.001-.539-.174-.775-.124-.171-.335-.236-.463-.26a.55.55 0 0 1 .199-.169c.232-.116.65-.133 1.065-.133h.231c.45.006.566.035.729.076.33.079.337.292.308 1.021-.009.207-.018.441-.018.717 0 .06-.003.124-.003.192-.01.371-.022.792.24.965a.216.216 0 0 0 .114.033c.091 0 .365 0 1.107-1.273a9.718 9.718 0 0 0 .595-1.274c.015-.026.059-.106.111-.137a.266.266 0 0 1 .124-.029h1.781c.194 0 .327.029.352.104.044.119-.008.482-.821 1.583l-.363.479c-.737.966-.737 1.015.046 1.748z"/></svg><svg viewBox="0 0 41 41" id="ya" xmlns="http://www.w3.org/2000/svg"><path d="M41 21.199c-.437.053-.877.033-1.314.053-1.01.047-2.02.07-3.03.117-1.174.057-2.35.13-3.52.253-1.23.13-2.451.314-3.645.64-1.873.51-3.527 1.4-4.86 2.83-1.207 1.295-1.957 2.835-2.4 4.535-.304 1.167-.48 2.357-.604 3.554-.187 1.824-.267 3.654-.334 5.484l-.07 2.014c-.003.103-.016.21-.026.313h-.4c-.05-.546-.044-1.097-.067-1.647-.047-1.197-.09-2.397-.157-3.594a47.796 47.796 0 0 0-.247-3.003c-.203-1.727-.5-3.431-1.23-5.028-1.2-2.634-3.21-4.357-5.94-5.26-1.21-.4-2.461-.618-3.721-.771-2.03-.243-4.071-.33-6.115-.403l-2.03-.07c-.1-.004-.2-.017-.297-.027v-.4c.57-.05 1.144-.043 1.714-.067 1.377-.056 2.75-.103 4.124-.193a40.741 40.741 0 0 0 3.427-.343c1.62-.244 3.204-.624 4.66-1.417 2.188-1.19 3.665-2.988 4.505-5.321.38-1.057.61-2.15.77-3.26.29-1.991.39-3.998.47-6.009.04-.953.07-1.91.104-2.863.003-.11.016-.22.026-.33h.4c.054.413.034.83.05 1.246.057 1.22.09 2.44.154 3.661.103 1.944.246 3.887.663 5.794.314 1.44.814 2.804 1.644 4.034 1.08 1.6 2.53 2.747 4.304 3.488 1.15.48 2.36.753 3.587.943 1.824.28 3.664.383 5.504.47 1.194.057 2.384.097 3.578.137.103.003.21.017.313.027.01.146.01.28.01.413Z" fill="#FFFEFF"/></svg><svg fill="none" viewBox="0 0 34 34" id="youtube" xmlns="http://www.w3.org/2000/svg"><circle cx="17" cy="17" r="16.25" stroke="#833CFA" stroke-width="1.5"/><path d="M17.25 12.007c-.978 0-1.69-.018-2.4.003-1.256.037-2.513.07-3.764.206-.868.095-1.54.66-1.766 1.497-.154.568-.22 1.151-.261 1.736-.078 1.084-.064 2.17-.04 3.254.02.84.09 1.68.284 2.505.202.86.94 1.467 1.83 1.551 1.041.099 2.083.15 3.127.193 1.723.072 3.446.05 5.168.02a37.389 37.389 0 0 0 3.455-.213c.911-.1 1.594-.644 1.815-1.512.144-.563.211-1.138.251-1.718.078-1.124.047-2.25.034-3.375a10.775 10.775 0 0 0-.259-2.304c-.22-.958-.896-1.543-1.885-1.64-1.006-.097-2.016-.132-3.027-.175-.943-.042-1.886-.005-2.562-.028Zm-2.275 5.64v-2.304c0-.246.004-.248.233-.131.285.145.569.294.854.44 1.22.622 2.44 1.244 3.658 1.868.058.029.143.042.143.125 0 .063-.068.08-.115.103-1.528.783-3.057 1.564-4.583 2.35-.166.085-.194.032-.192-.127.004-.773.002-1.548.002-2.323Z" fill="#833CFA"/></svg><svg fill="none" viewBox="0 0 37 37" id="zoom" xmlns="http://www.w3.org/2000/svg"><path d="m36 36-8.458-8.458m-10.986-16.82V22.39m-5.834-5.833H22.39m9.722 0c0 8.59-6.964 15.555-15.555 15.555C7.964 32.111 1 25.147 1 16.556 1 7.964 7.964 1 16.556 1c8.59 0 15.555 6.964 15.555 15.556Z" stroke="#fff" stroke-width="2" stroke-linecap="round" stroke-linejoin="round"/></svg></svg>