<?xml version="1.0" standalone="no"?>
<!DOCTYPE svg PUBLIC "-//W3C//DTD SVG 20010904//EN"
 "http://www.w3.org/TR/2001/REC-SVG-20010904/DTD/svg10.dtd">
<svg version="1.0" xmlns="http://www.w3.org/2000/svg"
 width="270.000000pt" height="270.000000pt" viewBox="0 0 270.000000 270.000000"
 preserveAspectRatio="xMidYMid meet">
<metadata>
Created by potrace 1.14, written by Peter Selinger 2001-2017
</metadata>
<g transform="translate(0.000000,270.000000) scale(0.100000,-0.100000)"
fill="#000000" stroke="none">
<path d="M1101 2686 c-8 -9 -21 -16 -31 -16 -10 0 -23 -7 -30 -15 -6 -8 -15
-14 -18 -13 -4 1 -86 -38 -182 -87 -96 -49 -224 -113 -285 -144 -60 -30 -113
-59 -116 -64 -3 -5 -8 -7 -10 -5 -3 1 -89 -40 -192 -92 l-187 -95 0 -808 0
-808 43 -19 c23 -11 49 -24 57 -30 8 -5 51 -27 95 -48 44 -21 100 -49 125 -62
25 -13 47 -24 50 -25 3 0 21 -9 40 -20 19 -11 37 -20 40 -20 9 -2 225 -110
230 -115 6 -6 163 -85 170 -85 3 -1 16 -7 30 -15 14 -8 63 -33 110 -56 75 -38
86 -41 94 -26 9 15 13 778 5 786 -9 9 -329 166 -335 165 -4 0 -10 3 -13 8 -3
5 -167 89 -363 187 -197 98 -355 183 -352 188 6 9 240 129 250 127 4 0 10 3
13 8 3 4 185 98 404 207 263 132 397 205 398 215 0 9 1 178 1 376 1 298 -2
365 -14 389 -13 24 -16 26 -27 12z"/>
<path d="M1574 2678 c-3 -10 -8 -18 -12 -18 -8 0 -7 -758 0 -765 4 -5 267
-138 841 -426 l237 -120 -169 -86 c-94 -47 -173 -84 -177 -83 -4 1 -10 -2 -13
-8 -3 -5 -136 -74 -296 -153 -159 -79 -292 -146 -295 -149 -3 -3 -30 -16 -60
-30 -30 -13 -59 -27 -64 -31 -11 -9 -14 -789 -3 -782 4 2 7 -3 7 -11 0 -9 1
-16 3 -16 6 0 183 93 195 102 6 6 12 8 12 4 0 -3 16 3 36 15 43 24 197 103
204 104 3 1 97 48 210 105 113 58 221 111 240 119 19 8 37 17 40 21 3 3 35 20
73 38 l67 33 0 808 0 807 -407 204 c-225 113 -415 211 -425 218 -9 8 -23 14
-31 16 -8 1 -26 10 -40 19 -15 10 -27 15 -27 11 0 -4 -6 -1 -13 5 -8 6 -39 24
-70 39 -53 27 -57 28 -63 10z"/>
</g>
</svg>
