<svg width="134" height="62" viewBox="0 0 134 62" fill="none" xmlns="http://www.w3.org/2000/svg">
<circle cx="76" cy="4" r="4" fill="#9251FF"/>
<circle cx="94" cy="4" r="4" fill="#9251FF"/>
<circle cx="112" cy="4" r="4" fill="#9251FF"/>
<circle cx="130" cy="4" r="4" fill="#9251FF"/>
<circle cx="76" cy="22" r="4" fill="#9251FF"/>
<circle cx="94" cy="22" r="4" fill="#9251FF"/>
<circle cx="112" cy="22" r="4" fill="#9251FF"/>
<circle cx="130" cy="22" r="4" fill="#9251FF"/>
<circle cx="76" cy="40" r="4" fill="#9251FF"/>
<circle cx="94" cy="40" r="4" fill="#9251FF"/>
<circle cx="112" cy="40" r="4" fill="#9251FF"/>
<circle cx="130" cy="40" r="4" fill="#9251FF"/>
<circle cx="76" cy="58" r="4" fill="#9251FF"/>
<circle cx="94" cy="58" r="4" fill="#9251FF"/>
<circle cx="112" cy="58" r="4" fill="#9251FF"/>
<circle cx="130" cy="58" r="4" fill="#9251FF"/>
<circle cx="4" cy="4" r="4" fill="#9251FF"/>
<circle cx="22" cy="4" r="4" fill="#9251FF"/>
<circle cx="40" cy="4" r="4" fill="#9251FF"/>
<circle cx="58" cy="4" r="4" fill="#9251FF"/>
<circle cx="4" cy="22" r="4" fill="#9251FF"/>
<circle cx="22" cy="22" r="4" fill="#9251FF"/>
<circle cx="40" cy="22" r="4" fill="#9251FF"/>
<circle cx="58" cy="22" r="4" fill="#9251FF"/>
<circle cx="4" cy="40" r="4" fill="#9251FF"/>
<circle cx="22" cy="40" r="4" fill="#9251FF"/>
<circle cx="40" cy="40" r="4" fill="#9251FF"/>
<circle cx="58" cy="40" r="4" fill="#9251FF"/>
<circle cx="4" cy="58" r="4" fill="#9251FF"/>
<circle cx="22" cy="58" r="4" fill="#9251FF"/>
<circle cx="40" cy="58" r="4" fill="#9251FF"/>
<circle cx="58" cy="58" r="4" fill="#9251FF"/>
</svg>
