<svg width="61" height="80" viewBox="0 0 61 80" fill="none" xmlns="http://www.w3.org/2000/svg">
<path d="M23.6688 46.7623C23.6688 45.8803 23.6138 45.6601 23.5587 45.4392C23.4486 45.0534 23.229 44.7774 22.8442 44.502L13.0029 36.9493C9.42867 34.2479 7.77949 32.0428 7.77949 29.1758V25.4267C7.77949 20.906 10.9684 17.5986 15.4767 17.433V27.6871C15.4767 28.4593 15.6969 28.9556 16.3013 29.3966L26.0331 36.8389C29.4416 39.4298 31.366 41.5804 31.366 44.3916V48.5816C31.366 53.0471 28.2322 56.3552 23.6688 56.5754V46.7623ZM23.5036 26.2536C23.5036 25.5371 23.0088 25.1513 22.4595 25.1513H16.8512V17.433H23.229C27.8475 17.433 31.366 20.7962 31.366 25.4267V28.2937H23.5036V26.2536ZM15.7514 56.5754C11.1886 56.5754 7.61495 53.1576 7.61495 48.5816V45.6601H15.4767V47.7548C15.4767 48.416 15.9716 48.8571 16.5215 48.8571H22.2392V56.5754H15.7514ZM37.4135 17.7084H45.5505V56.3H37.4135V17.7084ZM46.925 48.5816H61V56.3H46.925V48.5816Z" fill="#858585"/>
<path d="M11.0165 71.1287H44.9854C45.2081 71.1287 45.4094 71.2239 45.5556 71.3787C45.7011 71.5329 45.7922 71.7467 45.7922 71.9822C45.7922 72.2189 45.7011 72.4327 45.5556 72.5869C45.4094 72.7411 45.2081 72.8369 44.9854 72.8369H11.0165C10.7962 72.8369 10.5944 72.7399 10.4488 72.5869C10.3007 72.4321 10.2102 72.217 10.2102 71.9828C10.2102 71.748 10.3007 71.5335 10.4469 71.3787C10.5944 71.2258 10.7962 71.1287 11.0165 71.1287Z" fill="#858585"/>
<path d="M23.0569 6.81912H33.0013C33.2437 6.81912 33.4645 6.92446 33.6246 7.09262C33.7854 7.26459 33.8854 7.49748 33.8854 7.75448C33.8854 8.01149 33.7854 8.24501 33.6265 8.41444C33.4645 8.58514 33.2437 8.69048 33.0013 8.69048H23.0569C22.8126 8.69048 22.5917 8.58514 22.4316 8.41634C22.2721 8.24564 22.1728 8.01085 22.1728 7.75512C22.1728 7.49875 22.2728 7.26333 22.4329 7.09453C22.5917 6.92446 22.8126 6.81912 23.0569 6.81912Z" fill="#858585"/>
<path d="M9.43437 0H45.5663C50.7588 0 55.0001 4.25291 55.0001 9.45958V15.8345H51.6511V9.45958C51.6511 6.10713 48.9096 3.35816 45.5663 3.35816H9.43437C6.09108 3.35816 3.34898 6.10713 3.34898 9.45958V70.5404C3.34898 73.8929 6.09108 76.6418 9.43437 76.6418H45.5663C48.9096 76.6418 51.6511 73.8929 51.6511 70.5404V61.3004H55.0001V70.5404C55.0001 75.7471 50.7588 80 45.5663 80H9.43437C4.24192 80 0 75.7477 0 70.5404V9.45958C0 4.25227 4.24192 0 9.43437 0Z" fill="#858585"/>
</svg>
