<svg width="41" height="42" viewBox="0 0 41 42" fill="none" xmlns="http://www.w3.org/2000/svg">
<g clip-path="url(#clip0_243_11)">
<path d="M24.1069 33.4982C24.1069 28.8016 27.8687 25.0246 32.5464 25.0246C37.2663 25.0246 41 28.8016 41 33.5406C41 38.2371 37.224 41.9859 32.5323 41.9859C27.8546 41.9859 24.1069 38.2088 24.1069 33.4982ZM33.744 31.164C33.744 30.9377 33.7581 30.6972 33.744 30.4709C33.7017 29.7777 33.1945 29.2685 32.5323 29.2685C31.8419 29.2543 31.3065 29.7777 31.2924 30.5133C31.2783 30.9377 31.2643 31.3621 31.2924 31.7865C31.3206 32.1684 31.1656 32.2816 30.8134 32.2533C30.433 32.225 30.0385 32.2391 29.6581 32.2533C28.8409 32.2816 28.3337 32.7767 28.3337 33.5265C28.3337 34.2762 28.8409 34.7713 29.6581 34.7996C30.0807 34.8138 30.5034 34.8138 30.9261 34.7996C31.1938 34.7855 31.3065 34.8845 31.2924 35.1674C31.2783 35.6484 31.2783 36.1152 31.2924 36.5962C31.3206 37.261 31.8278 37.7562 32.49 37.7703C33.1663 37.7986 33.7017 37.3035 33.744 36.6103C33.7722 36.2284 33.7862 35.8323 33.744 35.4503C33.6876 34.9552 33.8285 34.743 34.3639 34.7996C34.7443 34.842 35.1388 34.8279 35.5192 34.7996C36.266 34.743 36.7027 34.2338 36.7027 33.5123C36.6887 32.8191 36.2519 32.3382 35.5192 32.2816C35.2938 32.2674 35.0684 32.2816 34.8289 32.2816C33.744 32.2391 33.744 32.2391 33.744 31.164Z" fill="#833CFA"/>
<path d="M16.9213 19.5076C11.5533 19.5076 7.21374 15.1223 7.21374 9.71843C7.21374 4.37117 11.5955 -0.0141426 16.9354 3.6113e-06C22.3175 0.0141498 26.657 4.38532 26.6429 9.78916C26.6289 15.1506 22.2612 19.5076 16.9213 19.5076ZM16.8931 16.9613C20.824 16.9896 24.0928 13.7642 24.1069 9.84574C24.121 5.79994 20.9509 2.56046 16.9777 2.53217C13.0045 2.51802 9.76391 5.70091 9.73573 9.67599C9.72164 13.7077 12.9058 16.9471 16.8931 16.9613Z" fill="#30415B"/>
<path d="M24.445 25.2934C24.4591 26.2129 23.6137 26.807 22.6838 26.4817C21.3031 26.0007 19.8941 25.647 18.4289 25.5339C13.3567 25.1236 8.98899 26.7221 5.2835 30.2021C4.12817 31.2772 3.19827 32.5362 2.39518 33.8943C1.94432 34.644 1.14123 34.842 0.507207 34.3752C-0.056367 33.965 -0.169082 33.2718 0.22542 32.5787C1.25394 30.7679 2.55016 29.1694 4.11408 27.8114C7.98865 24.4446 12.4832 22.7895 17.6117 22.931C19.6405 22.9876 21.6271 23.3978 23.5433 24.0768C24.1491 24.2749 24.445 24.6992 24.445 25.2934Z" fill="#30415B"/>
<path d="M33.744 31.164C33.744 32.2391 33.744 32.2391 34.8289 32.2391C35.0543 32.2391 35.2938 32.225 35.5192 32.2391C36.2519 32.3099 36.7027 32.7767 36.7027 33.4699C36.7168 34.2055 36.2801 34.7006 35.5192 34.7572C35.1388 34.7855 34.7443 34.7996 34.3639 34.7572C33.8285 34.7006 33.6876 34.9128 33.744 35.4079C33.7862 35.7898 33.7581 36.1859 33.744 36.5679C33.7017 37.261 33.1522 37.7562 32.49 37.7279C31.8278 37.6996 31.3206 37.2186 31.2924 36.5537C31.2783 36.0728 31.2783 35.6059 31.2924 35.125C31.3065 34.842 31.1938 34.7572 30.9261 34.7572C30.5034 34.7713 30.0807 34.7713 29.6581 34.7572C28.8409 34.7289 28.3337 34.2338 28.3337 33.484C28.3337 32.7343 28.8409 32.2391 29.6581 32.2109C30.0385 32.1967 30.433 32.1826 30.8134 32.2109C31.1656 32.2391 31.3206 32.1401 31.2924 31.744C31.2643 31.3196 31.2783 30.8953 31.2924 30.4709C31.3206 29.7494 31.8419 29.226 32.5323 29.226C33.2086 29.2402 33.7158 29.7353 33.744 30.4284C33.744 30.7114 33.744 30.9377 33.744 31.164Z" fill="#FEFEFE"/>
</g>
<defs>
<clipPath id="clip0_243_11">
<rect width="41" height="42" fill="white"/>
</clipPath>
</defs>
</svg>
