<svg width="31" height="38" viewBox="0 0 31 38" xmlns="http://www.w3.org/2000/svg">
<path d="M0 20.2377C0 15.804 0 11.3704 0 6.93671C0 4.30936 1.78467 2.49212 4.35417 2.49212C4.99923 2.49212 5.64429 2.48117 6.28935 2.49212C6.92366 2.50306 7.3107 2.89716 7.29995 3.52116C7.2892 4.11231 6.91291 4.49547 6.28935 4.50642C5.64429 4.51736 4.99923 4.50642 4.35417 4.50642C2.91353 4.51736 1.97819 5.46978 1.97819 6.93671C1.97819 15.7931 1.97819 24.6385 1.97819 33.4948C1.97819 35.0603 2.90278 35.9799 4.46168 35.9799C11.6756 35.9799 18.8896 35.9799 26.1035 35.9799C26.8776 35.9799 27.0603 35.7719 27.0818 34.9837C27.1679 32.0498 27.2539 29.105 27.3399 26.1711C27.3506 25.8974 27.3721 25.6237 27.4151 25.35C27.4904 24.8246 27.9204 24.4743 28.4257 24.4962C28.974 24.518 29.3718 24.9012 29.3718 25.4595C29.3826 27.014 29.2966 28.5795 29.2321 30.134C29.189 31.2506 29.1675 32.3782 29.1245 33.4948C29.103 34.2173 29.0815 34.9399 29.0385 35.6624C28.9633 36.9213 27.7914 37.9832 26.4905 37.9942C23.491 38.0051 20.5022 37.9942 17.5027 37.9942C13.084 37.9942 8.66533 37.9942 4.23591 37.9942C2.07495 37.9942 0.397788 36.5491 0.0322531 34.3925C0 34.1079 0 33.8013 0 33.4948C0 29.0831 0 24.6604 0 20.2377Z" fill="white"/>
<path d="M30.9737 15.6726C30.9737 16.1872 30.9845 16.7126 30.9737 17.2272C30.963 17.7198 30.7157 18.0701 30.3072 18.2015C29.9094 18.3328 29.5223 18.2343 29.2428 17.8402C29.0278 17.5227 28.9525 17.6541 28.8235 17.884C26.3293 22.1206 23.835 26.3572 21.3408 30.5828C21.2548 30.7252 21.1795 30.8675 21.0828 30.9988C20.7387 31.4477 20.2227 31.5243 19.7711 31.174C19.6636 31.0974 19.5669 30.9879 19.4809 30.8894C16.7501 28.1088 14.0301 25.3391 11.2993 22.5585C10.923 22.1753 10.9338 22.1753 10.6758 22.668C9.91245 24.1458 9.14913 25.6237 8.3858 27.0907C7.98802 27.857 7.21394 28.0102 6.71939 27.4191C6.41837 27.0578 6.42912 26.6637 6.63339 26.2696C6.97742 25.5909 7.32145 24.9122 7.67624 24.2334C8.3428 22.9526 9.00936 21.6718 9.67593 20.3909C10.1597 19.4495 10.8585 19.329 11.6004 20.0844C14.3311 22.8541 17.0511 25.6347 19.7819 28.4153C20.1689 28.8094 20.1689 28.8094 20.4592 28.3277C22.7277 24.4852 24.9961 20.6427 27.2754 16.8002C27.4474 16.5046 27.5441 16.3295 27.1033 16.2091C26.7486 16.1105 26.5228 15.7931 26.512 15.4099C26.5013 15.0377 26.6411 14.6983 26.9851 14.5122C27.8667 14.0415 28.7375 13.5598 29.6406 13.1329C30.2964 12.8154 30.9522 13.2752 30.9952 14.0306C31.006 14.3042 30.9952 14.5779 30.9952 14.8516C30.9845 15.1253 30.9845 15.399 30.9737 15.6726Z" fill="white"/>
<path d="M14.5676 0.0289766C15.417 0.0289766 16.2556 0.0180293 17.1049 0.0289766C18.5455 0.0508712 19.5561 0.74055 20.1259 2.07612C20.2657 2.39359 20.427 2.49212 20.7495 2.49212C22.0826 2.48117 23.405 2.48117 24.7381 2.48117C27.2539 2.48117 29.06 4.30936 29.0708 6.87103C29.0708 7.57166 29.0708 8.26133 29.0708 8.96196C29.06 9.67353 28.6945 10.0786 28.0709 10.0786C27.4689 10.0786 27.1033 9.66259 27.0926 8.97291C27.0818 8.29418 27.0926 7.6045 27.0926 6.92577C27.0711 5.45883 26.1573 4.50642 24.7166 4.50642C23.3512 4.49547 21.9751 4.50642 20.6097 4.49547C20.3194 4.49547 20.1582 4.58305 20.0077 4.84578C19.3626 6.00619 18.395 6.64114 17.0511 6.63019C15.3632 6.61924 13.6646 6.63019 11.9766 6.63019C10.3102 6.61924 8.8696 5.31651 8.72984 3.70726C8.56857 1.92286 9.69743 0.357395 11.3961 0.0727657C12.2347 -0.0695489 13.084 0.0399239 13.9333 0.0289766C14.1376 0.0289766 14.3526 0.0289766 14.5676 0.0289766ZM14.5676 2.05422C13.7076 2.05422 12.8475 2.03233 11.9874 2.05422C11.2348 2.07612 10.6758 2.65632 10.6865 3.346C10.6973 4.03568 11.2348 4.60494 11.9659 4.61589C13.6753 4.63778 15.374 4.63778 17.0834 4.61589C17.6639 4.60494 18.1155 4.25463 18.2875 3.74011C18.567 2.88622 17.9757 2.07612 17.0189 2.04328C16.2126 2.03233 15.3955 2.05422 14.5676 2.05422Z" fill="white"/>
<path d="M5.49378 29.521C6.05283 29.521 6.47212 29.9041 6.47212 30.4296C6.47212 30.9332 5.99907 31.4039 5.51528 31.4039C5.03148 31.4039 4.55844 30.9222 4.55844 30.4296C4.54769 29.9151 4.95622 29.5319 5.49378 29.521Z" fill="white"/>
</svg>
