<svg width="38" height="40" viewBox="0 0 38 40" fill="none" xmlns="http://www.w3.org/2000/svg">
<g clip-path="url(#clip0_243_23)">
<path d="M18.9894 29.838C14.1101 29.838 9.22012 29.838 4.34074 29.838C1.7532 29.838 0 28.0809 0 25.4771C0 17.9301 0 10.3726 0 2.82558C0 1.89412 0.306281 1.58716 1.22513 1.58716C6.68538 1.58716 12.1562 1.58716 17.6165 1.59774C17.9861 1.59774 18.1023 1.50248 18.06 1.1426C18.0389 1.005 18.06 0.846223 18.0917 0.708621C18.2079 0.242889 18.6409 -0.0429009 19.1056 -0.00056167C19.602 0.0523624 19.94 0.433416 19.9611 0.973241C19.9822 1.58716 19.9822 1.58716 20.5842 1.58716C25.9811 1.58716 31.378 1.58716 36.7749 1.58716C37.7043 1.58716 38.0106 1.89412 38.0106 2.815C38.0106 10.3831 38.0106 17.9407 38.0106 25.5088C38.0106 28.0809 36.2574 29.8274 33.6804 29.838C28.7799 29.838 23.8794 29.838 18.9894 29.838ZM19 3.49243C13.4447 3.49243 7.88938 3.49243 2.34464 3.48184C1.98555 3.48184 1.89049 3.56652 1.89049 3.9264C1.90106 11.1029 1.90106 18.29 1.90106 25.4665C1.90106 27.0436 2.77765 27.9328 4.34074 27.9328C14.0995 27.9328 23.8688 27.9328 33.6276 27.9328C35.2223 27.9328 36.1095 27.0542 36.1095 25.4665C36.1095 18.29 36.1095 11.1135 36.1201 3.9264C36.1201 3.56652 36.025 3.48184 35.6659 3.48184C30.1106 3.49243 24.5553 3.49243 19 3.49243Z" fill="#30415B"/>
<path d="M19.9505 34.9511C19.9505 36.38 19.9611 37.6819 19.9505 38.9945C19.94 39.7566 19.2324 40.2223 18.5881 39.8942C18.2079 39.7036 18.0495 39.3755 18.06 38.9521C18.06 37.7878 18.06 36.6235 18.06 35.4591C18.06 35.3321 18.06 35.1945 18.06 35.0569C17.9016 35.0569 17.8488 35.1839 17.7749 35.258C16.328 36.687 14.881 38.1159 13.4341 39.5449C12.9483 40.0212 12.4625 40.0741 12.04 39.7036C11.6598 39.3755 11.5964 38.8569 11.8922 38.4546C11.9661 38.3594 12.0506 38.2747 12.1351 38.19C14.1629 36.1577 16.1801 34.136 18.2079 32.1037C18.736 31.5745 19.2429 31.5745 19.7815 32.1143C21.841 34.1678 23.8899 36.2212 25.9389 38.2853C26.4352 38.7828 26.4247 39.3755 25.9389 39.7672C25.527 40.0953 25.0623 40.0529 24.6292 39.6295C23.6259 38.6346 22.6331 37.629 21.6298 36.6235C21.0806 36.1048 20.5631 35.565 19.9505 34.9511Z" fill="#30415B"/>
<path d="M12.6526 15.1574C12.2513 15.9301 11.8922 16.5864 11.5436 17.2532C11.0895 18.1318 10.6354 19.0103 10.1707 19.8889C10.065 20.1006 9.95943 20.3122 9.7482 20.4499C9.37855 20.7039 8.86104 20.6827 8.53364 20.3969C8.21679 20.1217 8.12174 19.6348 8.34353 19.2008C9.11451 17.6978 9.90662 16.2053 10.6882 14.7023C10.9416 14.226 11.1846 13.7391 11.4592 13.2734C11.8499 12.5748 12.547 12.4795 13.1279 13.0511C14.6276 14.5435 16.1167 16.0466 17.6059 17.539C18.8944 18.8304 20.1829 20.1217 21.4714 21.4131C21.5242 21.466 21.5876 21.5189 21.672 21.5824C24.0801 17.5708 26.4775 13.5803 28.8855 9.55808C28.4947 9.49457 28.1673 9.38873 27.9772 9.03943C27.7237 8.56311 27.8822 7.99153 28.3997 7.71633C29.2446 7.26118 30.1106 6.8272 30.9767 6.41439C31.6103 6.11802 32.2863 6.58375 32.2968 7.29293C32.3074 8.31966 32.2968 9.35697 32.2968 10.3837C32.2968 10.8918 32.0434 11.2517 31.6103 11.3787C31.1879 11.5057 30.776 11.3257 30.5014 10.9024C30.4697 10.86 30.4486 10.8283 30.3747 10.7436C29.8783 11.5692 29.403 12.3525 28.9277 13.1463C26.8577 16.6076 24.7771 20.0794 22.7071 23.5406C22.2952 24.2286 21.672 24.3027 21.1123 23.7417C18.3769 21.0003 15.6415 18.2588 12.9166 15.5173C12.8321 15.4432 12.7688 15.3268 12.6526 15.1574Z" fill="#833CFA"/>
<path d="M6.32629 23.1384C6.32629 22.6092 6.76987 22.1434 7.28738 22.1434C7.82602 22.1434 8.31184 22.6092 8.31184 23.1384C8.31184 23.6147 7.80489 24.1122 7.30851 24.1228C6.791 24.1334 6.32629 23.6676 6.32629 23.1384Z" fill="#833CFA"/>
</g>
<defs>
<clipPath id="clip0_243_23">
<rect width="38" height="40" fill="white"/>
</clipPath>
</defs>
</svg>
