<svg width="34" height="34" viewBox="0 0 34 34" fill="none" xmlns="http://www.w3.org/2000/svg">
<path d="M33.25 17C33.25 25.9746 25.9746 33.25 17 33.25C8.02537 33.25 0.75 25.9746 0.75 17C0.75 8.02537 8.02537 0.75 17 0.75C25.9746 0.75 33.25 8.02537 33.25 17Z" stroke="#833CFA" stroke-width="1.5"/>
<path d="M16.9903 24.9938C15.9298 24.9938 14.8692 24.9938 13.8136 24.9938C11.5521 24.9889 9.49879 23.2707 9.08717 21.0443C9.02906 20.7345 9 20.4296 9 20.115C9.00484 18.0192 9 15.9186 9.00484 13.8229C9.00968 11.427 10.8789 9.33128 13.2615 9.03603C13.46 9.01183 13.6538 9.00215 13.8475 9.00215C15.954 9.00215 18.0605 8.99731 20.1622 9.00215C22.5738 9.00699 24.6659 10.8607 24.9661 13.2614C24.9903 13.4647 25 13.668 25 13.8713C25 15.9573 25 18.0386 25 20.1246C24.9952 22.5737 23.1598 24.6501 20.7337 24.9647C20.3123 25.018 19.891 24.9938 19.4746 24.9986C18.6465 24.9986 17.8184 24.9938 16.9903 24.9938ZM17.2082 23.6627C18.1283 23.6337 19.2712 23.716 20.4092 23.6289C21.4261 23.5514 22.2446 23.0868 22.8838 22.3027C23.4358 21.6251 23.6634 20.8361 23.6683 19.9746C23.6731 18.1741 23.6683 16.3784 23.6683 14.5779C23.6683 14.244 23.6683 13.9148 23.6392 13.5809C23.5424 12.5644 23.0872 11.7465 22.3027 11.1076C21.6247 10.5607 20.8353 10.3283 19.9734 10.3283C18.138 10.3235 16.3075 10.3283 14.4722 10.3283C14.1816 10.3283 13.891 10.3283 13.5956 10.3574C12.5642 10.4493 11.7361 10.914 11.092 11.7126C10.5496 12.3854 10.3269 13.1743 10.3269 14.0261C10.322 15.8509 10.3269 17.6804 10.3269 19.5051C10.3269 19.8052 10.3269 20.1004 10.3559 20.4005C10.4528 21.4218 10.908 22.2494 11.7022 22.8883C12.3753 23.4304 13.1598 23.6579 14.0121 23.6627C15.0048 23.6676 15.9976 23.6627 17.2082 23.6627Z" fill="#833CFA"/>
<path d="M17.02 12.7647C19.4212 12.7794 21.4084 14.8055 21.2233 17.3333C21.0675 19.4763 19.2654 21.2783 16.9323 21.2345C14.5506 21.1907 12.6754 19.2084 12.768 16.8657C12.8557 14.5132 14.7795 12.755 17.02 12.7647ZM19.8547 16.9923C19.8547 15.4094 18.5786 14.109 17.0005 14.1187C15.252 14.1334 14.1123 15.5507 14.1269 16.9972C14.1415 18.5898 15.4127 19.8708 17.0103 19.8659C18.5835 19.8708 19.8596 18.585 19.8547 16.9923Z" fill="#833CFA"/>
</svg>
