<svg width="170" height="46" viewBox="0 0 170 46" fill="none" xmlns="http://www.w3.org/2000/svg">
<path d="M-6.10352e-05 22.7332L18.1099 14.0559V0L-6.10352e-05 8.83611V22.7332Z" fill="#833CFA"/>
<path d="M-0.000244141 23.2666L18.1098 31.9443V45.9998L-0.000244141 37.1637V23.2666Z" fill="#833CFA"/>
<path d="M46.951 22.7332L28.841 14.0559V0L46.951 8.83611V22.7332Z" fill="#833CFA"/>
<path d="M46.951 23.2666L28.841 31.9443V45.9998L46.951 37.1637V23.2666Z" fill="#833CFA"/>
<path d="M79.2344 21.0873H76.7328L68.8078 8.55158V21.0873H66.331V4.1402H68.8078L76.7328 16.6759V4.1402H79.2344V21.0873ZM92.038 19.0934C93.8208 19.0934 95.3401 18.4618 96.5945 17.1994C97.8494 15.9366 98.4766 14.4081 98.4766 12.614C98.4766 10.8194 97.849 9.29095 96.5945 8.02812C95.3397 6.76529 93.8208 6.13411 92.038 6.13411C90.2547 6.13411 88.7359 6.76575 87.481 8.02812C86.2261 9.29095 85.5989 10.8194 85.5989 12.614C85.5989 14.4081 86.2266 15.937 87.481 17.1994C88.7359 18.4622 90.2547 19.0934 92.038 19.0934ZM92.038 21.5855C90.4034 21.5855 88.9093 21.1826 87.5556 20.377C86.2014 19.5713 85.1245 18.4871 84.3234 17.1244C83.5228 15.7621 83.1225 14.2585 83.1225 12.6135C83.1225 10.9686 83.5228 9.46497 84.3234 8.1027C85.124 6.73997 86.2014 5.65623 87.5556 4.8501C88.9093 4.04444 90.4034 3.6416 92.038 3.6416C93.6726 3.6416 95.1667 4.04444 96.5204 4.8501C97.8746 5.65577 98.9515 6.73997 99.7526 8.1027C100.553 9.46497 100.954 10.9686 100.954 12.6135C100.954 14.2585 100.554 15.7621 99.7526 17.1244C98.952 18.4871 97.8746 19.5708 96.5204 20.377C95.1667 21.1826 93.6726 21.5855 92.038 21.5855ZM112.37 21.0873H109.894L102.712 4.1402H105.188L111.132 18.1713L117.1 4.1402H119.577L112.37 21.0873ZM129.038 14.6074L126.437 7.52953L123.862 14.6074H129.038ZM133.891 21.0873H131.39L129.953 17.1H122.945L121.484 21.0873H119.007L125.198 4.1402H127.675L133.891 21.0873H133.891Z" fill="white"/>
<path d="M74.504 43.0727H72.0271V28.6181H66.331V26.1255H80.1997V28.6181H74.5035V43.0727H74.504ZM95.8022 43.0727H83.4194V26.1255H95.8022V28.6181H85.8958V33.3531H94.3158V35.8456H85.8958V40.5811H95.8022V43.0731V43.0727ZM107.219 43.5708C105.568 43.5708 104.07 43.168 102.724 42.3623C101.378 41.5566 100.305 40.4724 99.5046 39.1097C98.704 37.7474 98.3037 36.2438 98.3037 34.5989C98.3037 32.9705 98.704 31.4752 99.5046 30.1129C100.305 28.7506 101.378 27.6664 102.724 26.8603C104.069 26.0546 105.568 25.6518 107.219 25.6518C108.689 25.6518 110.046 25.9801 111.293 26.6361C112.54 27.2926 113.576 28.177 114.401 29.2902L112.246 30.5613C110.926 28.9495 109.25 28.1439 107.219 28.1439C105.436 28.1439 103.917 28.7755 102.662 30.0379C101.407 31.3007 100.78 32.8209 100.78 34.5989C100.78 36.3598 101.408 37.88 102.662 39.1594C103.917 40.4388 105.436 41.0783 107.219 41.0783C109.25 41.0783 110.926 40.2726 112.246 38.6608L114.401 39.9071C113.576 41.0369 112.54 41.93 111.293 42.586C110.047 43.2426 108.689 43.5703 107.219 43.5703V43.5708ZM130.424 43.0727H127.948V35.8451H120.023V43.0727H117.546V26.1255H120.023V33.3531H127.948V26.1255H130.424V43.0727ZM148.255 43.0727H145.779L137.854 30.5369V43.0727H135.377V26.1255H137.854L145.779 38.6613V26.1255H148.255V43.0727ZM161.084 41.0788C162.867 41.0788 164.386 40.4471 165.64 39.1847C166.895 37.9219 167.523 36.3934 167.523 34.5993C167.523 32.8048 166.895 31.2763 165.64 30.0135C164.386 28.7506 162.867 28.1195 161.084 28.1195C159.301 28.1195 157.782 28.7511 156.527 30.0135C155.272 31.2763 154.645 32.8048 154.645 34.5993C154.645 36.3934 155.272 37.9224 156.527 39.1847C157.782 40.4476 159.301 41.0788 161.084 41.0788ZM161.084 43.5708C159.449 43.5708 157.955 43.168 156.602 42.3623C155.247 41.5566 154.17 40.4724 153.369 39.1097C152.569 37.7474 152.168 36.2438 152.168 34.5989C152.168 32.9539 152.569 31.4503 153.369 30.0881C154.17 28.7253 155.247 27.6416 156.602 26.8355C157.955 26.0298 159.449 25.627 161.084 25.627C162.719 25.627 164.213 26.0298 165.566 26.8355C166.921 27.6411 167.997 28.7253 168.798 30.0881C169.599 31.4503 170 32.9539 170 34.5989C170 36.2438 169.6 37.7474 168.798 39.1097C167.998 40.4724 166.921 41.5562 165.566 42.3623C164.213 43.168 162.719 43.5708 161.084 43.5708Z" fill="white"/>
</svg>
