<svg width="170" height="46" viewBox="0 0 170 46" fill="none" xmlns="http://www.w3.org/2000/svg">
<path d="M0.000427246 22.7332L18.1104 14.0559V0L0.000427246 8.83611V22.7332Z" fill="#833CFA"/>
<path d="M0.000244141 23.2668L18.1102 31.9445V46L0.000244141 37.1639V23.2668Z" fill="#833CFA"/>
<path d="M46.9515 22.7332L28.8415 14.0559V0L46.9515 8.83611V22.7332Z" fill="#833CFA"/>
<path d="M46.9515 23.2668L28.8415 31.9445V46L46.9515 37.1639V23.2668Z" fill="#833CFA"/>
<path d="M79.2348 21.0874H76.7333L68.8083 8.55161V21.0874H66.3315V4.14023H68.8083L76.7333 16.676V4.14023H79.2348V21.0874ZM92.0385 19.0934C93.8213 19.0934 95.3406 18.4618 96.595 17.1994C97.8499 15.9366 98.4771 14.4081 98.4771 12.614C98.4771 10.8194 97.8495 9.29098 96.595 8.02815C95.3401 6.76532 93.8213 6.13414 92.0385 6.13414C90.2552 6.13414 88.7364 6.76579 87.4815 8.02815C86.2266 9.29098 85.5994 10.8194 85.5994 12.614C85.5994 14.4081 86.227 15.9371 87.4815 17.1994C88.7364 18.4623 90.2552 19.0934 92.0385 19.0934ZM92.0385 21.5855C90.4039 21.5855 88.9097 21.1826 87.556 20.377C86.2019 19.5713 85.125 18.4871 84.3239 17.1244C83.5233 15.7621 83.123 14.2585 83.123 12.6136C83.123 10.9686 83.5233 9.46501 84.3239 8.10273C85.1245 6.74 86.2019 5.65626 87.556 4.85014C88.9097 4.04447 90.4039 3.64163 92.0385 3.64163C93.6731 3.64163 95.1672 4.04447 96.5209 4.85014C97.8751 5.6558 98.952 6.74 99.7531 8.10273C100.554 9.46501 100.954 10.9686 100.954 12.6136C100.954 14.2585 100.554 15.7621 99.7531 17.1244C98.9525 18.4871 97.8751 19.5709 96.5209 20.377C95.1672 21.1826 93.6731 21.5855 92.0385 21.5855ZM112.371 21.0874H109.895L102.713 4.14023H105.189L111.133 18.1713L117.101 4.14023H119.578L112.371 21.0874ZM129.038 14.6075L126.438 7.52956L123.862 14.6075H129.038ZM133.892 21.0874H131.39L129.954 17.1H122.945L121.484 21.0874H119.008L125.199 4.14023H127.675L133.892 21.0874H133.892Z" fill="black"/>
<path d="M74.5045 43.0724H72.0276V28.6178H66.3315V26.1253H80.2001V28.6178H74.504V43.0724H74.5045ZM95.8027 43.0724H83.4199V26.1253H95.8027V28.6178H85.8963V33.3528H94.3163V35.8453H85.8963V40.5808H95.8027V43.0729V43.0724ZM107.22 43.5706C105.569 43.5706 104.07 43.1677 102.724 42.3621C101.379 41.5564 100.306 40.4722 99.5051 39.1095C98.7045 37.7472 98.3042 36.2436 98.3042 34.5986C98.3042 32.9703 98.7045 31.4749 99.5051 30.1127C100.306 28.7504 101.379 27.6662 102.724 26.8601C104.07 26.0544 105.568 25.6516 107.22 25.6516C108.689 25.6516 110.047 25.9798 111.294 26.6359C112.54 27.2924 113.576 28.1768 114.402 29.29L112.247 30.5611C110.926 28.9493 109.25 28.1436 107.22 28.1436C105.436 28.1436 103.918 28.7753 102.663 30.0376C101.408 31.3005 100.781 32.8206 100.781 34.5986C100.781 36.3596 101.408 37.8798 102.663 39.1592C103.918 40.4386 105.436 41.0781 107.22 41.0781C109.25 41.0781 110.926 40.2724 112.247 38.6606L114.402 39.9068C113.576 41.0366 112.54 41.9298 111.294 42.5858C110.047 43.2423 108.689 43.5701 107.22 43.5701V43.5706ZM130.425 43.0724H127.948V35.8449H120.023V43.0724H117.546V26.1253H120.023V33.3528H127.948V26.1253H130.425V43.0724ZM148.256 43.0724H145.779L137.854 30.5367V43.0724H135.377V26.1253H137.854L145.779 38.661V26.1253H148.256V43.0724ZM161.084 41.0785C162.867 41.0785 164.387 40.4469 165.641 39.1845C166.896 37.9217 167.523 36.3932 167.523 34.5991C167.523 32.8045 166.895 31.2761 165.641 30.0132C164.386 28.7504 162.867 28.1192 161.084 28.1192C159.301 28.1192 157.782 28.7509 156.527 30.0132C155.273 31.2761 154.645 32.8045 154.645 34.5991C154.645 36.3932 155.273 37.9221 156.527 39.1845C157.782 40.4473 159.301 41.0785 161.084 41.0785ZM161.084 43.5706C159.45 43.5706 157.956 43.1677 156.602 42.3621C155.248 41.5564 154.171 40.4722 153.37 39.1095C152.569 37.7472 152.169 36.2436 152.169 34.5986C152.169 32.9537 152.569 31.4501 153.37 30.0878C154.17 28.7251 155.248 27.6413 156.602 26.8352C157.956 26.0295 159.45 25.6267 161.084 25.6267C162.719 25.6267 164.213 26.0295 165.567 26.8352C166.921 27.6409 167.998 28.7251 168.799 30.0878C169.6 31.4501 170 32.9537 170 34.5986C170 36.2436 169.6 37.7472 168.799 39.1095C167.998 40.4722 166.921 41.5559 165.567 42.3621C164.213 43.1677 162.719 43.5706 161.084 43.5706Z" fill="black"/>
</svg>
