<svg width="42" height="42" viewBox="0 0 42 42" xmlns="http://www.w3.org/2000/svg">
<path d="M20.5433 0.000598898C31.7025 -0.0427186 40.8702 9.11893 41 20.2515C41.1299 31.709 31.7133 41.1414 20.2511 41.0006C9.14603 40.8706 0.0216852 31.7307 3.78564e-05 20.5331C-0.0216095 9.23805 9.24344 -0.0860361 20.5433 0.000598898ZM30.2089 20.4898C30.1223 15.0751 25.901 10.7867 20.4784 10.7975C15.0666 10.8083 10.802 15.0859 10.802 20.4789C10.7912 25.9045 15.0882 30.1929 20.4892 30.1929C25.9227 30.1929 30.1331 25.8936 30.2089 20.4898ZM2.02406 20.8038C2.05653 21.2153 2.089 21.9084 2.16477 22.5907C2.59771 26.4243 4.12385 29.7814 6.63494 32.7053C6.86223 32.976 7.01377 32.9977 7.27353 32.7378C8.64814 31.3408 10.0336 29.9546 11.4298 28.5793C11.6463 28.3627 11.6679 28.2436 11.4623 27.9837C9.90368 26.0994 8.9945 23.9335 8.81049 21.5077C8.56155 18.3347 9.43826 15.4866 11.4623 13.0175C11.6463 12.7901 11.6679 12.6818 11.4515 12.4652C10.0336 11.0682 8.62649 9.6604 7.23024 8.25258C6.99212 8.01433 6.86224 8.03599 6.65659 8.27424C3.60431 11.7938 2.089 15.8765 2.02406 20.8038ZM20.5109 1.9932C20.1429 2.01486 19.7857 2.04735 19.4177 2.06901C19.0497 2.1015 18.6925 2.11233 18.3245 2.15564C14.7202 2.57799 11.5381 3.96415 8.7239 6.24915C8.47496 6.4549 8.42084 6.58486 8.68061 6.84476C10.0877 8.23092 11.4839 9.62791 12.8694 11.0357C13.1075 11.2848 13.259 11.2523 13.508 11.0574C15.283 9.72537 17.2854 8.95649 19.4934 8.78322C22.6648 8.54497 25.5114 9.41132 27.9792 11.4472C28.2065 11.6313 28.3364 11.6422 28.542 11.4256C29.9274 10.0178 31.3237 8.62078 32.7308 7.23462C32.9689 6.99637 32.9797 6.85559 32.7199 6.62817C29.2131 3.60678 25.1434 2.09067 20.5109 1.9932ZM20.6407 38.9755C21.0196 38.9538 21.5608 38.9322 22.1019 38.8997C22.3834 38.878 22.6648 38.8456 22.9462 38.8131C26.6371 38.2933 29.8841 36.8096 32.6983 34.373C32.9472 34.1564 32.9905 34.0265 32.7308 33.7666C31.3237 32.3804 29.9274 30.9834 28.542 29.5756C28.3147 29.3482 28.1957 29.359 27.9575 29.554C26.0634 31.1134 23.8878 32.0122 21.4525 32.1963C18.5301 32.4129 15.8567 31.6549 13.4863 29.9005C13.2374 29.7164 13.1183 29.7597 12.9127 29.9546C11.5381 31.3516 10.1418 32.7378 8.75637 34.1239C8.41002 34.4705 8.41002 34.4705 8.79967 34.7845C12.2091 37.5352 16.1056 38.9105 20.6407 38.9755ZM38.976 20.3165C38.9219 19.5693 38.8894 18.6163 38.7379 17.6633C38.2075 14.3279 36.8654 11.3606 34.7331 8.7399C34.5275 8.48 34.3976 8.44751 34.1378 8.70741C32.7632 10.1044 31.3778 11.4906 29.9816 12.8659C29.7326 13.1041 29.7218 13.2557 29.9274 13.5265C33.0122 17.7391 33.0014 23.2837 29.9058 27.4964C29.711 27.7671 29.7326 27.9079 29.9599 28.1353C31.3453 29.4998 32.7199 30.886 34.0945 32.2613C34.4409 32.6078 34.4409 32.6078 34.7656 32.218C37.5256 28.8067 38.9002 24.8973 38.976 20.3165Z" fill="#833CFA"/>
<defs>
<linearGradient id="paint0_linear_62_440" x1="8.79608" y1="34.7793" x2="43.5085" y2="8.44061" gradientUnits="userSpaceOnUse">
<stop stop-color="#833CFA"/>
<stop offset="1" stop-color="#BD3CFA"/>
</linearGradient>
</defs>
</svg>
