<svg width="37" height="42" viewBox="0 0 37 42" xmlns="http://www.w3.org/2000/svg">
<path d="M30.5299 8.49728C30.5742 8.52016 30.6266 8.51138 30.6605 8.47479C30.8926 8.22401 31.1255 7.97401 31.3686 7.73406C32.3871 6.788 33.5613 6.48053 34.8793 6.97721C36.2213 7.48572 36.9042 8.51457 36.9761 9.91001C37.0121 10.7142 36.7365 11.4474 36.1853 12.0741C35.6701 12.6536 35.095 13.1739 34.5438 13.7179C33.2617 14.9833 31.9917 16.2605 30.7096 17.514C30.5179 17.7032 30.458 17.8924 30.47 18.1526C30.47 22.5518 30.482 26.9628 30.47 31.362C30.47 31.7522 30.6257 31.835 30.9732 31.8232C32.2553 31.8114 33.5493 31.8114 34.8314 31.8232C35.6102 31.8232 35.9697 32.107 35.9816 32.8639C36.0296 34.5313 36.1015 36.2106 35.9337 37.8662C35.754 39.64 34.0765 40.9882 32.0995 41C28.1335 41.0118 24.1675 41 20.2015 41C14.7977 41 9.39387 41 3.99005 41C2.03701 41 0.551257 39.9002 0.119909 38.1263C0.0240545 37.7361 9.08119e-05 37.334 9.08119e-05 36.9438C9.08119e-05 25.6856 9.08119e-05 14.4156 9.08119e-05 3.15748C-0.0118911 1.13528 1.16233 0 3.21123 0C11.2511 0 19.2909 0 27.3307 0C29.3197 0 30.47 1.1471 30.47 3.12201C30.47 4.74214 30.47 6.3741 30.47 7.99423C30.47 8.12704 30.47 8.26868 30.47 8.4039C30.47 8.4427 30.4954 8.47947 30.5299 8.49728ZM28.5289 20.3049C28.5289 20.056 28.2823 19.9062 28.1105 20.0862C28.0774 20.1209 28.0459 20.1548 28.0137 20.1866C23.3887 24.7395 18.7637 29.2925 14.1507 33.8454C13.935 34.0583 13.7193 34.2475 13.4198 34.3539C11.7783 34.957 10.1367 35.572 8.50722 36.1869C8.07587 36.3525 7.68047 36.3406 7.34497 36.0213C6.98552 35.6784 6.9975 35.2645 7.16525 34.8269C7.75236 33.3251 8.33947 31.8232 8.90262 30.3095C9.08235 29.8246 9.35793 29.4344 9.72937 29.0678C15.888 23.0012 22.0347 16.9227 28.1934 10.8561C28.4331 10.6196 28.5289 10.3712 28.5289 10.0401C28.5169 7.76954 28.5289 5.48716 28.5289 3.21661C28.5289 2.18777 28.2533 1.91578 27.1869 1.91578C19.207 1.91578 11.2271 1.91578 3.24718 1.91578C3.01952 1.91578 2.80385 1.91578 2.57619 1.98673C2.21674 2.10499 1.98908 2.34151 1.9771 2.71993C1.96512 2.92097 1.96512 3.13383 1.96512 3.33487C1.96512 11.3291 1.96512 19.3233 1.96512 27.3176C1.96512 30.5933 1.96512 33.8809 1.96512 37.1566C1.96512 38.0909 2.45637 38.7886 3.23519 38.9778C3.55871 39.0606 3.88222 39.0724 4.21771 39.0724C8.5192 39.0724 12.8087 39.0724 17.1102 39.0724C20.8965 39.0724 24.6827 39.0724 28.481 39.0842C28.8764 39.0842 28.9962 39.0251 28.8045 38.623C28.5768 38.15 28.5289 37.6296 28.5289 37.1093C28.5289 31.5039 28.5289 25.9103 28.5289 20.3049ZM14.3294 30.5689C14.4209 30.6906 14.6122 30.6593 14.7256 30.5575C14.7935 30.4965 14.8615 30.4357 14.9295 30.3686C19.4826 25.8748 24.0357 21.381 28.5888 16.8872C29.5354 15.953 30.47 15.0187 31.4165 14.0963C31.6322 13.8835 31.6562 13.7416 31.4165 13.5287C31.0092 13.1621 30.6257 12.76 30.2423 12.3698C29.823 11.9559 29.823 11.9559 29.4156 12.3579C24.5509 17.1592 19.6743 21.9723 14.8097 26.7736C14.1746 27.4003 13.5396 28.0271 12.9046 28.6539C12.7129 28.8431 12.7009 28.9732 12.9046 29.1624C13.3726 29.6013 13.8178 30.0627 14.2737 30.5026C14.2954 30.5236 14.3112 30.5447 14.3294 30.5689ZM34.0286 35.8085C34.0286 35.2527 34.0286 34.685 34.0286 34.1292C34.0286 33.8454 33.9207 33.7271 33.6332 33.739C32.7106 33.7508 31.776 33.7508 30.8534 33.739C30.5898 33.739 30.47 33.8217 30.47 34.0937C30.482 35.2054 30.446 36.3052 30.482 37.4168C30.5179 38.3628 31.3447 39.096 32.3032 39.0606C33.2618 39.0369 33.9926 38.3155 34.0166 37.3577C34.0406 36.8373 34.0286 36.317 34.0286 35.8085ZM33.6931 8.7156C33.3816 8.70378 33.082 8.77473 32.8424 9.01125C32.3511 9.48428 31.8719 9.96914 31.3806 10.4422C31.2368 10.5723 31.2488 10.6787 31.3806 10.8088C31.8719 11.2818 32.3511 11.7667 32.8424 12.2515C32.9742 12.3816 33.106 12.4407 33.2618 12.287C33.765 11.7785 34.2922 11.2936 34.7595 10.7615C35.1189 10.3594 35.1189 9.8627 34.8793 9.38967C34.6516 8.90482 34.2443 8.69195 33.6931 8.7156ZM10.8557 30.747C10.3697 31.8615 11.5166 32.9995 12.6477 32.5537C12.6655 32.5467 12.6832 32.5397 12.7009 32.5327C12.7488 32.5091 12.7967 32.4618 12.8447 32.4263C13.0843 32.2489 13.1083 32.0715 12.8686 31.8468C12.4492 31.4566 12.0419 31.0309 11.6345 30.6288C11.263 30.2622 11.0594 30.2622 10.8557 30.747Z" fill="#833CFA"/>
<path d="M15.6724 9.11768C18.7277 9.11768 21.7831 9.11768 24.8385 9.11768C25.3178 9.11768 25.6413 9.31872 25.821 9.74445C25.9768 10.1347 25.845 10.4776 25.5574 10.7496C25.2938 11.0098 24.9463 11.0335 24.5989 11.0335C21.855 11.0335 19.1231 11.0335 16.3793 11.0335C13.2401 11.0335 10.0888 11.0335 6.94957 11.0335C6.74588 11.0335 6.53021 11.0335 6.32652 10.9862C5.82328 10.8797 5.51175 10.454 5.55968 9.99279C5.6076 9.49611 5.99102 9.14133 6.53021 9.12951C7.77632 9.11768 9.01045 9.12951 10.2566 9.12951C12.0419 9.11768 13.8511 9.11768 15.6724 9.11768Z" fill="#833CFA"/>
<path d="M15.6604 6.49236C13.9709 6.49236 12.2815 6.49236 10.5921 6.49236C10.3644 6.49236 10.1367 6.48053 9.92108 6.4214C9.47775 6.31497 9.21415 5.93654 9.21415 5.51082C9.21415 5.08509 9.50171 4.71849 9.93306 4.61206C10.1487 4.56475 10.3764 4.5411 10.604 4.5411C13.9829 4.5411 17.3618 4.5411 20.7407 4.5411C20.9684 4.5411 21.196 4.55293 21.4117 4.60023C21.867 4.68301 22.1905 5.07326 22.1905 5.49899C22.2025 5.92472 21.891 6.3268 21.4356 6.43323C21.208 6.48053 20.9564 6.49236 20.7287 6.49236C19.0393 6.49236 17.3498 6.49236 15.6604 6.49236Z" fill="#833CFA"/>
<path d="M15.7203 13.647C17.5176 13.647 19.3149 13.6351 21.1121 13.647C21.9628 13.647 22.4421 14.3802 22.0587 15.0542C21.831 15.4445 21.4716 15.5627 21.0283 15.5627C19.0513 15.5627 17.0742 15.5627 15.0972 15.5627C13.4917 15.5627 11.8981 15.5746 10.2925 15.5627C9.42982 15.5509 8.93856 14.7704 9.35793 14.1082C9.58558 13.7416 9.94504 13.647 10.3644 13.647C12.1497 13.647 13.935 13.647 15.7203 13.647Z" fill="#833CFA"/>
<defs>
<linearGradient id="paint0_linear_64_453" x1="7.93321" y1="34.7819" x2="41.5324" y2="11.7906" gradientUnits="userSpaceOnUse">
<stop stop-color="#833CFA"/>
<stop offset="1" stop-color="#BD3CFA"/>
</linearGradient>
<linearGradient id="paint1_linear_64_453" x1="7.93321" y1="34.7819" x2="41.5324" y2="11.7906" gradientUnits="userSpaceOnUse">
<stop stop-color="#833CFA"/>
<stop offset="1" stop-color="#BD3CFA"/>
</linearGradient>
<linearGradient id="paint2_linear_64_453" x1="7.93321" y1="34.7819" x2="41.5324" y2="11.7906" gradientUnits="userSpaceOnUse">
<stop stop-color="#833CFA"/>
<stop offset="1" stop-color="#BD3CFA"/>
</linearGradient>
<linearGradient id="paint3_linear_64_453" x1="7.93321" y1="34.7819" x2="41.5324" y2="11.7906" gradientUnits="userSpaceOnUse">
<stop stop-color="#833CFA"/>
<stop offset="1" stop-color="#BD3CFA"/>
</linearGradient>
</defs>
</svg>
