<svg width="42" height="36" viewBox="0 0 42 36" xmlns="http://www.w3.org/2000/svg">
<path d="M2.51932 32.1662C2.4339 32.2574 2.58519 32.3888 2.69954 32.3384C3.15313 32.1387 3.56775 31.96 3.97332 31.7721C5.88448 30.9158 7.78237 30.0596 9.7068 29.2301C10.1713 29.0294 10.3969 28.735 10.5695 28.2802C11.2463 26.4338 11.963 24.5875 12.6664 22.7546C12.7195 22.6342 12.7594 22.5004 12.8124 22.38C13.0248 21.9384 13.4362 21.7511 13.8344 21.9117C14.2325 22.0722 14.4449 22.487 14.2856 22.9419C13.9538 23.8918 13.5955 24.815 13.2371 25.7649C12.8523 26.7683 12.4939 27.7717 12.0825 28.7618C11.9498 29.0963 12.0161 29.2568 12.3346 29.4308C14.79 30.8222 17.2453 32.227 19.7006 33.6184C20.1518 33.8726 20.1784 33.8459 20.1784 33.3241C20.1784 32.1333 20.1916 30.956 20.1784 29.7652C20.1784 29.3371 20.2845 29.123 20.7623 29.1364C21.8905 29.1766 21.7976 29.016 21.7976 30.1934C21.7976 31.2503 21.8108 32.2939 21.7976 33.3508C21.7976 33.6987 21.8374 33.8726 22.2355 33.6452C24.7307 32.2136 27.2258 30.782 29.7342 29.3772C30.0793 29.1766 29.9731 28.9625 29.8802 28.7083C29.19 26.9021 28.4999 25.0825 27.8097 23.2764C27.7699 23.1827 27.7301 23.0891 27.7036 22.9954C27.5576 22.5004 27.7168 22.0722 28.1283 21.9117C28.5397 21.7378 28.9644 21.9385 29.1635 22.4201C29.4157 23.0355 29.6413 23.6644 29.8802 24.2932C30.411 25.698 30.9552 27.1028 31.4861 28.5076C31.579 28.7618 31.6984 28.9759 31.9771 29.0963C34.4059 30.1666 36.8347 31.2637 39.2502 32.3474C39.3768 32.3985 39.4973 32.2506 39.442 32.1258C39.1531 31.474 38.8897 30.8738 38.6264 30.2736C37.4717 27.7049 36.3038 25.1361 35.1624 22.5539C35.0164 22.2328 34.8173 22.0187 34.4855 21.8716C32.5611 21.0019 30.6499 20.1055 28.7255 19.2492C28.261 19.0486 28.1814 18.8345 28.407 18.3796C28.8317 17.5501 28.8051 17.5233 29.6811 17.9113C31.6453 18.8077 33.6096 19.7041 35.5738 20.6005C35.9322 20.7611 36.2109 20.9885 36.3702 21.3765C38.1884 25.4304 40.0067 29.4843 41.8382 33.5248C42.0107 33.8994 42.1036 34.2606 41.8117 34.5951C41.5197 34.943 41.1613 34.943 40.7764 34.769C39.2369 34.0733 37.6841 33.391 36.1313 32.6953C34.6183 32.0129 33.092 31.344 31.5923 30.6616C31.2206 30.4877 30.9154 30.5278 30.5703 30.7285C27.6638 32.4009 24.7307 34.0466 21.8374 35.7323C21.2534 36.0802 20.7756 36.0936 20.1916 35.7457C17.3514 34.0867 14.4714 32.4812 11.6312 30.8356C11.1136 30.5278 10.7022 30.5278 10.1581 30.7687C7.22495 32.1066 4.27858 33.4044 1.34547 34.7155C0.960588 34.8894 0.588973 34.9965 0.243902 34.662C-0.11444 34.3008 -0.0215366 33.9128 0.164271 33.5114C1.9958 29.4441 3.82733 25.3769 5.64559 21.3096C5.77831 21.0019 5.99066 20.8012 6.29591 20.6674C8.44597 19.7175 10.6093 18.7542 12.7594 17.7909C13.1044 17.6304 13.277 17.6839 13.4362 18.0451C13.9406 19.2225 13.9671 18.995 12.9319 19.4633C11.1136 20.2794 9.29537 21.0956 7.47712 21.8983C7.22495 22.0053 7.02587 22.1525 6.90642 22.4201C5.46433 25.661 3.99587 28.8886 2.55361 32.1161C2.54462 32.1363 2.53439 32.1501 2.51932 32.1662Z" fill="#833CFA"/>
<path d="M12.3877 8.61285C12.401 4.13084 15.8252 0.438208 20.1916 0.0368343C25.3943 -0.444814 29.8669 3.86326 29.5484 9.08112C29.4422 10.7803 28.7919 12.359 28.1548 13.9244C26.3631 18.2993 24.0936 22.4469 21.7445 26.5409C21.3596 27.2232 20.6429 27.2901 20.2846 26.6613C17.4576 21.6842 14.6307 16.7072 12.839 11.2352C12.547 10.3521 12.3347 9.45573 12.3877 8.61285ZM20.4836 1.60219C18.9043 1.62895 17.086 2.39156 15.7057 4.01043C13.9936 6.0173 13.5424 8.30513 14.3653 10.8472C15.5332 14.4194 17.232 17.7508 18.9706 21.0554C19.5413 22.1525 20.1651 23.2228 20.7491 24.3066C20.9216 24.6277 21.0278 24.6143 21.2003 24.3066C21.4127 23.8918 21.6516 23.4904 21.8772 23.0757C23.7751 19.6105 25.6331 16.1185 27.0267 12.4125C27.5576 11.0345 28.0619 9.64304 27.9425 8.09106C27.6638 4.43856 24.651 1.61557 20.4836 1.60219Z" fill="#833CFA"/>
<path d="M16.157 8.66637C16.1702 5.96378 18.3468 3.76961 21.0012 3.78299C23.6822 3.79637 25.819 6.00392 25.7924 8.74664C25.7791 11.4358 23.6025 13.5631 20.8951 13.5364C18.2805 13.5096 16.1304 11.3154 16.157 8.66637ZM20.9482 11.9175C22.7531 11.9175 24.2263 10.4725 24.2263 8.66637C24.2263 6.88694 22.7531 5.41524 20.988 5.41524C19.1697 5.41524 17.7231 6.84681 17.7231 8.67975C17.7098 10.4324 19.183 11.9041 20.9482 11.9175Z" fill="#833CFA"/>
<defs>
<linearGradient id="paint0_linear_64_446" x1="9.01032" y1="30.5363" x2="40.423" y2="2.72833" gradientUnits="userSpaceOnUse">
<stop stop-color="#833CFA"/>
<stop offset="1" stop-color="#BD3CFA"/>
</linearGradient>
<linearGradient id="paint1_linear_64_446" x1="9.01032" y1="30.5363" x2="40.423" y2="2.72833" gradientUnits="userSpaceOnUse">
<stop stop-color="#833CFA"/>
<stop offset="1" stop-color="#BD3CFA"/>
</linearGradient>
<linearGradient id="paint2_linear_64_446" x1="9.01032" y1="30.5363" x2="40.423" y2="2.72833" gradientUnits="userSpaceOnUse">
<stop stop-color="#833CFA"/>
<stop offset="1" stop-color="#BD3CFA"/>
</linearGradient>
</defs>
</svg>
