<svg width="41" height="41" viewBox="0 0 41 41" xmlns="http://www.w3.org/2000/svg">
<path d="M33.513 23.1935C33.5374 22.2197 33.4396 21.2582 33.2685 20.2967C33.1952 19.9145 33.2074 19.5571 33.5252 19.2736C33.7696 19.0517 34.063 18.99 34.3807 19.0887C34.7841 19.2119 34.9552 19.5324 35.0163 19.9145C35.1263 20.6542 35.2485 21.4061 35.2852 22.158C35.4196 24.6111 35.1263 27.0271 34.2218 29.3199C31.8019 35.5203 27.3531 39.3909 20.8754 40.6728C12.7233 42.2876 4.54683 37.8007 1.33244 29.9485C0.440233 27.7667 -0.0119807 25.4986 0.000241279 23.1565C0.0613513 14.1579 6.51457 7.00841 14.7522 5.62781C17.0255 5.24568 19.2743 5.30732 21.5232 5.81272C21.841 5.88668 22.1587 5.97296 22.3298 6.26881C22.5132 6.5893 22.5254 6.92213 22.3176 7.2303C22.0854 7.57545 21.7432 7.67406 21.3521 7.61243C20.8388 7.52614 20.3377 7.40287 19.8243 7.34124C14.52 6.68792 9.93673 8.25342 6.22124 12.1117C3.21463 15.2304 1.78465 19.0393 1.79688 23.403C1.82132 30.8238 7.24789 37.6774 15.07 38.9718C23.7843 40.4017 31.7286 34.4725 33.2319 26.1026C33.4396 25.1658 33.5496 24.1796 33.513 23.1935Z" fill="#833CFA"/>
<path d="M33.0608 17.2396C32.6386 17.7837 31.8658 17.6709 31.1979 17.5034C31.1915 17.5018 31.185 17.5001 31.1786 17.4985C29.5653 17.0917 27.952 16.6973 26.3387 16.2658C25.9964 16.1795 25.7764 16.2535 25.532 16.5C23.4054 18.6695 21.2665 20.8144 19.1277 22.9716C19.0055 23.0949 18.8955 23.2181 18.761 23.3167C18.3821 23.6126 17.9299 23.5756 17.5999 23.2428C17.2944 22.9346 17.2455 22.4785 17.5144 22.1087C17.6366 21.9361 17.7955 21.7882 17.9421 21.628C20.0932 19.4585 22.2321 17.2889 24.3954 15.1318C24.7498 14.7866 24.8231 14.4661 24.7009 13.9854C24.2976 12.4692 23.9554 10.9407 23.5398 9.42446C23.3809 8.83278 23.5031 8.40134 23.9309 7.9699C26.4242 5.47989 28.9053 2.96523 31.3863 0.462894C31.6797 0.167052 31.973 -0.0918106 32.4252 0.0314572C32.9141 0.154725 33.073 0.549182 33.1707 0.980619C33.4763 2.23795 33.7941 3.48296 34.0874 4.74029C34.173 5.08544 34.2463 5.17172 34.5274 4.87588C35.1752 4.19791 35.8351 3.54459 36.5074 2.87894C36.7885 2.59543 37.1307 2.48449 37.5096 2.62008C37.8151 2.73102 37.9984 2.97756 38.0596 3.29805C38.1207 3.65553 37.974 3.92672 37.7296 4.16093C37.0085 4.88821 36.2874 5.62781 35.554 6.34277C35.2852 6.61396 35.334 6.71257 35.6763 6.78653C37.1551 7.15633 38.634 7.52614 40.1129 7.90827C41.0662 8.1548 41.2862 8.93139 40.6017 9.62169C38.084 12.161 35.5663 14.7003 33.0608 17.2396V17.2396ZM29.6997 12.3213C28.6723 13.3741 29.1655 15.1419 30.5917 15.5023C30.9846 15.6016 31.3754 15.7 31.7652 15.7974C31.9363 15.8344 32.0586 15.7728 32.1808 15.6495C32.8652 14.9592 33.5374 14.2689 34.2218 13.5909C34.4296 13.3814 34.3685 13.3074 34.1118 13.2458C32.7796 12.9129 31.4475 12.5801 30.1153 12.235C29.9564 12.198 29.8219 12.1857 29.6997 12.3213V12.3213ZM34.3497 8.34445C34.0775 8.27551 33.7954 8.22622 33.5863 8.41367V8.41367C32.9263 9.07931 32.2785 9.74496 31.6063 10.3983C31.3741 10.6325 31.4108 10.7311 31.7163 10.8051C33.0241 11.1256 34.3196 11.4584 35.6152 11.7912C35.7863 11.8405 35.9451 11.8528 36.0796 11.7172C36.7762 11.0146 37.4851 10.2997 38.1818 9.59704C38.3407 9.43679 38.3162 9.33817 38.0962 9.28887C37.8151 9.22723 37.534 9.15327 37.2529 9.07931C36.2974 8.84109 35.3324 8.59335 34.3497 8.34445ZM32.5518 5.79417C32.1617 4.42722 30.4851 3.9572 29.4675 4.94984V4.94984C29.3208 5.09776 29.2964 5.25801 29.3453 5.44291C29.6264 6.56465 29.9075 7.67406 30.1764 8.7958C30.2619 9.1656 30.3964 9.07931 30.5797 8.88208C31.1297 8.32738 31.6552 7.73569 32.2419 7.2303C32.6819 6.84817 32.743 6.47836 32.5963 5.94831C32.5814 5.89699 32.5665 5.84561 32.5518 5.79417ZM28.6032 9.86902C28.2594 8.4546 26.4958 7.97169 25.4709 9.00535V9.00535C25.3242 9.15327 25.3487 9.30119 25.3976 9.47377C25.6787 10.5709 25.9475 11.6803 26.2164 12.7773C26.2898 13.0732 26.3631 13.1595 26.6075 12.9129C27.2431 12.2596 27.8908 11.6063 28.5508 10.953C28.7097 10.8051 28.7831 10.6325 28.7342 10.4106C28.6908 10.2302 28.6472 10.0498 28.6032 9.86902Z" fill="#833CFA"/>
<path d="M27.9275 23.2798C27.952 21.8622 27.6953 20.6295 27.2431 19.4215C27.0109 18.8298 27.182 18.349 27.6464 18.1272C28.1353 17.9053 28.6364 18.1395 28.8808 18.7435C29.3453 19.8899 29.6142 21.0979 29.6997 22.3306C30.0908 27.9393 26.6687 33.0549 21.3521 34.8053C14.3122 37.1351 6.73456 32.3399 5.72014 24.9562C4.81571 18.3737 9.21563 12.4322 15.4489 11.2612C17.8566 10.8051 20.191 11.0886 22.4398 12.0501C22.9776 12.2843 23.1976 12.6911 23.0632 13.1348C22.9043 13.7019 22.3787 13.9484 21.7921 13.7142C20.8021 13.3074 19.7754 13.0239 18.6999 12.9129C15.95 12.6418 13.4811 13.3444 11.33 15.0701C8.91008 16.9931 7.61455 19.5324 7.419 22.6511C7.089 27.853 10.7678 32.6358 16.1088 33.4863C21.6454 34.3615 26.852 30.5649 27.8053 24.9809C27.9031 24.3645 27.9642 23.7605 27.9275 23.2798Z" fill="#833CFA"/>
<path d="M17.6855 29.739C14.3122 29.7267 11.5378 27.1134 11.22 23.8221C10.9023 20.4939 13.2489 17.0301 17.2333 16.6849C17.3799 16.6726 17.5388 16.6726 17.6855 16.6849C18.211 16.7466 18.541 17.1164 18.5288 17.5971C18.5166 18.0779 18.1744 18.4353 17.6366 18.4723C17.0255 18.5093 16.4266 18.6079 15.8522 18.8421C13.7744 19.705 12.5889 21.9855 13.0533 24.1919C13.5544 26.5094 15.5589 28.0379 17.9788 27.9393C20.0932 27.853 21.9998 26.0656 22.2932 23.8961C22.3298 23.6372 22.3054 23.366 22.3543 23.1195C22.4398 22.6264 22.8432 22.3059 23.2832 22.3306C23.7476 22.3553 24.0898 22.7374 24.1143 23.2674C24.2365 26.2628 21.6821 29.2952 18.7121 29.665C18.3577 29.6897 18.0033 29.776 17.6855 29.739Z" fill="#833CFA"/>
<defs>
<linearGradient id="paint0_linear_66_465" x1="8.79579" y1="34.7775" x2="43.5066" y2="8.43952" gradientUnits="userSpaceOnUse">
<stop stop-color="#833CFA"/>
<stop offset="1" stop-color="#BD3CFA"/>
</linearGradient>
<linearGradient id="paint1_linear_66_465" x1="8.79579" y1="34.7775" x2="43.5066" y2="8.43952" gradientUnits="userSpaceOnUse">
<stop stop-color="#833CFA"/>
<stop offset="1" stop-color="#BD3CFA"/>
</linearGradient>
<linearGradient id="paint2_linear_66_465" x1="8.79579" y1="34.7775" x2="43.5066" y2="8.43952" gradientUnits="userSpaceOnUse">
<stop stop-color="#833CFA"/>
<stop offset="1" stop-color="#BD3CFA"/>
</linearGradient>
<linearGradient id="paint3_linear_66_465" x1="8.79579" y1="34.7775" x2="43.5066" y2="8.43952" gradientUnits="userSpaceOnUse">
<stop stop-color="#833CFA"/>
<stop offset="1" stop-color="#BD3CFA"/>
</linearGradient>
</defs>
</svg>
