<svg width="43" height="34" viewBox="0 0 43 34" xmlns="http://www.w3.org/2000/svg">
<path d="M22.0056 0C26.4178 0 30.8412 0 35.2535 0C37.3541 0 39.0434 1.31155 39.5435 3.32334C39.6325 3.69013 39.6658 4.05692 39.6658 4.43483C39.6658 10.8926 39.6658 17.3503 39.6658 23.808C39.6658 24.6194 39.1545 25.1196 38.4655 24.9751C37.9542 24.8639 37.6653 24.4749 37.6653 23.8636C37.6653 22.1186 37.6653 20.3624 37.6653 18.6174C37.6653 13.9269 37.6653 9.23644 37.6653 4.53486C37.6653 2.94544 36.7206 1.98956 35.1313 1.98956C26.3734 1.98956 17.6044 1.98956 8.84653 1.98956C7.29056 2.00067 6.33475 2.96767 6.33475 4.52375C6.33475 10.937 6.33475 17.3503 6.33475 23.7636C6.33475 24.4193 6.1347 24.7639 5.66791 24.9306C5.05663 25.1418 4.42313 24.7639 4.34534 24.1192C4.32311 23.9859 4.33422 23.8414 4.33422 23.708C4.33422 17.3392 4.33422 10.9592 4.33422 4.59043C4.33422 1.83395 6.16804 0 8.92433 0C13.281 0 17.6489 0 22.0056 0Z" fill="#833CFA" />
<path d="M21.95 33C16.4819 33 11.0027 33 5.53454 33C2.84494 33 0.988892 31.1438 0.988892 28.4429C0.988892 28.2206 0.988892 27.9983 0.988892 27.776C1.00001 27.0536 1.37788 26.6645 2.1003 26.6645C4.43425 26.6645 6.7682 26.6645 9.10215 26.6645C10.6025 26.6645 12.1029 26.6645 13.6033 26.6645C14.1368 26.6645 14.4702 26.9091 14.6147 27.3759C14.7481 27.7871 14.5925 28.2317 14.248 28.4874C14.0034 28.6541 13.7367 28.6763 13.4477 28.6763C10.3136 28.6763 7.1683 28.6763 4.03414 28.6763C3.80075 28.6763 3.55624 28.6986 3.32284 28.6652C2.98942 28.6207 2.96719 28.7875 3.01165 29.0542C3.23393 30.2435 4.16751 31.0104 5.44563 31.0104C14.2368 31.0104 23.0281 31.0104 31.8193 31.0104C34.0976 31.0104 36.376 31.0216 38.6544 31.0104C39.8103 31.0104 40.6883 30.2657 40.9439 29.1431C41.0217 28.7986 40.9995 28.6652 40.5771 28.6652C37.1985 28.6874 33.8309 28.6763 30.4522 28.6763C29.5965 28.6763 29.0963 27.9872 29.4075 27.2647C29.6076 26.8201 29.9855 26.6756 30.4634 26.6756C33.064 26.6756 35.6536 26.6756 38.2543 26.6756C39.4435 26.6756 40.6438 26.6756 41.833 26.6756C42.611 26.6756 42.9667 27.0536 42.9889 27.8205C43 28.7097 43.0111 29.5989 42.611 30.4325C41.7997 32.1219 40.4438 32.9889 38.5766 33C35.0646 33.0222 31.5525 33 28.0405 33C26.0066 33 23.9839 33 21.95 33Z" fill="#833CFA"/>
<path d="M24.5385 9.79681C24.7196 10.123 24.6559 10.5236 24.5507 10.8814C23.506 14.0381 22.4501 17.1947 21.3943 20.3402C21.3387 20.5069 21.272 20.6847 21.1831 20.8404C20.9053 21.2961 20.4163 21.4517 19.9717 21.2516C19.4604 21.0182 19.2271 20.5514 19.3938 20.029C20.4941 16.7056 21.6055 13.3823 22.7169 10.0589C22.9058 9.51431 23.3393 9.25867 23.8727 9.35871C24.1727 9.39961 24.4057 9.55762 24.5385 9.79681Z" fill="#833CFA"/>
<path d="M17.9267 12.6042C17.9378 12.9933 17.7711 13.26 17.5044 13.4934C16.8931 14.0158 16.3041 14.5605 15.6928 15.0829C15.4816 15.2607 15.4705 15.383 15.6928 15.5608C16.2374 16.0165 16.7597 16.4833 17.2932 16.9502C17.6377 17.2391 17.96 17.5281 17.9267 18.0505C17.9045 18.4729 17.6933 18.773 17.3377 18.9286C16.9931 19.0842 16.6264 19.062 16.3263 18.7841C15.3371 17.906 14.348 17.0502 13.3811 16.161C12.7476 15.583 12.7587 15.0495 13.4033 14.4715C14.3702 13.5935 15.3482 12.7376 16.3263 11.8707C16.6375 11.5928 17.0154 11.5706 17.3821 11.7262C17.7489 11.904 17.9489 12.2041 17.9267 12.6042Z" fill="#833CFA"/>
<path d="M27.0958 19.0064C26.6179 19.0064 26.2511 18.773 26.1066 18.3951C25.9622 18.0061 26.0733 17.5504 26.3956 17.2614C27.0069 16.7167 27.6182 16.1721 28.2405 15.6386C28.4739 15.4385 28.5406 15.3163 28.2405 15.0829C27.6182 14.5827 27.0291 14.0269 26.429 13.4823C25.9844 13.0711 25.9288 12.4375 26.2845 12.0263C26.629 11.6261 27.2292 11.5706 27.696 11.9707C28.7296 12.8599 29.7409 13.7602 30.7301 14.6938C31.208 15.1384 31.1969 15.6831 30.719 16.1165C29.7298 17.028 28.7184 17.9171 27.7071 18.8063C27.5292 18.9731 27.2958 19.0175 27.0958 19.0064Z" fill="#833CFA"/>
<path d="M21.9944 26.6645C23.0503 26.6645 24.1061 26.6645 25.162 26.6645C25.8955 26.6645 26.3289 27.0536 26.3289 27.676C26.3178 28.2762 25.8844 28.6652 25.1842 28.6652C23.0614 28.6652 20.9386 28.6652 18.8158 28.6652C18.1156 28.6652 17.6822 28.2873 17.6711 27.676C17.66 27.0536 18.1045 26.6645 18.8381 26.6645C19.8828 26.6645 20.9386 26.6645 21.9944 26.6645Z" fill="#833CFA"/>
<defs>
<linearGradient id="paint0_linear_66_467" x1="10" y1="28" x2="39" y2="-4.75506e-06" gradientUnits="userSpaceOnUse">
<stop stop-color="#833CFA"/>
<stop offset="1" stop-color="#BD3CFA"/>
</linearGradient>
<linearGradient id="paint1_linear_66_467" x1="10" y1="28" x2="39" y2="-4.75506e-06" gradientUnits="userSpaceOnUse">
<stop stop-color="#833CFA"/>
<stop offset="1" stop-color="#BD3CFA"/>
</linearGradient>
<linearGradient id="paint2_linear_66_467" x1="10" y1="28" x2="39" y2="-4.75506e-06" gradientUnits="userSpaceOnUse">
<stop stop-color="#833CFA"/>
<stop offset="1" stop-color="#BD3CFA"/>
</linearGradient>
<linearGradient id="paint3_linear_66_467" x1="10" y1="28" x2="39" y2="-4.75506e-06" gradientUnits="userSpaceOnUse">
<stop stop-color="#833CFA"/>
<stop offset="1" stop-color="#BD3CFA"/>
</linearGradient>
<linearGradient id="paint4_linear_66_467" x1="10" y1="28" x2="39" y2="-4.75506e-06" gradientUnits="userSpaceOnUse">
<stop stop-color="#833CFA"/>
<stop offset="1" stop-color="#BD3CFA"/>
</linearGradient>
<linearGradient id="paint5_linear_66_467" x1="10" y1="28" x2="39" y2="-4.75506e-06" gradientUnits="userSpaceOnUse">
<stop stop-color="#833CFA"/>
<stop offset="1" stop-color="#BD3CFA"/>
</linearGradient>
</defs>
</svg>
