<svg width="40" height="33" viewBox="0 0 40 33" xmlns="http://www.w3.org/2000/svg">
<path d="M20.0058 0C25.6245 0 31.2547 0 36.8734 0C38.8924 0 40 1.11041 40 3.1346C40 12.0641 40 21.0053 40 29.9348C40 31.8318 38.8578 32.9884 36.9541 32.9884C25.6591 32.9884 14.3755 32.9884 3.08047 32.9884C1.11912 32.9884 0 31.8665 0 29.8885C0.0115374 20.959 0.0115374 12.0294 0.0115374 3.0999C0.0115374 1.12198 1.13066 0 3.09201 0C8.73378 0 14.3755 0 20.0058 0ZM20.0288 7.22923C14.1794 7.22923 8.31843 7.22923 2.46899 7.22923C1.86905 7.22923 1.86905 7.22923 1.86905 7.81914C1.86905 13.6141 1.86905 19.409 1.85751 25.204C1.85751 25.6435 1.98442 25.7592 2.42284 25.7592C14.1448 25.7476 25.8667 25.7476 37.5772 25.7592C38.0156 25.7592 38.1425 25.6435 38.1425 25.204C38.1309 19.409 38.1309 13.6141 38.1309 7.81914C38.1309 7.22923 38.1309 7.22923 37.531 7.22923C31.7046 7.22923 25.8667 7.22923 20.0288 7.22923ZM12.0104 1.87382C11.1335 1.87382 10.2567 1.88538 9.37987 1.87382C9.09143 1.87382 8.96452 1.95478 8.97606 2.26709C8.9876 3.18086 8.9876 4.08307 8.97606 4.99685C8.97606 5.28602 9.0799 5.37855 9.35679 5.36698C11.1335 5.35542 12.8988 5.35542 14.6755 5.36698C14.9639 5.36698 15.0909 5.28602 15.0909 4.97371C15.0793 4.08307 15.0793 3.18086 15.0909 2.29022C15.0909 1.96635 14.9639 1.86225 14.6524 1.87382C13.7641 1.88538 12.8872 1.87382 12.0104 1.87382ZM28.0127 5.36698C28.8895 5.36698 29.7664 5.35542 30.6432 5.36698C30.9316 5.36698 31.0586 5.28602 31.0586 4.97371C31.047 4.05994 31.047 3.15773 31.0586 2.24395C31.0586 1.96635 30.9547 1.86225 30.6778 1.86225C28.9011 1.87382 27.1359 1.87382 25.3591 1.86225C25.0361 1.86225 24.9322 1.98949 24.9438 2.30179C24.9553 3.18086 24.9553 4.05994 24.9438 4.93901C24.9438 5.26288 25.0591 5.36698 25.3822 5.36698C26.259 5.35542 27.1359 5.36698 28.0127 5.36698ZM11.9642 31.1262C12.8526 31.1262 13.7525 31.1146 14.6409 31.1262C14.9639 31.1262 15.0793 31.0221 15.0678 30.6982C15.0562 29.8191 15.0562 28.9401 15.0678 28.061C15.0678 27.7487 14.9755 27.6215 14.6409 27.633C12.8872 27.6446 11.122 27.6446 9.36833 27.633C9.04528 27.633 8.94145 27.7371 8.94145 28.061C8.95298 28.9401 8.96452 29.8191 8.94145 30.6982C8.92991 31.0568 9.0799 31.1378 9.40294 31.1378C10.2682 31.1146 11.1105 31.1262 11.9642 31.1262ZM28.0127 27.633C27.1359 27.633 26.259 27.6446 25.3822 27.633C25.0707 27.633 24.9438 27.7371 24.9553 28.061C24.9668 28.9401 24.9668 29.8191 24.9553 30.6982C24.9438 31.0568 25.1053 31.1378 25.4168 31.1378C27.1589 31.1262 28.9011 31.1262 30.6432 31.1378C30.9663 31.1378 31.0701 31.0337 31.0701 30.7098C31.0586 29.8307 31.047 28.9516 31.0701 28.0726C31.0816 27.714 30.9432 27.633 30.6086 27.633C29.7433 27.6446 28.878 27.633 28.0127 27.633ZM20.0173 5.36698C20.8826 5.36698 21.7479 5.35542 22.6132 5.36698C22.9363 5.36698 23.0516 5.26288 23.0516 4.93901C23.0401 4.05994 23.0401 3.18086 23.0516 2.30179C23.0516 1.98949 22.9478 1.86225 22.6247 1.87382C20.8941 1.88538 19.1635 1.88538 17.4329 1.87382C17.0984 1.87382 16.9714 1.98948 16.983 2.32492C16.9945 3.19243 16.9945 4.05994 16.983 4.92744C16.983 5.26288 17.0984 5.39012 17.4329 5.37855C18.2867 5.35542 19.152 5.36698 20.0173 5.36698ZM20.0519 27.633C19.1866 27.633 18.3213 27.6446 17.456 27.6215C17.1099 27.6099 16.9599 27.714 16.9714 28.0841C16.9945 28.9516 16.9945 29.8191 16.9714 30.6866C16.9599 31.0337 17.1099 31.1262 17.4329 31.1262C19.152 31.1146 20.8595 31.1146 22.5786 31.1262C22.9478 31.1262 23.0516 30.9874 23.0401 30.6404C23.0286 29.7844 23.017 28.9401 23.0401 28.0841C23.0516 27.714 22.9016 27.6099 22.5555 27.6215C21.7248 27.6446 20.8941 27.633 20.0519 27.633ZM4.48803 5.36698C5.22642 5.36698 5.95327 5.35542 6.69166 5.36698C6.9801 5.36698 7.10701 5.27445 7.10701 4.97371C7.09547 4.05994 7.09547 3.15773 7.10701 2.24395C7.10701 1.95478 6.99163 1.87382 6.71474 1.87382C5.45717 1.88538 4.21113 1.87382 2.95356 1.88538C2.21517 1.89695 1.90366 2.20925 1.88059 2.94953C1.86905 3.60883 1.89213 4.27971 1.86905 4.93901C1.85751 5.29758 1.99596 5.37855 2.33055 5.37855C3.04586 5.35542 3.77271 5.36698 4.48803 5.36698ZM35.5004 5.36698C36.2504 5.36698 37.0003 5.35542 37.7502 5.36698C38.0502 5.37855 38.1656 5.26288 38.154 4.96215C38.1425 4.30284 38.154 3.63197 38.1425 2.97266C38.1309 2.19769 37.8194 1.88538 37.058 1.87382C35.8235 1.86225 34.5774 1.87382 33.3429 1.86225C33.0199 1.86225 32.9161 1.96635 32.9161 2.29022C32.9276 3.1693 32.9276 4.04837 32.9161 4.93901C32.9161 5.25132 33.0084 5.37855 33.3429 5.36698C34.0583 5.35542 34.7736 5.36698 35.5004 5.36698ZM4.49957 27.633C3.74964 27.633 2.99971 27.6446 2.24978 27.633C1.97289 27.633 1.85751 27.7256 1.86905 28.0147C1.88059 28.6972 1.85751 29.368 1.88059 30.0505C1.89213 30.8023 2.20363 31.1146 2.94202 31.1262C4.1996 31.1378 5.44563 31.1262 6.7032 31.1378C7.00317 31.1378 7.10701 31.0337 7.10701 30.7329C7.09547 29.8423 7.09547 28.9401 7.10701 28.0494C7.11855 27.714 6.96856 27.633 6.66859 27.6446C5.94174 27.6446 5.22642 27.633 4.49957 27.633ZM35.5466 27.633C34.7967 27.633 34.0467 27.6446 33.2968 27.633C33.0199 27.633 32.9161 27.7371 32.9161 28.0147C32.9276 28.9285 32.9276 29.8307 32.9161 30.7445C32.9161 31.0221 33.0084 31.1378 33.2968 31.1262C34.5659 31.1146 35.835 31.1378 37.1041 31.1146C37.8194 31.1031 38.1309 30.7907 38.1425 30.062C38.1656 29.3796 38.1425 28.7087 38.154 28.0263C38.1656 27.7256 38.0617 27.6099 37.7502 27.6215C37.0118 27.6446 36.285 27.633 35.5466 27.633Z" fill="#833CFA"/>
<path d="M14.0986 16.5405C14.0986 15.0252 14.0525 13.51 14.1102 11.9947C14.1794 10.0747 16.4292 8.89485 18.0906 9.91272C19.6943 10.8959 21.2403 11.9485 22.8093 12.9779C23.4208 13.3828 24.0438 13.776 24.6553 14.1924C26.3859 15.3838 26.409 17.6162 24.6784 18.796C22.5555 20.2419 20.398 21.6414 18.2521 23.041C17.3753 23.6078 16.4177 23.6772 15.4947 23.1682C14.5717 22.6593 14.0871 21.8381 14.0871 20.7508C14.0986 19.3396 14.0871 17.9401 14.0986 16.5405ZM15.9677 16.4248C15.9677 17.8128 15.9677 19.2008 15.9677 20.5773C15.9677 20.959 16.0485 21.306 16.4061 21.5026C16.7753 21.6993 17.0984 21.572 17.4099 21.3523C17.4906 21.2944 17.5829 21.2366 17.6637 21.1903C19.5904 19.9295 21.5172 18.6572 23.4554 17.408C24.3438 16.8297 24.3553 16.1819 23.4785 15.6151C21.9325 14.5973 20.398 13.591 18.852 12.5846C18.3213 12.2376 17.8021 11.8675 17.2483 11.5552C16.5676 11.1619 15.9562 11.5436 15.9677 12.3186C15.9677 13.6835 15.9677 15.0599 15.9677 16.4248Z" fill="#833CFA"/>
<defs>
<linearGradient id="paint0_linear_65_458" x1="8.58126" y1="27.9818" x2="37.4799" y2="1.39338" gradientUnits="userSpaceOnUse">
<stop stop-color="#833CFA"/>
<stop offset="1" stop-color="#BD3CFA"/>
</linearGradient>
<linearGradient id="paint1_linear_65_458" x1="8.58126" y1="27.9818" x2="37.4799" y2="1.39338" gradientUnits="userSpaceOnUse">
<stop stop-color="#833CFA"/>
<stop offset="1" stop-color="#BD3CFA"/>
</linearGradient>
</defs>
</svg>
