<svg width="41" height="37" viewBox="0 0 41 37" fill="none" xmlns="http://www.w3.org/2000/svg">
<g clip-path="url(#clip0_243_53)">
<path d="M26.9645 0C31.1913 0 35.4056 0 39.6325 0C40.8508 0 41.3356 0.818422 40.7265 1.85672C36.5742 9.11258 32.4096 16.3684 28.2449 23.6243C27.6855 24.6015 26.691 24.6137 26.1067 23.6365C24.7268 21.34 23.3593 19.0436 22.0042 16.7349C21.8426 16.4539 21.6312 16.3318 21.3204 16.2951C19.754 16.1119 18.1752 15.9165 16.6088 15.721C16.1488 15.66 15.7261 15.5378 15.4526 15.1347C15.2164 14.7805 15.2537 14.4262 15.4029 14.0475C16.0369 12.5328 16.6585 11.0059 17.2926 9.47904C17.4044 9.2103 17.392 9.01486 17.2428 8.77055C15.8629 6.4863 14.5078 4.20205 13.1403 1.91779C12.5063 0.855068 12.9912 0.0244305 14.2343 0.0244305C18.4736 0.0244305 22.7128 0.0244305 26.952 0.0244305C26.9645 0.0244305 26.9645 0.0122153 26.9645 0ZM27.1758 20.9858C27.2504 20.8514 27.3374 20.7293 27.412 20.5949C29.5006 16.967 31.6015 13.3268 33.6901 9.69891C35.0576 7.32915 36.4251 4.94718 37.7926 2.58963C37.9666 2.29647 37.9417 2.21096 37.5812 2.22318C36.9721 2.24761 36.3753 2.23539 35.7662 2.24761C29.3514 2.25982 22.9366 2.27204 16.5218 2.28425C16.3602 2.28425 16.1986 2.29647 15.9748 2.30868C17.0563 4.11654 18.0882 5.85111 19.1325 7.59789C19.2692 7.81776 19.4184 7.72004 19.5676 7.67118C20.3383 7.4513 21.1091 7.23143 21.8799 6.99934C24.6273 6.20535 27.3747 5.41136 30.1346 4.62958C30.7686 4.44635 31.2783 4.67844 31.5145 5.21591C31.7631 5.77781 31.5394 6.27864 30.8681 6.69396C27.1261 8.95378 23.3841 11.2014 19.6422 13.4612C19.493 13.5589 19.3438 13.6567 19.12 13.8032C20.1892 13.9376 21.1713 14.0842 22.1534 14.1819C22.7874 14.243 23.2474 14.4995 23.5706 15.0614C24.6397 16.9181 25.7462 18.7504 26.8526 20.5827C26.952 20.7293 26.9893 20.9125 27.1758 20.9858Z" fill="#30415B"/>
<path d="M19.0206 21.6699C19.033 21.9874 18.859 22.2806 18.5855 22.5249C17.5163 23.4777 16.4845 24.4671 15.49 25.4932C12.5685 28.547 10.0946 31.9307 8.13034 35.6563C7.99359 35.9251 7.84441 36.1938 7.6828 36.4625C7.372 36.9633 6.71312 37.1344 6.17855 36.8534C5.66885 36.5847 5.46994 35.9739 5.73101 35.4364C7.18553 32.5292 8.95084 29.8052 10.9772 27.2644C12.469 25.3833 14.11 23.6487 15.8629 22.0119C16.2856 21.6088 16.7083 21.2057 17.1558 20.827C17.5039 20.5216 17.9266 20.4117 18.3617 20.6316C18.7595 20.827 19.0206 21.1446 19.0206 21.6699Z" fill="#833CFA"/>
<path d="M1.15615 24.3572C0.634014 24.3572 0.18647 24.0396 0.037289 23.5754C-0.0994605 23.1357 0.0870161 22.5982 0.522128 22.3417C1.26804 21.8897 2.03881 21.4622 2.80958 21.0224C5.56943 19.4467 8.32928 17.8587 11.0891 16.2829C11.3626 16.1241 11.6361 15.9287 11.9842 15.9287C12.5064 15.9165 12.9788 16.1852 13.128 16.6127C13.3144 17.1136 13.1528 17.6388 12.668 17.9198C11.5243 18.6038 10.3681 19.2512 9.22437 19.9109C6.78774 21.3034 4.33868 22.6959 1.90206 24.0885C1.66585 24.2228 1.42965 24.3816 1.15615 24.3572Z" fill="#833CFA"/>
<path d="M11.8101 7.68338C12.7052 7.6956 13.0906 8.01319 13.2025 8.62395C13.2895 9.11256 12.9912 9.63782 12.4566 9.79662C10.8529 10.2608 9.24919 10.7005 7.63306 11.1281C7.12336 11.2624 6.5142 10.8716 6.36502 10.3585C6.19098 9.74776 6.48934 9.17364 7.12336 8.9782C8.22979 8.64838 9.34865 8.35522 10.4675 8.04984C11.0021 7.91547 11.5118 7.68338 11.8101 7.68338Z" fill="#833CFA"/>
<path d="M1.47937 11.2991C1.4918 10.6883 1.98907 10.2486 2.63553 10.2486C3.24468 10.2608 3.76682 10.7739 3.77925 11.348C3.77925 11.9221 3.20739 12.4596 2.59823 12.4473C1.96421 12.4351 1.47937 11.9343 1.47937 11.2991Z" fill="#833CFA"/>
</g>
<defs>
<clipPath id="clip0_243_53">
<rect width="41" height="37" fill="white"/>
</clipPath>
</defs>
</svg>
