<svg width="21" height="21" viewBox="0 0 21 21" fill="none" xmlns="http://www.w3.org/2000/svg">
<path d="M19.4697 20.5303C19.7626 20.8232 20.2374 20.8232 20.5303 20.5303C20.8232 20.2374 20.8232 19.7626 20.5303 19.4697L19.4697 20.5303ZM17.4113 9.58065C17.4113 13.9054 13.9054 17.4113 9.58065 17.4113V18.9113C14.7338 18.9113 18.9113 14.7338 18.9113 9.58065H17.4113ZM9.58065 17.4113C5.2559 17.4113 1.75 13.9054 1.75 9.58065H0.25C0.25 14.7338 4.42747 18.9113 9.58065 18.9113V17.4113ZM1.75 9.58065C1.75 5.2559 5.2559 1.75 9.58065 1.75V0.25C4.42747 0.25 0.25 4.42747 0.25 9.58065H1.75ZM9.58065 1.75C13.9054 1.75 17.4113 5.2559 17.4113 9.58065H18.9113C18.9113 4.42747 14.7338 0.25 9.58065 0.25V1.75ZM20.5303 19.4697L16.24 15.1793L15.1793 16.24L19.4697 20.5303L20.5303 19.4697Z" fill="#833CFA"/>
</svg>
