<svg width="30" height="30" viewBox="0 0 30 30" fill="none" xmlns="http://www.w3.org/2000/svg">
<path d="M15.0011 30C10.4207 30 5.83076 30 1.25042 30C0.559048 30 0.0309158 29.5488 0.00210866 28.9249C-0.0363009 28.1858 0.453421 27.6579 1.19281 27.6483C3.51659 27.6387 5.84997 27.6483 8.17375 27.6483C9.21081 27.6483 9.21081 27.6483 9.21081 26.6212C9.21081 25.834 9.21081 25.0373 9.21081 24.2502C9.22041 23.5207 9.68133 23.0504 10.4015 23.0504C11.9283 23.0408 13.4455 23.0408 14.9722 23.0504C15.6924 23.0504 16.1629 23.5303 16.1725 24.2502C16.1821 25.2581 16.1821 26.266 16.1725 27.2739C16.1725 27.5715 16.2686 27.6675 16.5662 27.6675C17.8242 27.6579 19.0821 27.6579 20.3496 27.6675C20.6377 27.6675 20.7529 27.6003 20.7529 27.2835C20.7433 19.2204 20.7433 11.1572 20.7529 3.1037C20.7529 2.80614 20.6761 2.72934 20.388 2.80614C15.2603 4.0732 10.1422 5.35946 5.02416 6.62652C4.69768 6.70332 4.65927 6.8761 4.65927 7.16407C4.66887 12.7987 4.65927 18.4429 4.66887 24.0774C4.66887 24.423 4.61126 24.7494 4.3712 25.0085C4.03512 25.3733 3.53579 25.4981 3.08448 25.3253C2.58515 25.1333 2.31629 24.7494 2.30668 24.1926C2.30668 20.737 2.30668 17.2814 2.30668 13.8257C2.30668 11.2244 2.30668 8.62311 2.30668 6.01219C2.30668 5.13868 2.56595 4.79312 3.40136 4.58194C9.39325 3.08451 15.3851 1.57747 21.3674 0.08003C21.5019 0.0416341 21.6459 0.0128372 21.7899 0.00323826C22.5581 -0.0447566 23.0863 0.444791 23.0863 1.20311C23.0959 2.35498 23.0959 3.50686 23.0863 4.65874C23.0863 4.93711 23.1823 5.09069 23.432 5.20588C24.5842 5.76262 25.7269 6.35775 26.8792 6.91449C27.4458 7.19286 27.705 7.60562 27.705 8.24875C27.6954 14.5361 27.6954 20.8234 27.6954 27.1011C27.6954 27.6195 27.6954 27.6195 28.2332 27.6195C28.4156 27.6195 28.5884 27.6195 28.7709 27.6195C29.4911 27.6291 30 28.109 30 28.7905C30 29.4817 29.5103 29.9712 28.7901 29.9712C27.0137 29.9712 25.2372 29.9712 23.4608 29.9712C20.6473 30 17.8242 30 15.0011 30ZM23.0959 17.6845C23.0959 20.8618 23.0959 24.039 23.0863 27.2163C23.0863 27.5331 23.1631 27.6675 23.5088 27.6483C23.9985 27.6195 24.4882 27.6291 24.9876 27.6483C25.2756 27.6579 25.362 27.5619 25.362 27.2739C25.3524 21.2361 25.3524 15.1888 25.362 9.15105C25.362 8.91108 25.266 8.78629 25.0644 8.6807C24.5554 8.44073 24.0561 8.18156 23.5472 7.93198C23.1055 7.71121 23.1055 7.71121 23.1055 8.19116C23.0959 11.3588 23.0959 14.5169 23.0959 17.6845ZM12.7061 25.3925C12.4276 25.3925 12.1491 25.4021 11.8803 25.3925C11.6786 25.3829 11.5634 25.4501 11.573 25.6805C11.5826 26.2468 11.5826 26.8035 11.573 27.3699C11.573 27.5619 11.6498 27.6579 11.8515 27.6483C12.418 27.6387 12.9749 27.6387 13.5415 27.6483C13.7623 27.6483 13.8392 27.5523 13.8296 27.3411C13.82 26.7939 13.82 26.2372 13.8296 25.6901C13.8296 25.4789 13.7527 25.3829 13.5319 25.3925C13.263 25.4021 12.9846 25.3925 12.7061 25.3925Z" fill="#833CFA"/>
<path d="M9.26842 10.4085C9.26842 10.6965 9.25882 10.9845 9.26842 11.2724C9.27802 11.4932 9.182 11.57 8.97075 11.57C8.385 11.5604 7.79926 11.5604 7.21351 11.57C6.99265 11.57 6.91583 11.4836 6.91583 11.2724C6.92544 10.6869 6.92544 10.1013 6.91583 9.51581C6.91583 9.29504 7.00226 9.21824 7.21351 9.21824C7.79926 9.22784 8.385 9.22784 8.97075 9.21824C9.1916 9.21824 9.26842 9.30464 9.26842 9.51581C9.25882 9.81338 9.26842 10.1109 9.26842 10.4085Z" fill="#833CFA"/>
<path d="M13.8776 10.3605C13.8776 10.6581 13.868 10.9557 13.8776 11.2628C13.8776 11.4644 13.82 11.5796 13.5991 11.57C13.0038 11.5604 12.3988 11.5604 11.8035 11.57C11.6018 11.57 11.525 11.4836 11.525 11.2916C11.525 10.6965 11.5346 10.0918 11.525 9.49661C11.525 9.29504 11.6114 9.21824 11.8035 9.21824C12.3988 9.21824 13.0038 9.22784 13.5991 9.21824C13.8008 9.21824 13.8776 9.30464 13.8776 9.49661C13.868 9.78458 13.8776 10.0726 13.8776 10.3605Z" fill="#833CFA"/>
<path d="M17.3056 9.21824C17.6033 9.21824 17.901 9.21824 18.2083 9.21824C18.4099 9.21824 18.4867 9.29504 18.4867 9.49661C18.4867 10.0918 18.4867 10.6965 18.4867 11.2916C18.4867 11.4932 18.4003 11.57 18.2083 11.57C17.6129 11.57 17.008 11.57 16.4126 11.57C16.211 11.57 16.1341 11.4932 16.1341 11.2916C16.1341 10.6965 16.1341 10.0918 16.1341 9.49661C16.1341 9.29504 16.2206 9.21824 16.4126 9.21824C16.7103 9.21824 17.008 9.21824 17.3056 9.21824Z" fill="#833CFA"/>
<path d="M8.09693 13.8257C8.3946 13.8257 8.69228 13.8257 8.99955 13.8257C9.20121 13.8257 9.27802 13.9121 9.27802 14.1041C9.27802 14.6993 9.26842 15.304 9.27802 15.8991C9.27802 16.1007 9.1916 16.1775 8.99955 16.1775C8.40421 16.1775 7.79926 16.1775 7.20391 16.1775C7.00226 16.1775 6.92544 16.0911 6.92544 15.8991C6.92544 15.304 6.92544 14.6993 6.92544 14.1041C6.92544 13.9025 7.01186 13.8257 7.20391 13.8257C7.49198 13.8257 7.78965 13.8257 8.09693 13.8257Z" fill="#833CFA"/>
<path d="M13.8776 15.0352C13.8776 15.3232 13.8776 15.6112 13.8776 15.8991C13.8776 16.0911 13.8008 16.1775 13.5991 16.1775C13.0038 16.1775 12.3988 16.1775 11.8035 16.1775C11.6114 16.1775 11.525 16.1007 11.525 15.8991C11.525 15.304 11.525 14.6993 11.525 14.1041C11.525 13.9121 11.6018 13.8257 11.8035 13.8257C12.3988 13.8257 13.0038 13.8257 13.5991 13.8257C13.7912 13.8257 13.8872 13.9025 13.8776 14.1041C13.868 14.4113 13.8776 14.7185 13.8776 15.0352Z" fill="#833CFA"/>
<path d="M16.1341 15.0064C16.1341 14.7089 16.1437 14.4113 16.1341 14.1041C16.1341 13.9121 16.211 13.8161 16.4126 13.8257C17.008 13.8257 17.6129 13.8257 18.2083 13.8257C18.4003 13.8257 18.4963 13.9025 18.4867 14.1041C18.4867 14.6993 18.4867 15.304 18.4867 15.8991C18.4867 16.0911 18.4099 16.1871 18.2083 16.1775C17.6129 16.1775 17.008 16.1679 16.4126 16.1775C16.1821 16.1775 16.1245 16.0623 16.1341 15.8703C16.1341 15.5728 16.1341 15.2944 16.1341 15.0064Z" fill="#833CFA"/>
<path d="M9.26842 19.6043C9.26842 19.9019 9.26842 20.1995 9.26842 20.5066C9.26842 20.7082 9.182 20.785 8.98995 20.785C8.3946 20.785 7.78965 20.785 7.1943 20.785C6.99265 20.785 6.91583 20.6986 6.91583 20.5066C6.91583 19.9115 6.92544 19.3068 6.91583 18.7116C6.91583 18.51 7.00226 18.4333 7.1943 18.4333C7.78965 18.4333 8.3946 18.4333 8.98995 18.4333C9.1916 18.4333 9.26842 18.5196 9.26842 18.7116C9.25882 19.0092 9.26842 19.3068 9.26842 19.6043Z" fill="#833CFA"/>
<path d="M12.7349 20.785C12.4372 20.785 12.1395 20.7754 11.8323 20.785C11.6306 20.785 11.5154 20.7274 11.525 20.497C11.5346 19.9019 11.5346 19.2972 11.525 18.702C11.525 18.5004 11.6114 18.4237 11.8035 18.4237C12.3988 18.4237 13.0038 18.4237 13.5991 18.4237C13.8008 18.4237 13.8776 18.51 13.8776 18.7116C13.8776 19.3068 13.868 19.9115 13.8776 20.5066C13.8776 20.7082 13.7912 20.785 13.5991 20.785C13.311 20.7754 13.023 20.785 12.7349 20.785Z" fill="#833CFA"/>
<path d="M17.2768 20.785C16.9887 20.785 16.7007 20.785 16.4126 20.785C16.2206 20.785 16.1341 20.7082 16.1341 20.5066C16.1341 19.9115 16.1341 19.3068 16.1341 18.7116C16.1341 18.5196 16.211 18.4333 16.4126 18.4333C17.008 18.4333 17.6129 18.4333 18.2083 18.4333C18.4003 18.4333 18.4867 18.51 18.4867 18.7116C18.4867 19.3068 18.4867 19.9115 18.4867 20.5066C18.4867 20.6986 18.4099 20.7946 18.2083 20.785C17.901 20.7754 17.5841 20.785 17.2768 20.785Z" fill="#833CFA"/>
</svg>
