<svg width="30" height="26" viewBox="0 0 30 26" fill="none" xmlns="http://www.w3.org/2000/svg">
<path d="M29.9951 7.09133C29.9855 7.70903 29.6496 8.08162 29.1218 8.30713C27.7975 8.866 26.4636 9.43468 25.1393 10.0034C22.0109 11.3368 18.8729 12.6605 15.7541 14.0037C15.2359 14.2292 14.7944 14.2292 14.2762 14.0037C9.8331 12.0918 5.38997 10.2093 0.937247 8.31693C0.169536 8.00318 -0.156741 7.36586 0.0831687 6.66972C0.217518 6.27753 0.495814 6.05202 0.85088 5.90495C4.45912 4.36559 8.06736 2.82624 11.6756 1.29669C12.5585 0.924103 13.4509 0.561325 14.3242 0.159328C14.7848 -0.0563777 15.2167 -0.0465729 15.6677 0.149523C18.0092 1.15942 20.3603 2.1497 22.7019 3.1498C24.8323 4.06164 26.9723 4.97349 29.1026 5.87553C29.6592 6.10104 29.9567 6.49324 29.9951 7.09133ZM25.7151 7.11094C25.6384 7.06192 25.6096 7.0325 25.5712 7.0227C22.1165 5.55197 18.6714 4.08125 15.2167 2.61053C15.0439 2.53209 14.9 2.57131 14.7369 2.63995C11.7908 3.89496 8.83508 5.14998 5.87939 6.40499C5.37078 6.6207 4.87177 6.8364 4.30558 7.08152C4.46872 7.16977 4.55509 7.21879 4.65105 7.25801C7.99059 8.67971 11.3397 10.1014 14.6697 11.5329C14.9288 11.6408 15.1399 11.6212 15.3894 11.5133C17.3471 10.6701 19.3047 9.84648 21.2624 9.01307C22.7306 8.38556 24.1989 7.75806 25.7151 7.11094Z" fill="#833CFA"/>
<path d="M0.00639759 18.9552C0.00639759 17.9943 0.802898 17.4354 1.68577 17.808C4.07527 18.8179 6.46477 19.8376 8.85427 20.8573C10.764 21.6711 12.6832 22.4849 14.5929 23.3085C14.8808 23.4359 15.1303 23.4261 15.4182 23.3085C19.631 21.5044 23.8438 19.7101 28.0566 17.9158C28.2582 17.8276 28.4405 17.7197 28.6612 17.7001C29.2946 17.6315 29.784 17.9453 29.9471 18.5139C30.1199 19.112 29.8608 19.7591 29.2946 20.0239C28.5173 20.3768 27.7304 20.7102 26.9435 21.0436C23.1817 22.6418 19.4199 24.2399 15.6677 25.8479C15.2167 26.044 14.8232 26.0538 14.3626 25.8577C9.88108 23.9164 5.38038 22.0143 0.889265 20.1121C0.37106 19.8866 0.00639759 19.5729 0.00639759 18.9552Z" fill="#833CFA"/>
<path d="M29.9951 13.1507C29.9759 13.5821 29.6784 13.9743 29.1314 14.2096C27.0682 15.0822 25.0146 15.9549 22.961 16.8373C20.5235 17.8766 18.086 18.8963 15.6581 19.9454C15.2071 20.1415 14.804 20.1415 14.353 19.9454C9.91947 18.0433 5.48594 16.1608 1.04281 14.2783C0.61097 14.092 0.227115 13.8763 0.0735723 13.3762C-0.0703735 12.9056 -0.0127952 12.4742 0.332675 12.1212C0.678145 11.7682 1.10039 11.68 1.56101 11.8663C2.43428 12.229 3.31715 12.6016 4.19042 12.9742C7.69311 14.4645 11.2054 15.9549 14.7081 17.455C14.948 17.5531 15.1399 17.5236 15.3606 17.4256C19.6694 15.5823 23.9878 13.7488 28.2966 11.9055C29.1794 11.5329 29.9951 12.0526 29.9951 13.1507Z" fill="#833CFA"/>
</svg>
