<svg width="31" height="31" viewBox="0 0 31 31" fill="none" xmlns="http://www.w3.org/2000/svg">
<path d="M0 14.983C0 11.5149 0 8.04685 0 4.56743C0 3.64941 0.135644 2.75406 0.666918 1.97204C1.526 0.702682 2.67898 0 4.25019 0C8.65863 0.0113336 13.0671 0 17.4755 0C18.572 0 19.1032 0.544012 19.1032 1.6547C19.1032 4.5561 19.1145 7.4575 19.0919 10.3702C19.0919 10.7782 19.205 10.9029 19.6119 10.9029C20.731 10.8802 21.8387 10.9029 22.9578 10.8916C23.4778 10.8802 23.896 11.0616 24.2577 11.4129C25.9872 13.147 27.7167 14.881 29.4461 16.615C29.8418 17.0117 30 17.4991 30 18.0431C30 20.5818 30.0113 23.1092 30 25.6479C29.9887 26.7926 29.4235 27.3819 28.2931 27.3253C27.4454 27.2799 26.9593 27.4953 26.4506 28.2773C24.5855 31.122 20.6858 30.17 19.5102 27.7899C19.3406 27.4386 19.1258 27.3366 18.7528 27.3479C17.1816 27.3706 15.6217 27.3593 14.0505 27.3479C13.8357 27.3479 13.6209 27.3366 13.4175 27.2913C12.728 27.1213 12.2193 26.4073 12.2984 25.7386C12.3775 25.0359 12.9427 24.5372 13.7114 24.5259C15.4521 24.5145 17.1816 24.5145 18.9224 24.5259C19.205 24.5259 19.3745 24.4465 19.5102 24.1745C20.2223 22.6898 21.4092 21.8512 23.0482 21.8172C24.7438 21.7831 25.9759 22.6218 26.8237 24.0612C26.8689 24.1292 26.8915 24.2199 26.9367 24.2879C26.9819 24.3559 26.9932 24.4805 27.095 24.4579C27.2306 24.4352 27.1967 24.3105 27.1967 24.2199C27.1967 22.3385 27.1967 20.4571 27.1967 18.5644C27.1967 18.3717 27.095 18.2471 26.9706 18.1224C25.5916 16.7397 24.2125 15.357 22.8335 13.9743C22.6639 13.8043 22.4717 13.7363 22.2231 13.7363C21.364 13.7476 20.4936 13.759 19.6345 13.725C19.2276 13.7136 19.0919 13.8383 19.1032 14.2577C19.1258 16.343 19.1145 18.4171 19.1032 20.5025C19.1032 21.2391 18.572 21.7831 17.8372 21.8398C16.9329 21.9078 16.3338 21.3185 16.3338 20.3551C16.3338 15.4703 16.3338 10.5856 16.3338 5.68946C16.3338 4.87344 16.3225 4.04609 16.3338 3.23007C16.3338 2.9354 16.2547 2.7994 15.9269 2.7994C12.0723 2.81073 8.21778 2.7994 4.35192 2.81073C3.3572 2.81073 2.81462 3.37741 2.81462 4.3861C2.81462 10.9256 2.81462 17.4764 2.81462 24.0159C2.81462 24.0272 2.81462 24.0499 2.81462 24.0612C2.84853 24.1972 2.72419 24.4239 2.93896 24.4579C3.10852 24.4919 3.11982 24.2765 3.17634 24.1519C3.48154 23.5285 3.88847 22.9958 4.44235 22.5765C5.97965 21.4091 8.16127 21.5451 9.61944 22.9052C11.1341 24.3105 11.3828 26.4073 10.2638 28.164C8.42125 31.0314 4.5893 30.272 3.30068 27.96C3.01809 27.4613 2.71289 27.2799 2.18161 27.3366C1.86511 27.3706 1.5373 27.3706 1.2095 27.2913C0.553881 27.1326 0.146948 26.7133 0.0452148 26.0446C0.0113037 25.8519 0 25.6479 0 25.4552C0 21.9418 0 18.4624 0 14.983ZM23.0821 27.1326C23.8282 27.1326 24.4386 26.5999 24.4612 25.9199C24.4725 25.2286 23.8734 24.6052 23.1839 24.6052C22.483 24.6052 21.9066 25.2059 21.8953 25.9539C21.8839 26.6679 22.3587 27.1326 23.0821 27.1326ZM6.78222 27.1326C7.57347 27.1326 8.11605 26.6566 8.13866 25.9312C8.14996 25.1719 7.60739 24.5939 6.86134 24.6052C6.18312 24.6052 5.61794 25.2059 5.60663 25.9426C5.59533 26.6566 6.05878 27.1326 6.78222 27.1326Z" fill="#833CFA"/>
</svg>
