<svg width="30" height="31" viewBox="0 0 30 31" fill="none" xmlns="http://www.w3.org/2000/svg">
<path d="M29.9904 17.8834C29.9904 20.979 29.9904 24.0845 29.9904 27.1801C29.9904 29.4026 28.4448 31 26.2944 31C25.6224 31 24.9504 31 24.2784 31C23.568 30.9901 23.0784 30.5238 23.04 29.8292C23.0016 29.1446 23.4144 28.6188 24.1248 28.5692C24.8544 28.5196 25.584 28.5394 26.3136 28.5295C27.1776 28.5196 27.5616 28.1326 27.6 27.2496C27.6864 25.1958 27.6384 23.132 27.6672 21.0782C27.6768 20.5425 27.6864 20.0166 27.7152 19.4808C27.7344 19.1832 27.6192 19.1038 27.3408 19.1038C25.5744 19.1137 23.8176 19.1137 22.0512 19.1038C21.4464 19.1038 21.0144 18.7764 20.8416 18.191C20.592 17.3774 21.0816 16.673 21.9168 16.673C23.7024 16.6631 25.488 16.6631 27.2832 16.673C27.6288 16.673 27.744 16.5738 27.7248 16.2166C27.6288 13.875 27.6768 11.5335 27.648 9.19196C27.648 8.89431 27.6192 8.59666 27.6 8.299C27.552 7.69378 27.1392 7.26714 26.544 7.2473C26.0064 7.22745 25.4688 7.23738 24.9216 7.23738C20.2752 7.23738 15.6384 7.23738 10.992 7.23738C10.7424 7.23738 10.4928 7.21753 10.2432 7.19769C9.6384 7.13816 9.2448 6.73137 9.2352 6.09637C9.216 4.44936 9.216 2.80235 9.2352 1.14541C9.2448 0.470733 9.7536 0.0143314 10.464 0.00440967C11.4144 -0.00551209 12.3552 0.00440967 13.3056 0.00440967C15.3408 0.00440967 17.3856 0.00440967 19.4208 0.00440967C20.352 0.00440967 20.7936 0.460811 20.7936 1.4133C20.7936 2.39555 20.8032 3.36789 20.784 4.35014C20.7744 4.68748 20.8896 4.76686 21.1968 4.76686C22.9248 4.75693 24.6528 4.75693 26.3808 4.76686C28.4352 4.77678 30 6.39403 30 8.51728C30 11.6327 29.9904 14.7581 29.9904 17.8834ZM14.9952 4.75693C16.0224 4.75693 17.0592 4.74701 18.0864 4.75693C18.336 4.75693 18.432 4.67756 18.4224 4.41959C18.4128 3.88382 18.4128 3.35797 18.4224 2.82219C18.432 2.56422 18.3264 2.47493 18.0864 2.47493C16.0224 2.47493 13.9584 2.47493 11.904 2.47493C11.6544 2.47493 11.5584 2.56422 11.568 2.82219C11.5776 3.33812 11.5872 3.86398 11.568 4.37991C11.5584 4.67756 11.6736 4.75693 11.9424 4.75693C12.96 4.74701 13.9776 4.75693 14.9952 4.75693Z" fill="#833CFA"/>
<path d="M0 17.8636C0 14.768 0 11.6625 0 8.56689C0 6.36426 1.5552 4.76686 3.6768 4.75693C4.3584 4.75693 5.04 4.75693 5.7312 4.75693C6.4224 4.76686 6.9216 5.22326 6.96 5.89794C6.9984 6.6123 6.5856 7.13816 5.8656 7.19769C5.0976 7.25722 4.3392 7.16792 3.5712 7.22745C2.8224 7.28698 2.4384 7.66401 2.4 8.44783C2.304 10.6306 2.3616 12.8134 2.3232 14.9962C2.3136 15.4328 2.304 15.8594 2.2752 16.2959C2.256 16.5936 2.3712 16.673 2.6496 16.673C4.4256 16.6631 6.2016 16.6631 7.9776 16.673C8.592 16.673 9.024 17.0202 9.1776 17.6354C9.3792 18.4291 8.8896 19.0939 8.0928 19.0939C6.4224 19.1038 4.7616 19.0939 3.0912 19.0939C2.9472 19.0939 2.8032 19.1038 2.6592 19.0939C2.352 19.0542 2.2656 19.203 2.2848 19.5007C2.3616 20.85 2.3232 22.1994 2.3424 23.5488C2.3616 24.7791 2.3232 25.9994 2.3904 27.2297C2.448 28.1425 2.8128 28.5196 3.7056 28.5196C8.6976 28.5196 13.6896 28.5196 18.672 28.5196C19.0464 28.5196 19.4112 28.4997 19.7856 28.5592C20.352 28.6585 20.7744 29.1843 20.7648 29.7995C20.7552 30.4146 20.304 30.9305 19.728 30.9802C19.5744 31 19.4208 30.9901 19.2576 30.9901C14.0736 30.9901 8.8896 30.9901 3.7152 30.9901C1.5552 31 0 29.4026 0 27.1603C0 24.0548 0 20.9592 0 17.8636Z" fill="#833CFA"/>
<path d="M13.824 19.8876C13.824 19.0939 13.824 19.0939 13.0272 19.0939C12.096 19.0939 11.5776 18.6077 11.5872 17.7445C11.5968 17.1393 12.0096 16.6928 12.6048 16.6631C12.8832 16.6531 13.1616 16.6432 13.4304 16.6631C13.7184 16.6829 13.8528 16.5837 13.824 16.2662C13.8048 15.9983 13.8144 15.7205 13.824 15.4526C13.8432 14.7779 14.3424 14.2917 14.9856 14.2818C15.6384 14.2818 16.1568 14.7878 16.176 15.4625C16.1856 15.7502 16.1856 16.0281 16.176 16.3158C16.176 16.5142 16.2528 16.6134 16.4544 16.6134C16.7136 16.6234 16.9824 16.6432 17.2416 16.6531C17.9328 16.673 18.4128 17.2187 18.4128 17.9727C18.4128 18.6474 17.9616 19.074 17.2416 19.084C16.992 19.084 16.7328 19.0939 16.4832 19.084C16.2432 19.074 16.1664 19.1832 16.176 19.4114C16.1856 19.6594 16.176 19.9075 16.176 20.1555C16.1664 20.8699 15.6384 21.3957 14.928 21.4057C14.2656 21.4057 13.8336 20.9294 13.824 20.1754C13.824 20.0861 13.824 19.9868 13.824 19.8876Z" fill="#833CFA"/>
</svg>
