<svg width="30" height="31" viewBox="0 0 30 31" fill="none" xmlns="http://www.w3.org/2000/svg">
<path d="M15.0287 30.9997C7.5431 31.0691 -0.0481855 24.5815 -0.000139337 15.4551C0.0479068 6.23939 7.49506 0.0393854 14.8845 -0.000294627C22.7353 -0.0399746 29.8749 6.02115 29.9902 15.4848C30.1152 25.1767 22.1011 31.089 15.0287 30.9997ZM9.63791 27.2896C9.60909 27.1011 9.58026 26.992 9.57065 26.8631C9.53221 26.3571 9.68596 25.9306 10.1088 25.6429C10.522 25.3651 10.9448 25.385 11.3676 25.6429C11.579 25.7719 11.7423 25.9603 11.8865 26.1587C12.1459 26.5159 12.3862 26.8928 12.6648 27.2301C13.3759 28.0931 14.2407 28.6487 15.3938 28.4999C16.2683 28.3907 16.9409 27.8848 17.479 27.2202C18.8435 25.5437 19.6123 23.5597 20.112 21.4567C20.6501 19.1949 20.8231 16.8935 20.727 14.5623C20.6693 13.1735 20.5348 11.7946 20.2849 10.4355C20.2465 10.1975 20.1408 10.1082 19.9198 10.0586C18.8436 9.85027 17.7577 9.73123 16.6719 9.64195C15.4803 9.55267 14.2984 9.63203 13.1068 9.64195C12.4246 9.65187 11.9537 9.21539 11.9153 8.57059C11.8769 7.92579 12.3765 7.30083 13.0011 7.21155C13.3759 7.16195 13.7411 7.15203 14.1158 7.14211C15.7109 7.12227 17.3061 7.15203 18.8916 7.36035C20.7174 7.60835 22.5047 8.02499 24.2055 8.75907C24.9358 9.07651 25.6277 9.45347 26.3195 9.87011C26.3291 9.81059 26.3387 9.79075 26.3387 9.77091C26.3195 9.72131 26.3003 9.68163 26.2811 9.63203C25.0319 7.24131 23.2638 5.38627 20.9672 4.06691C20.4771 3.78915 20.4771 3.79907 20.4483 4.37443C20.4195 4.84067 20.2177 5.20771 19.8045 5.41603C19.3913 5.62435 19.0165 5.53507 18.6514 5.27715C18.44 5.12835 18.2862 4.92003 18.1517 4.70179C17.7961 4.15619 17.4022 3.64035 16.9025 3.21379C16.0953 2.51939 15.2017 2.22179 14.1639 2.58883C13.5489 2.80707 13.0396 3.20387 12.6168 3.69987C11.2138 5.38627 10.4451 7.40003 9.92619 9.52291C9.38807 11.7648 9.22472 14.0365 9.3112 16.3379C9.36885 17.7367 9.50338 19.1255 9.75322 20.5043C9.80127 20.7424 9.87814 20.8714 10.128 20.9111C11.1946 21.1095 12.2612 21.2384 13.3375 21.3178C14.5098 21.4071 15.6917 21.3475 16.864 21.3178C17.5175 21.2979 18.046 21.8237 18.1229 22.4983C18.1901 23.0935 17.7769 23.5994 17.1235 23.7383C16.9601 23.768 16.7872 23.7978 16.6238 23.8077C14.6828 23.8275 12.7321 23.8771 10.8006 23.5895C8.3695 23.2323 6.03445 22.5578 3.92042 21.2186C3.85316 21.1789 3.7955 21.0896 3.67058 21.1591C5.02549 23.8771 6.97616 25.9107 9.63791 27.2896ZM2.40217 15.4947C2.37334 16.328 2.73849 17.0026 3.267 17.5879C4.29518 18.7187 5.58282 19.4131 6.94733 19.9885C7.27404 20.1274 7.21639 19.9091 7.18756 19.7207C6.96655 18.2723 6.85124 16.824 6.84163 15.3658C6.84163 13.9968 6.92811 12.6477 7.1203 11.2986C7.1299 11.1994 7.3317 10.8423 6.93772 10.9911C5.48673 11.5367 4.17026 12.3104 3.1613 13.5405C2.70966 14.1059 2.38295 14.7309 2.40217 15.4947ZM27.636 15.5146C27.6648 14.6019 27.2516 13.8976 26.6558 13.2826C25.6661 12.2509 24.4553 11.5763 23.1677 11.0407C23.0716 11.001 22.9659 10.9018 22.8698 10.9911C22.7833 11.0704 22.841 11.1994 22.8602 11.3085C23.062 12.6279 23.1869 13.9571 23.1965 15.2963C23.2061 16.7843 23.1581 18.2624 22.9083 19.7405C22.8698 19.9786 22.9083 20.1075 23.1869 19.9885C24.5514 19.4528 25.791 18.7287 26.7712 17.5879C27.2708 16.9927 27.6552 16.3379 27.636 15.5146ZM9.66674 3.72963C7.38935 4.59267 3.87238 8.25315 3.72824 9.89987C4.96783 9.13603 6.27468 8.59043 7.62958 8.17379C7.78333 8.12419 7.86021 8.00515 7.89864 7.85635C8.33106 6.43779 8.88839 5.06883 9.66674 3.72963ZM26.3772 21.0896C25.1472 21.8336 23.85 22.3792 22.5047 22.7959C22.274 22.8653 22.178 23.024 22.1203 23.2323C21.8993 23.9962 21.611 24.7303 21.3035 25.4544C21.0441 26.0595 20.7462 26.6448 20.4483 27.2301C23.1485 25.9306 25.1184 23.8771 26.3772 21.0896Z" fill="#833CFA"/>
</svg>
