<svg width="31" height="21" viewBox="0 0 31 21" fill="none" xmlns="http://www.w3.org/2000/svg">
<path d="M23.9095 15.045C23.9095 15.761 23.8896 16.4673 23.9194 17.1833C23.9392 17.8122 23.6715 18.2766 23.1458 18.6153C21.5391 19.6602 19.7837 20.3568 17.8993 20.7439C14.2198 21.4792 10.9072 20.589 7.84264 18.6153C7.35667 18.3056 7.07897 17.8606 7.0988 17.2704C7.10872 16.864 7.04922 16.4479 7.13848 16.0416C7.26741 15.432 7.81289 15.0547 8.4873 15.1127C9.09228 15.1611 9.58817 15.6062 9.55842 16.2061C9.52867 16.7576 9.79645 16.9898 10.2427 17.2123C12.0577 18.1315 13.9718 18.654 16.0248 18.5959C17.9191 18.5378 19.625 17.8993 21.2317 16.9607C21.3705 16.8737 21.4399 16.7672 21.4399 16.6027C21.4399 15.7126 21.4399 14.8128 21.4399 13.9226C21.4399 13.5356 21.2317 13.7388 21.0928 13.8065C19.506 14.5709 17.9092 15.3353 16.3422 16.1287C15.767 16.4189 15.2711 16.4092 14.6958 16.1287C10.1039 13.8743 5.50204 11.6392 0.900179 9.39452C0.186098 9.0462 -0.111436 8.5334 0.0373307 7.88514C0.136509 7.45942 0.424125 7.19818 0.810919 7.01435C5.04582 4.95347 9.28072 2.89259 13.5156 0.822041C13.952 0.60918 14.3884 0.41567 14.8049 0.183459C15.3008 -0.0874546 15.767 -0.0390772 16.2529 0.20281C18.534 1.32517 20.8449 2.43785 23.1458 3.56988C25.4963 4.71158 27.8468 5.86297 30.1974 7.00467C30.6437 7.21753 30.9412 7.52715 30.9908 8.0206C31.0503 8.60113 30.8222 9.03652 30.2866 9.30744C29.6023 9.64608 28.918 9.9944 28.2237 10.3137C27.9659 10.4298 27.8667 10.5846 27.8667 10.8749C27.8766 12.2972 27.8766 13.7291 27.8667 15.1514C27.8667 15.7126 27.3807 16.2157 26.7757 16.3125C26.2104 16.4092 25.7046 16.1287 25.5062 15.6062C25.4071 15.3546 25.3972 15.0837 25.3972 14.8225C25.3972 13.9323 25.3972 13.0325 25.3972 12.1424C25.3972 11.7553 25.3773 11.7747 25.0004 11.9005C24.1277 12.1714 23.7607 12.6745 23.9095 13.584C23.9789 14.0387 23.9095 14.5515 23.9095 15.045ZM22.4317 10.4298C22.4317 10.4104 22.4218 10.3814 22.4218 10.3621C21.2317 10.1976 20.0515 10.0234 18.8613 9.85894C17.7009 9.69446 16.5306 9.52997 15.3703 9.35581C14.9735 9.29776 14.6363 9.13328 14.4479 8.76561C14.2099 8.31086 14.2495 7.87547 14.5372 7.45942C14.8644 7.00467 15.3306 6.91759 15.8562 6.995C19.0398 7.44007 22.2235 7.89482 25.4071 8.33021C25.8137 8.38827 26.2302 8.55275 26.6468 8.36892C26.7559 8.32054 26.9245 8.30119 26.9344 8.17541C26.9443 8.03027 26.7658 8.0206 26.6666 7.97222C23.0466 6.20161 19.4167 4.44067 15.7967 2.66038C15.5884 2.55395 15.4198 2.55395 15.2116 2.66038C11.5717 4.44067 7.94182 6.21128 4.30199 7.9819C4.20281 8.03027 4.05404 8.03995 4.05404 8.16573C4.05404 8.29151 4.20281 8.31086 4.30199 8.34957C7.92198 10.1202 11.5519 11.8811 15.1719 13.6614C15.4099 13.7775 15.5984 13.7775 15.8265 13.6614C17.8398 12.6648 19.8531 11.6876 21.8763 10.7007C22.0648 10.6136 22.2532 10.5265 22.4317 10.4298Z" fill="#833CFA"/>
</svg>
