<svg width="31" height="30" viewBox="0 0 31 30" fill="none" xmlns="http://www.w3.org/2000/svg">
<path d="M20.2484 4.6067C23.3636 4.6067 26.4688 4.6067 29.5839 4.6067C30.5859 4.6067 31.1315 5.23052 30.9728 6.19985C30.2089 10.6434 29.445 15.0869 28.6811 19.5209C28.5224 20.4614 28.066 20.8165 27.0045 20.8165C21.0818 20.8165 15.1492 20.8165 9.22647 20.8165C8.92884 20.8165 8.63122 20.8069 8.3336 20.8261C7.71851 20.8549 7.27207 21.3252 7.25223 21.9394C7.24231 22.5248 7.63914 22.9567 8.26415 23.0239C8.41296 23.0335 8.56178 23.0335 8.71059 23.0335C11.7067 23.0335 14.7127 23.0335 17.7087 23.0335C18.3337 23.0335 18.7901 23.3406 18.9984 23.8877C19.2465 24.5595 18.8695 25.2313 18.1552 25.3752C17.9667 25.4136 17.7583 25.4328 17.5698 25.4328C16.6075 25.4424 15.6353 25.4328 14.673 25.4328C14.2067 25.4328 14.2067 25.4328 14.296 25.8647C14.6631 27.669 13.3833 29.5788 11.5082 29.9339C9.07765 30.3946 6.54786 28.3888 7.30184 25.6919C7.40104 25.356 7.31176 25.2505 6.99429 25.1161C5.41689 24.4731 4.48434 22.8416 4.79188 21.3348C5.13911 19.6553 6.65699 18.4364 8.41296 18.4268C8.47249 18.4268 8.54193 18.4172 8.60146 18.4268C8.909 18.4556 8.91892 18.3212 8.82964 18.0909C8.44273 17.1216 8.06574 16.1426 7.68875 15.1637C6.0915 11.0465 4.49426 6.92924 2.90693 2.80241C2.76804 2.44731 2.58947 2.31295 2.21248 2.35134C1.88509 2.38013 1.54779 2.37053 1.21048 2.35134C0.486264 2.32254 -0.00977462 1.83308 0.000146157 1.19006C0.0100669 0.508656 0.535868 0.00959729 1.26008 0C1.9843 0 2.6986 0 3.42281 0C4.16687 0 4.53394 0.239932 4.8018 0.92134C5.45657 2.59127 6.10142 4.2612 6.74627 5.94072C8.31376 9.99078 9.89116 14.0408 11.4487 18.1005C11.5479 18.3596 11.6868 18.4364 11.9646 18.4364C16.6274 18.4268 21.2901 18.4268 25.9529 18.4364C26.2604 18.4364 26.3795 18.35 26.4291 18.0429C27.0243 14.5111 27.6493 10.9793 28.2545 7.4475C28.3339 6.96763 28.3339 6.96763 27.8081 6.96763C22.1632 6.96763 16.5282 6.96763 10.8832 6.96763C10.1293 6.96763 9.72251 6.66052 9.58361 5.99831C9.42488 5.24012 9.92092 4.6163 10.7245 4.6163C12.1531 4.6067 13.5718 4.6163 15.0004 4.6163C16.7563 4.6067 18.5024 4.6067 20.2484 4.6067ZM10.6947 27.5826C11.3793 27.5826 11.8555 27.1603 11.8555 26.5461C11.8555 25.9127 11.3892 25.4424 10.7543 25.4424C10.1392 25.4424 9.64314 25.9511 9.64314 26.5941C9.63322 27.1987 10.04 27.5826 10.6947 27.5826Z" fill="#833CFA"/>
<path d="M25.1098 29.9915C23.0859 29.9915 21.449 28.4944 21.4391 26.6421C21.4292 24.6458 23.0363 23.0431 25.0403 23.0431C26.965 23.0431 28.6316 24.6458 28.6217 26.4981C28.6217 28.4272 27.0443 29.9915 25.1098 29.9915ZM24.961 27.5826C25.6356 27.5826 26.1812 27.1219 26.1812 26.5269C26.1812 25.9607 25.6554 25.4424 25.0701 25.4328C24.455 25.4232 23.9391 25.9319 23.9292 26.5653C23.9193 27.1795 24.326 27.5826 24.961 27.5826Z" fill="#833CFA"/>
</svg>
