<svg width="26" height="30" viewBox="0 0 26 30" fill="none" xmlns="http://www.w3.org/2000/svg">
<path d="M12.9776 16.1462C16.8105 16.1462 20.6435 16.1462 24.4765 16.1462C24.6632 16.1462 24.8499 16.1462 25.0268 16.175C25.6755 16.2902 25.99 16.6645 25.9998 17.2885C26.0096 17.874 25.6165 18.3636 25.0367 18.4884C24.7615 18.5556 24.4765 18.5364 24.1914 18.5364C23.6411 18.5364 23.6411 18.5364 23.6411 19.0643C23.6411 22.2897 23.6411 25.515 23.6411 28.7403C23.6411 29.5659 23.1398 30.0362 22.3044 29.9978C21.7246 29.969 21.2627 29.5275 21.243 28.9611C21.2234 28.5195 21.2332 28.078 21.2332 27.6268C21.2332 24.7567 21.2332 21.8961 21.2332 19.0259C21.2332 18.5364 21.2332 18.5364 20.7516 18.5364C15.582 18.5364 10.4124 18.5364 5.24282 18.5268C4.86935 18.5268 4.74158 18.6228 4.76124 18.9971C4.79073 19.3907 4.77107 19.7843 4.77107 20.1874C4.77107 20.7442 4.77107 20.7442 5.32144 20.7442C8.53524 20.7442 11.7589 20.7442 14.9727 20.7442C15.8769 20.7442 16.7909 20.7346 17.6951 20.7538C18.4813 20.773 18.8843 21.1474 18.9137 21.8577C18.9432 22.5104 18.4616 23.0576 17.7737 23.1344C17.6263 23.1536 17.4788 23.144 17.3314 23.144C13.4002 23.144 9.46891 23.144 5.53766 23.144C4.63348 23.144 4.76124 23.0384 4.76124 23.9119C4.75141 25.4958 4.76124 27.0797 4.76124 28.6635C4.76124 29.2779 4.45657 29.7002 3.88654 29.9018C3.14943 30.161 2.48112 29.7866 2.34352 29.0379C2.31404 28.8651 2.30421 28.6827 2.30421 28.5003C2.30421 25.3422 2.30421 22.1937 2.30421 19.0355C2.30421 18.5364 2.30421 18.5364 1.79315 18.5364C1.4983 18.5364 1.20346 18.5556 0.908615 18.4884C0.318928 18.354 -0.0447129 17.8452 0.00442776 17.1829C0.0437403 16.6357 0.476178 16.1942 1.04621 16.1366C1.19363 16.1174 1.34105 16.127 1.48847 16.127C5.31162 16.1462 9.14459 16.1462 12.9776 16.1462Z" fill="#833CFA"/>
<path d="M10.6581 12.0857C10.6581 12.2297 10.6385 12.3737 10.6581 12.5177C10.7662 13.3432 9.87187 13.996 8.94802 13.7848C8.5549 13.6984 8.30919 13.4104 8.26005 13.0168C8.04383 11.289 8.28954 9.68592 9.59668 8.38043C9.80307 8.16925 9.8129 8.07325 9.59668 7.85247C8.30919 6.52778 7.8571 4.98231 8.50576 3.24486C9.17407 1.44981 10.5009 0.307506 12.4567 0.0387286C14.8056 -0.287644 17.1742 1.48821 17.6557 3.87841C17.9604 5.41428 17.4592 6.71977 16.3879 7.83327C16.1717 8.05406 16.1422 8.15965 16.3781 8.39963C17.2724 9.29235 17.754 10.3675 17.7344 11.6346C17.7344 11.9705 17.7344 12.3065 17.7344 12.6425C17.7245 13.2952 17.184 13.804 16.4764 13.852C15.8867 13.8904 15.4444 13.4776 15.3166 12.8249C15.2085 12.2873 15.2773 11.7497 15.2184 11.2122C15.0808 9.83951 13.7835 9.21556 12.5549 9.46514C11.3068 9.71472 10.6581 10.5115 10.6581 11.7593C10.6581 11.8649 10.6581 11.9705 10.6581 12.0857ZM15.2675 4.65594C15.2773 3.41765 14.265 2.39053 13.0169 2.37133C11.7982 2.36173 10.7073 3.45604 10.6974 4.70394C10.6876 5.91344 11.6802 6.83496 13.007 6.84456C14.3142 6.86376 15.2577 5.95183 15.2675 4.65594Z" fill="#833CFA"/>
</svg>
