<svg width="31" height="29" viewBox="0 0 31 29" fill="none" xmlns="http://www.w3.org/2000/svg">
<path d="M15.9952 0C20.5168 0 25.0384 0 29.56 0C30.5392 0 30.9904 0.426744 30.9904 1.373C30.9904 2.80166 31.0096 4.22105 30.9904 5.64971C30.952 8.26583 28.9744 10.5851 26.3152 11.0489C24.1648 11.4293 22.312 10.7799 20.8144 9.23992C20.6416 9.06366 20.5552 8.98017 20.344 9.22137C17.8384 12.0787 13.624 11.5406 11.5504 9.17498C11.368 8.96161 11.2912 9.0451 11.1568 9.19354C9.92802 10.548 8.40162 11.2345 6.52002 11.1603C6.43362 11.1603 6.34722 11.1603 6.27042 11.151C5.65602 11.0861 5.65602 11.0861 5.65602 11.6891C5.65602 16.2255 5.65602 20.7527 5.65602 25.2892C5.65602 25.5118 5.64642 25.7345 5.74242 25.9386C5.93442 26.3653 6.25122 26.6344 6.75042 26.6529C7.79682 26.6807 8.83362 26.6251 9.88002 26.6993C10.072 26.7178 10.168 26.6344 10.168 26.4395C10.168 26.3468 10.168 26.254 10.168 26.1612C10.168 22.5339 10.168 18.9066 10.168 15.2793C10.168 14.9639 10.1776 14.6577 10.2064 14.3423C10.264 13.7764 10.7248 13.3589 11.3104 13.3589C14.4016 13.3496 17.5024 13.3496 20.5936 13.3589C21.2752 13.3589 21.7552 13.8692 21.7648 14.5649C21.7744 16.1606 21.7648 17.7655 21.7648 19.3612C21.7648 20.6785 21.7744 22.0051 21.7648 23.3225C21.7552 24.0924 20.9776 24.6583 20.2288 24.4543C19.7968 24.3337 19.5376 24.0553 19.432 23.6379C19.3744 23.4152 19.3744 23.1833 19.3744 22.9514C19.3744 20.6692 19.3744 18.3871 19.3744 16.0956C19.3744 15.6225 19.3744 15.6225 18.8752 15.6225C16.9168 15.6225 14.968 15.6318 13.0096 15.6132C12.664 15.6132 12.5584 15.6967 12.5584 16.04C12.568 19.4447 12.568 22.8586 12.5584 26.2633C12.5584 26.6251 12.664 26.7086 13.0288 26.7086C15.7744 26.69 18.52 26.7179 21.2752 26.69C22.5328 26.6715 23.7904 26.6715 25.048 26.6529C25.864 26.6436 26.2864 26.2354 26.2864 25.4469C26.2864 21.9495 26.2864 18.4427 26.2864 14.9453C26.2864 14.7412 26.2864 14.5278 26.3152 14.3237C26.4112 13.73 26.9008 13.3496 27.5344 13.3589C28.12 13.3682 28.5904 13.7764 28.6768 14.3701C28.696 14.5 28.6864 14.6206 28.6864 14.7505C28.6864 18.285 28.6576 21.8196 28.696 25.3541C28.7248 27.3765 26.9968 29.0093 24.9232 29C18.9232 28.9536 12.9232 28.9814 6.93282 28.9814C5.14722 28.9814 3.69762 27.8218 3.34242 26.1427C3.28482 25.8922 3.30402 25.6324 3.30402 25.382C3.30402 20.4187 3.30402 15.4555 3.30402 10.4923C3.30402 10.2047 3.22722 10.0099 2.98722 9.80582C1.72002 8.72041 1.02882 7.34741 1.00962 5.68682C0.99042 4.2396 1.00002 2.79239 1.00962 1.33589C1.00962 0.426743 1.45122 0 2.39202 0C6.92322 0 11.464 0 15.9952 0ZM28.5904 4.35093C28.5904 3.70154 28.5808 3.17274 28.5904 2.63468C28.6 2.37492 28.5136 2.2636 28.2256 2.2636C26.2 2.27287 24.1744 2.27287 22.1488 2.2636C21.8608 2.2636 21.7744 2.35637 21.7744 2.6254C21.784 3.59949 21.7744 4.57358 21.7744 5.53839C21.7744 7.22681 23.1664 8.72041 24.9616 8.85029C26.7472 8.98944 28.216 7.65355 28.504 6.23416C28.6576 5.58477 28.552 4.90755 28.5904 4.35093ZM6.75042 2.28215C5.73282 2.28215 4.71522 2.28215 3.69762 2.28215C3.51522 2.28215 3.35202 2.28215 3.36162 2.52335C3.39042 3.68298 3.29442 4.84261 3.41922 5.99296C3.56322 7.38452 4.97442 9.05438 7.04802 8.85029C8.60322 8.69258 10.2352 7.32885 10.1872 5.56622C10.1584 4.60141 10.1776 3.64587 10.1872 2.68106C10.1872 2.3842 10.1008 2.27287 9.77442 2.27287C8.76642 2.29143 7.75842 2.27287 6.75042 2.28215ZM15.9856 2.27287C14.9872 2.27287 13.9984 2.29143 13 2.2636C12.6448 2.25432 12.5488 2.37492 12.568 2.69962C12.6064 3.39539 12.6544 4.09117 12.6064 4.78695C12.5776 5.22297 12.5584 5.65899 12.6352 6.10429C12.8752 7.5144 14.248 8.9245 15.9856 8.86884C17.8768 8.81318 19.3264 7.41235 19.3744 5.68682C19.4032 4.66635 19.3744 3.64587 19.384 2.6254C19.384 2.35637 19.288 2.2636 19.0096 2.2636C18.0016 2.28215 16.9936 2.28215 15.9856 2.27287Z" fill="#833CFA"/>
</svg>
