<svg width="31" height="31" viewBox="0 0 31 31" fill="none" xmlns="http://www.w3.org/2000/svg">
<path d="M15.4911 30.9802C10.7611 30.9802 6.02121 30.9802 1.2912 30.9802C0.487992 30.9802 -0.0375644 30.4448 0.0021002 29.6814C0.0318487 29.0667 0.507824 28.5809 1.12263 28.5511C1.45977 28.5412 1.79692 28.5412 2.12416 28.5511C2.35223 28.561 2.46131 28.4817 2.47122 28.2438C2.55055 27.1829 2.65963 26.1221 2.74887 25.0612C2.89762 23.3758 3.03644 21.6804 3.17527 19.995C3.28435 18.6962 3.38351 17.4073 3.49259 16.1085C3.63141 14.433 3.78015 12.7574 3.91898 11.0819C4.02806 9.77317 4.12722 8.46446 4.2363 7.16567C4.37512 5.50004 4.51395 3.83441 4.66269 2.16879C4.69244 1.81187 4.72219 1.45495 4.76185 1.09803C4.84118 0.443672 5.30724 0.00743584 5.96171 0.00743584C7.55821 -0.00247861 9.15471 -0.00247861 10.7611 0.00743584C11.3958 0.00743584 11.8817 0.443672 11.9511 1.06828C12.0899 2.49596 12.2089 3.92364 12.3279 5.36124C12.4667 7.02686 12.6154 8.69249 12.7543 10.3581C12.8634 11.6767 12.9724 12.9954 13.0815 14.314C13.2203 15.9697 13.3592 17.6155 13.498 19.2712C13.6071 20.5898 13.7161 21.9085 13.8252 23.2271C13.964 24.8927 14.1128 26.5583 14.2417 28.224C14.2615 28.5016 14.3805 28.571 14.6383 28.571C18.3668 28.561 22.0953 28.561 25.8337 28.571C26.1113 28.571 26.2105 28.4817 26.2006 28.2041C26.1807 27.6886 26.1807 27.1631 26.2006 26.6476C26.2204 26.3105 26.0816 26.2311 25.7742 26.2311C23.1563 26.2411 20.5484 26.2411 17.9305 26.2311C17.1868 26.2311 16.6712 25.7156 16.6811 25.0018C16.691 24.2978 17.1868 23.8021 17.9206 23.8021C20.5186 23.8021 23.1266 23.7922 25.7246 23.812C26.1014 23.812 26.2303 23.7129 26.2006 23.3361C26.1708 22.8503 26.1708 22.3645 26.2006 21.8886C26.2204 21.5515 26.0816 21.4722 25.7742 21.4722C23.1563 21.4821 20.5484 21.4821 17.9305 21.4722C17.1372 21.4722 16.6017 20.8773 16.691 20.0941C16.7604 19.4695 17.2661 19.0432 17.9603 19.0432C20.5385 19.0432 23.1167 19.0432 25.6949 19.0432C26.2006 19.0432 26.2006 19.0432 26.2006 18.5375C26.2006 17.9427 26.1807 17.3478 26.2105 16.7529C26.2204 16.4357 26.1014 16.2969 25.8138 16.1878C22.3531 14.8097 18.8924 13.4217 15.4217 12.0337C15.3027 11.9841 15.1936 11.9444 15.0747 11.8949C14.4202 11.6073 14.1227 10.953 14.3706 10.3085C14.6086 9.67402 15.2928 9.35676 15.9572 9.61454C17.048 10.0309 18.1189 10.4672 19.1998 10.9034C21.9961 12.0237 24.7925 13.1342 27.5888 14.2545C28.4317 14.5916 28.6201 14.8791 28.6201 15.8012C28.6201 19.8859 28.6201 23.9806 28.6201 28.0653C28.6201 28.571 28.6201 28.571 29.1358 28.571C29.3043 28.571 29.4828 28.571 29.6514 28.571C30.4645 28.571 30.9901 29.0469 31 29.7805C31 30.5241 30.4844 31 29.6712 31C26.8451 31 24.019 31 21.1929 31C19.289 30.9802 17.395 30.9802 15.4911 30.9802ZM8.34159 28.5511C9.35303 28.5511 10.3744 28.5412 11.3858 28.561C11.6932 28.561 11.7825 28.452 11.7527 28.1744C11.7131 27.8075 11.6932 27.4308 11.6635 27.064C11.5247 25.3884 11.3759 23.7129 11.2371 22.0373C11.128 20.7385 11.0289 19.4497 10.9198 18.1509C10.781 16.4456 10.6322 14.7502 10.4934 13.0449C10.4041 11.994 10.305 10.953 10.2257 9.90205C10.2058 9.64428 10.0967 9.56496 9.84884 9.57488C9.01588 9.58479 8.19284 9.57488 7.35989 9.57488C6.48726 9.57488 6.5071 9.57488 6.4476 10.4573C6.35836 11.766 6.23936 13.0747 6.13028 14.3834C5.99146 16.0094 5.84271 17.6353 5.7138 19.2613C5.60473 20.6097 5.50557 21.9481 5.38657 23.2965C5.24775 24.9224 5.10892 26.5484 4.96018 28.1744C4.93043 28.4619 5.01967 28.571 5.32708 28.561C6.32861 28.5412 7.33014 28.5511 8.34159 28.5511ZM8.34159 7.13592C8.75806 7.13592 9.18446 7.11609 9.60094 7.14584C9.90834 7.16567 9.99758 7.03678 9.96784 6.74926C9.90834 6.14448 9.86867 5.5397 9.81909 4.93492C9.74968 4.19133 9.68027 3.45766 9.62077 2.71408C9.60094 2.52571 9.54144 2.42656 9.32329 2.42656C8.67873 2.43648 8.03419 2.43648 7.38964 2.42656C7.21114 2.42656 7.1219 2.49596 7.10207 2.68434C7.07232 3.05117 7.03265 3.42792 7.0029 3.79475C6.91366 4.77628 6.83433 5.76773 6.74509 6.74926C6.71534 7.03678 6.8145 7.15575 7.11198 7.13592C7.51854 7.12601 7.93502 7.13592 8.34159 7.13592Z" fill="#833CFA"/>
</svg>
