<svg width="40" height="35" viewBox="0 0 40 35" xmlns="http://www.w3.org/2000/svg">
<path d="M7.76148 23.3643C10.0062 23.3643 11.804 25.0951 11.9104 27.3386C11.9211 27.6164 12.0168 27.7446 12.2721 27.8194C13.187 28.0651 14.0913 28.3216 14.9955 28.5886C15.2083 28.6527 15.3253 28.5993 15.4636 28.4177C17.0062 26.3023 19.5062 25.9498 21.5806 27.5523C21.7615 27.6912 21.8891 27.6912 22.0806 27.5844C23.0594 27.0395 24.0274 26.4946 25.0168 25.9711C25.3359 25.8002 25.4317 25.6186 25.3466 25.2553C24.8147 22.8621 26.3891 20.5545 28.804 20.2126C30.3998 19.9882 31.7615 20.5224 32.7402 21.8258C33.7083 23.1292 33.8891 24.5609 33.2296 26.0566C33.0594 26.4519 33.1232 26.6656 33.4104 26.9433C34.4317 27.9369 35.4317 28.9626 36.4317 29.9668C36.7296 30.2553 36.8891 30.5972 36.7721 31.0139C36.5594 31.8258 35.6764 32.0715 35.0594 31.4733C34.3253 30.7574 33.6125 30.0203 32.8785 29.2938C32.5168 28.9305 32.1551 28.578 31.8147 28.2147C31.6551 28.0438 31.5168 28.0224 31.2934 28.1292C29.687 28.8985 28.1764 28.7062 26.7721 27.6164C26.5806 27.4668 26.4423 27.4562 26.2402 27.563C25.2083 28.1399 24.1657 28.7168 23.1232 29.2724C22.8998 29.3899 22.8679 29.5181 22.9211 29.7532C23.5274 32.4562 21.7508 34.8707 18.9955 34.9882C16.7828 35.0844 15.0381 33.4284 14.7508 31.4198C14.6125 30.4476 14.8253 30.6827 13.8891 30.3942C13.1657 30.1698 12.4317 29.9775 11.7083 29.7532C11.4636 29.6784 11.304 29.6998 11.1445 29.9348C9.83595 31.7724 7.59127 32.2852 5.63382 31.1741C5.33595 31.0032 5.17638 31.0566 4.96361 31.281C3.92106 32.3707 2.86786 33.4391 1.81467 34.5181C1.58063 34.7639 1.31467 34.9562 0.95297 34.9455C0.20829 34.9134 -0.249157 34.1015 0.14446 33.4604C0.250843 33.2895 0.389141 33.1399 0.527439 33.001C1.56999 31.9433 2.62318 30.875 3.67637 29.828C3.91042 29.5929 3.97425 29.4006 3.84659 29.0694C2.77212 26.3023 4.80403 23.3643 7.76148 23.3643ZM31.6445 24.3151C31.6338 23.1399 30.6338 22.1463 29.4742 22.1357C28.2296 22.1357 27.2189 23.1399 27.2402 24.3686C27.2508 25.5651 28.2615 26.5801 29.4317 26.5587C30.687 26.548 31.6551 25.5651 31.6445 24.3151ZM18.9211 32.9797C20.1232 32.969 21.1338 31.9327 21.1125 30.7361C21.0913 29.5288 20.1019 28.5459 18.9104 28.5459C17.7083 28.5352 16.6977 29.5609 16.6977 30.7681C16.7083 31.9861 17.7189 32.9904 18.9211 32.9797ZM9.95297 27.5416C9.93169 26.3237 8.92106 25.3194 7.71893 25.3408C6.50616 25.3621 5.50616 26.3985 5.53808 27.5951C5.56999 28.8023 6.54872 29.7745 7.75084 29.7745C8.93169 29.7745 9.96361 28.7275 9.95297 27.5416Z" fill="white"/>
<path d="M25.2934 8.94121C25.2934 6.36642 25.2934 3.79164 25.2934 1.21685C25.2934 0.319414 25.6125 -0.00109863 26.4849 -0.00109863C28.4636 -0.00109863 30.4423 -0.00109863 32.4211 -0.00109863C33.2615 -0.00109863 33.5806 0.319414 33.5806 1.15275C33.5806 6.36642 33.5806 11.5908 33.5806 16.8045C33.5806 17.4882 33.2934 17.8622 32.7508 17.9263C32.1125 18.001 31.6764 17.5844 31.6764 16.8899C31.6657 15.031 31.6764 13.1827 31.6764 11.3237C31.6764 8.37497 31.6764 5.42625 31.6764 2.47753C31.6764 1.92198 31.6657 1.91129 31.1232 1.91129C29.9955 1.91129 28.8679 1.91129 27.7296 1.91129C27.2189 1.91129 27.1976 1.93266 27.1976 2.45617C27.1976 7.23181 27.1976 12.0181 27.1976 16.7938C27.1976 17.4989 26.8998 17.8835 26.3359 17.9263C25.7402 17.9797 25.304 17.5951 25.2934 16.9861C25.2828 16.2275 25.2828 15.469 25.2828 14.6998C25.2934 12.7874 25.2934 10.8643 25.2934 8.94121Z" fill="white"/>
<path d="M3.59127 12.2104C3.59127 9.6036 3.59127 7.00745 3.59127 4.40061C3.59127 3.51386 3.91042 3.20403 4.7934 3.20403C6.77212 3.20403 8.75084 3.20403 10.7296 3.20403C11.5381 3.20403 11.8785 3.53523 11.8785 4.33651C11.8785 9.57155 11.8785 14.7959 11.8785 20.031C11.8785 20.4797 11.7721 20.8536 11.3359 21.0566C10.9636 21.2275 10.6125 21.1741 10.2934 20.9177C10.0168 20.6933 9.96361 20.3942 9.96361 20.0523C9.96361 17.4669 9.96361 14.8707 9.96361 12.2852C9.96361 10.0844 9.96361 7.88352 9.96361 5.68266C9.96361 5.14847 9.95297 5.12711 9.44233 5.12711C8.30403 5.12711 7.1551 5.12711 6.0168 5.12711C5.5168 5.12711 5.50616 5.14847 5.49552 5.65061C5.49552 10.4369 5.49552 15.2339 5.49552 20.0203C5.49552 20.6933 5.20829 21.078 4.66574 21.1421C4.05935 21.2062 3.59127 20.7895 3.59127 20.1485C3.58063 18.7382 3.59127 17.3173 3.59127 15.907C3.59127 14.6677 3.59127 13.4391 3.59127 12.2104Z" fill="white"/>
<path d="M14.7615 15.3515C14.7615 12.7767 14.7615 10.2019 14.7615 7.62711C14.7615 6.72967 15.07 6.40916 15.953 6.40916C17.9423 6.40916 19.9423 6.40916 21.9317 6.40916C22.7189 6.40916 23.0487 6.75104 23.0487 7.52027C23.0487 12.766 23.0487 18.0117 23.0487 23.2574C23.0487 23.6848 22.9423 24.048 22.5168 24.251C22.1232 24.4327 21.7615 24.3686 21.4423 24.1015C21.1657 23.8771 21.1338 23.5673 21.1338 23.2361C21.1338 19.5822 21.1338 15.9177 21.1338 12.2639C21.1338 11.1314 21.1338 9.9989 21.1338 8.85574C21.1338 8.3536 21.1125 8.33223 20.6232 8.33223C19.4849 8.33223 18.3359 8.33223 17.1977 8.33223C16.687 8.33223 16.6657 8.34292 16.6657 8.87711C16.6657 13.6527 16.6657 18.4284 16.6657 23.2147C16.6657 23.8878 16.4104 24.251 15.8891 24.3472C15.2934 24.4433 14.7721 24.0267 14.7615 23.407C14.7508 22.6057 14.7615 21.8045 14.7615 21.0032C14.7615 19.1121 14.7615 17.2318 14.7615 15.3515Z" fill="white"/>
<path d="M39.0062 34.9455C38.453 34.9455 38.0274 34.4968 38.0381 33.9412C38.0487 33.407 38.4743 32.9904 39.0062 32.9797C39.5594 32.9797 39.9955 33.407 39.9955 33.9626C39.9849 34.5288 39.5594 34.9562 39.0062 34.9455Z" fill="white"/>
</svg>
