<svg width="40" height="36" viewBox="0 0 40 36" xmlns="http://www.w3.org/2000/svg">
<path d="M17.9374 35.9957C22.5886 35.9208 26.6569 34.3348 30.105 31.1752C30.4027 30.9129 30.6508 30.6257 30.6384 30.1886C30.626 29.7764 30.4523 29.4767 30.105 29.2769C29.7453 29.0771 29.3856 29.1021 29.0507 29.3269C28.8771 29.4517 28.7159 29.6016 28.5546 29.7515C25.9995 32.0743 23.0228 33.4606 19.5995 33.7977C14.6381 34.2848 10.3466 32.7737 6.79928 29.2769C4.20699 26.7417 2.7186 23.6321 2.24728 20.0479C1.32944 13.0668 5.03801 6.58529 11.0164 3.65049C19.1529 -0.345838 29.1128 3.47565 32.5237 11.9304C32.5733 12.0428 32.6105 12.1676 32.6601 12.28C32.933 12.892 33.5035 13.1418 34.0617 12.9045C34.595 12.6797 34.8307 12.1052 34.595 11.4933C33.888 9.61999 32.8958 7.92156 31.6058 6.39796C28.5422 2.77629 24.6724 0.553335 19.984 0.103749C12.3435 -0.620585 6.42718 2.41412 2.40852 9.02055C0.709272 11.793 -0.0473272 14.8901 0.00228588 18.1247C0.138722 27.0789 6.46439 34.1974 14.7374 35.7085C15.7916 35.8958 16.8583 36.0207 17.9374 35.9957Z" fill="white"/>
<path d="M17.8382 5.96086C11.8846 5.96086 6.79928 10.4193 6.03027 16.3263C5.17445 22.8578 9.5528 28.8398 16.0149 29.8514C19.587 30.4134 22.7995 29.4892 25.6026 27.1539C26.136 26.7043 26.2352 26.0549 25.8507 25.5928C25.4662 25.1182 24.8212 25.0808 24.2755 25.5428C22.8243 26.7542 21.1747 27.516 19.3018 27.7908C14.3033 28.5401 9.50319 25.3056 8.31248 20.3851C6.94812 14.8027 10.483 9.25783 16.1017 8.1963C20.5545 7.34708 25.1065 9.78234 26.9174 13.9785C27.2895 14.8402 27.798 15.1399 28.4306 14.8777C29.0755 14.6029 29.2244 13.991 28.8275 13.1293C26.8554 8.90815 23.5437 6.56031 18.9669 5.98584C18.9049 5.97335 18.8429 5.97335 18.7808 5.97335C18.4583 5.96086 18.1483 5.96086 17.8382 5.96086Z" fill="white"/>
<path d="M38.5268 25.6802C38.502 25.2806 38.3656 24.8685 38.1299 24.4938C37.7702 23.9318 37.4478 23.3449 37.0633 22.7954C36.8524 22.4832 36.9144 22.3208 37.2245 22.146C37.8199 21.8088 38.3904 21.4216 38.961 21.0595C39.6928 20.5974 40.1021 19.948 39.978 19.0613C39.8416 18.1372 39.271 17.5752 38.3532 17.3629C36.4679 16.9258 34.5826 16.4762 32.7097 16.0266C32.288 15.9267 31.9283 16.0016 31.5562 16.2264C30.2042 17.0756 28.8399 17.9124 27.4879 18.7741C27.2151 18.9489 26.967 18.9989 26.6569 18.9114C24.1763 18.312 21.6832 17.7375 19.2025 17.1506C19.1033 17.1256 18.9917 17.1006 18.8801 17.0881C18.2351 16.9757 17.739 17.2754 17.5901 17.8624C17.4537 18.4119 17.7886 18.9614 18.4211 19.1237C19.3142 19.361 20.232 19.5608 21.1251 19.7732C22.8243 20.1728 24.5236 20.5849 26.2352 20.972C26.5081 21.0345 26.6693 21.1594 26.8058 21.3842C27.6368 22.7329 28.4802 24.0817 29.2988 25.4429C29.5717 25.905 29.9314 26.1673 30.4523 26.2797C32.3128 26.6918 34.1609 27.1539 36.009 27.5785C37.3361 27.8907 38.5144 26.9915 38.5268 25.6802ZM36.2198 25.418C36.0834 25.418 36.0214 25.4304 35.9594 25.418C34.409 25.0558 32.8585 24.6811 31.3081 24.319C31.1097 24.269 30.9857 24.1691 30.874 23.9943C30.2291 22.9327 29.5717 21.8712 28.9143 20.8097C28.7531 20.5474 28.8027 20.4101 29.0631 20.2477C30.0926 19.6233 31.1221 18.9739 32.1392 18.3245C32.3872 18.1621 32.6229 18.1621 32.8958 18.2246C33.8384 18.4619 34.7935 18.6742 35.7485 18.899C36.3563 19.0488 36.964 19.1862 37.5966 19.3361C37.485 19.5484 37.3237 19.5983 37.1997 19.6732C36.4555 20.1478 35.6989 20.6099 34.9547 21.0844C34.3221 21.4966 34.1981 22.0336 34.5826 22.683C34.7935 23.0451 35.0167 23.3948 35.24 23.757C35.5377 24.3065 35.8601 24.8435 36.2198 25.418Z" fill="white"/>
<path d="M17.8134 23.9943C19.1405 24.0192 20.232 23.6321 21.2367 22.9702C21.8693 22.5581 22.0181 21.9586 21.6584 21.4216C21.3111 20.9096 20.7157 20.8222 20.108 21.2093C17.7886 22.658 14.9482 21.6964 14.1544 19.1737C13.6087 17.4378 14.2909 15.552 15.8165 14.6154C17.3669 13.6538 19.3514 13.8911 20.6413 15.2024C20.8026 15.3647 20.9514 15.552 21.1127 15.7144C21.522 16.1265 22.1297 16.1515 22.539 15.8018C22.9483 15.4521 23.0352 14.8277 22.6879 14.3656C21.6336 12.9544 20.232 12.1177 18.4956 11.9553C15.1839 11.6556 12.48 13.8161 11.9342 17.1006C11.4257 20.1728 13.5963 23.2699 16.6599 23.8694C17.0816 23.9693 17.5033 24.0192 17.8134 23.9943Z" fill="white"/>
</svg>
