<svg width="34" height="34" viewBox="0 0 34 34" fill="none" xmlns="http://www.w3.org/2000/svg">
<circle cx="17" cy="17" r="16.25" stroke="#833CFA" stroke-width="1.5"/>
<path d="M25.1616 10C25.1049 10 25.0401 10.0081 24.9834 10.0324L9.32613 15.9859C8.88064 16.156 8.89684 16.7797 9.34233 16.9336L12.9711 18.1567L15.1581 22.5388L15.1662 22.5469C15.2067 22.6279 15.2877 22.6765 15.3768 22.6765C15.4254 22.6765 15.4821 22.6603 15.5307 22.6198L17.58 20.8783L15.2877 19.1449L15.4659 21.4291L13.8216 18.019L22.5696 12.7621L15.2877 19.1368L20.9577 23.4379C21.144 23.5837 21.3627 23.6485 21.5814 23.6485C22.0269 23.6485 22.4643 23.3569 22.5858 22.8628L25.6476 10.6075C25.7286 10.2997 25.4694 10 25.1616 10Z" fill="#833CFA"/>
</svg>
