<svg width="34" height="34" viewBox="0 0 34 34" fill="none" xmlns="http://www.w3.org/2000/svg">
<circle cx="17" cy="17" r="16.25" stroke="#833CFA" stroke-width="1.5"/>
<path d="M21.0147 16.9917C21.3029 17.1351 21.5819 17.3008 21.8498 17.4858C22.3333 17.82 22.7715 18.2059 23.1685 18.639C23.6976 19.2164 24.1318 19.8586 24.4732 20.5639C24.689 21.0099 24.8598 21.4728 24.9951 21.9492C25.0055 21.9858 25.002 21.9996 24.9583 21.9996C24.0451 21.9985 23.1317 21.9984 22.2185 22C22.17 22.0001 22.1615 21.9748 22.1501 21.9395C21.9498 21.3252 21.6628 20.7554 21.2701 20.2415C20.6739 19.4617 19.9234 18.8958 18.9809 18.5989C18.7166 18.5157 18.446 18.4628 18.1714 18.4288C18.1389 18.4248 18.129 18.435 18.1318 18.4655C18.1332 18.481 18.1321 18.4967 18.1321 18.5124C18.1321 19.6495 18.1321 20.7867 18.1321 21.9238C18.1321 21.9987 18.1321 21.9985 18.0562 21.9987C17.6913 22.0004 17.3266 21.9941 16.9627 21.9652C15.583 21.8551 14.2818 21.4907 13.0973 20.7554C12.5395 20.4091 12.0369 19.9943 11.5886 19.5137C10.7179 18.5805 10.1173 17.4889 9.70391 16.2881C9.48108 15.6407 9.3203 14.9776 9.20882 14.3021C9.13329 13.8438 9.07931 13.3834 9.04477 12.9203C9.02369 12.6379 9.01432 12.355 9.00039 12.0722C8.99769 12.0178 9.00788 11.9999 9.06749 12C9.93788 12.0022 10.8083 12.0019 11.6785 12.0006C11.724 12.0005 11.7407 12.0072 11.7417 12.0592C11.7489 12.4653 11.7755 12.8703 11.8202 13.2742C11.9008 14.0022 12.0438 14.7165 12.2777 15.4114C12.4813 16.0159 12.7493 16.5891 13.1104 17.1163C13.5308 17.73 14.0451 18.2445 14.7003 18.6075C14.9358 18.7379 15.1829 18.8409 15.4433 18.9118C15.4949 18.9259 15.5063 18.916 15.506 18.8644C15.5045 18.4444 15.5052 18.0243 15.5052 17.6042C15.5052 15.7637 15.5052 13.9232 15.5053 12.0827C15.5053 11.9869 15.4961 12.002 15.5858 12.0019C16.4113 12.0014 17.2367 12.0022 18.0623 12.0004C18.1177 12.0002 18.1334 12.0122 18.1332 12.07C18.1314 13.3419 18.1318 14.614 18.1318 15.8859C18.1318 15.9599 18.1316 15.9577 18.2065 15.9464C18.7683 15.8604 19.2531 15.6046 19.6959 15.2619C20.3766 14.7353 20.893 14.0713 21.2986 13.3168C21.5168 12.9111 21.69 12.4869 21.8135 12.0428C21.8221 12.0121 21.8348 12.0007 21.8689 12.0008C22.7022 12.002 23.5355 12.0018 24.3688 12.0019C24.3802 12.0019 24.3917 12.004 24.4166 12.0064C23.9802 14.149 22.8042 15.7764 21.0147 16.9917Z" fill="#833CFA"/>
</svg>
