<svg width="41" height="41" viewBox="0 0 41 41" xmlns="http://www.w3.org/2000/svg">
<path d="M41 21.199C40.5632 21.2523 40.1231 21.2323 39.6864 21.2523C38.6762 21.299 37.6661 21.3223 36.6559 21.369C35.4824 21.4257 34.3055 21.499 33.1353 21.6224C31.9051 21.7524 30.6849 21.9358 29.4914 22.2625C27.6177 22.7726 25.9641 23.6627 24.6306 25.0929C23.4237 26.3865 22.6736 27.9268 22.2302 29.627C21.9268 30.7939 21.7501 31.9841 21.6267 33.181C21.44 35.0046 21.36 36.8349 21.2933 38.6652C21.27 39.3353 21.2467 40.0088 21.2233 40.6789C21.22 40.7822 21.2067 40.8889 21.1967 40.9923C21.0633 40.9923 20.9299 40.9923 20.7966 40.9923C20.7466 40.4455 20.7532 39.8954 20.7299 39.3453C20.6832 38.1485 20.6399 36.9483 20.5732 35.7514C20.5165 34.7479 20.4465 33.7477 20.3265 32.7476C20.1231 31.0206 19.8264 29.317 19.0963 27.7201C17.8961 25.0863 15.8858 23.3627 13.1553 22.4592C11.9451 22.0591 10.6949 21.8424 9.43469 21.689C7.40435 21.4457 5.36401 21.359 3.32034 21.2856C2.64356 21.2623 1.96678 21.239 1.29 21.2156C1.18999 21.2123 1.08997 21.199 0.993286 21.189C0.993286 21.0556 0.993286 20.9223 0.993286 20.7889C1.56338 20.7389 2.13681 20.7456 2.70691 20.7222C4.0838 20.6655 5.45736 20.6189 6.83093 20.5289C7.97778 20.4555 9.12131 20.3555 10.2582 20.1855C11.8784 19.9421 13.462 19.562 14.9189 18.7686C17.106 17.5784 18.5829 15.7814 19.423 13.4477C19.8031 12.3908 20.0331 11.2973 20.1932 10.1871C20.4832 8.1968 20.5832 6.1898 20.6632 4.17946C20.7032 3.22597 20.7332 2.26914 20.7666 1.31565C20.7699 1.20563 20.7833 1.09561 20.7933 0.985596C20.9266 0.985596 21.06 0.985596 21.1933 0.985596C21.2467 1.399 21.2267 1.81573 21.2433 2.23247C21.3 3.45267 21.3333 4.67288 21.3967 5.89308C21.5 7.83674 21.6434 9.78039 22.0601 11.6874C22.3735 13.1276 22.8736 14.4912 23.7037 15.7214C24.7839 17.3217 26.2342 18.4685 28.0078 19.2086C29.158 19.6887 30.3682 19.9621 31.5951 20.1521C33.4187 20.4322 35.259 20.5355 37.0993 20.6222C38.2928 20.6789 39.483 20.7189 40.6766 20.7589C40.7799 20.7622 40.8866 20.7756 40.99 20.7856C41 20.9323 41 21.0656 41 21.199Z" fill="#FFFEFF"/>
</svg>
