<svg width="34" height="34" viewBox="0 0 34 34" fill="none" xmlns="http://www.w3.org/2000/svg">
<circle cx="17" cy="17" r="16.25" stroke="#833CFA" stroke-width="1.5"/>
<path d="M17.2503 12.0067C16.272 12.0067 15.5604 11.9894 14.8493 12.0104C13.5935 12.0471 12.3367 12.0801 11.0858 12.2161C10.2176 12.3105 9.54647 12.8766 9.31984 13.7125C9.16602 14.2813 9.10087 14.8641 9.05872 15.4491C8.98099 16.5327 8.99467 17.6185 9.01931 18.7026C9.03902 19.5434 9.10854 20.3831 9.30287 21.2077C9.50541 22.0679 10.2433 22.675 11.1329 22.7592C12.1741 22.8579 13.2164 22.9087 14.2603 22.9518C15.983 23.0236 17.7063 23.002 19.4284 22.9713C20.5808 22.9508 21.7342 22.8865 22.8827 22.7592C23.7941 22.6583 24.4773 22.1148 24.6984 21.2471C24.8419 20.6837 24.9092 20.109 24.9492 19.5294C25.0269 18.4047 24.9957 17.279 24.9831 16.1544C24.9743 15.3811 24.8993 14.6083 24.7242 13.8496C24.5036 12.8922 23.8275 12.3067 22.8394 12.2107C21.8327 12.113 20.8227 12.0784 19.8122 12.0347C18.869 11.9932 17.9263 12.0304 17.2503 12.0067ZM14.9747 17.6476C14.9747 16.8797 14.9741 16.1118 14.9747 15.3433C14.9747 15.0967 14.9785 15.0945 15.2079 15.2116C15.4931 15.3573 15.7766 15.5063 16.0618 15.6515C17.2815 16.2742 18.5011 16.8959 19.7202 17.5197C19.7777 17.5489 19.8631 17.5618 19.8631 17.6455C19.8631 17.7075 19.7952 17.7243 19.7481 17.748C18.2203 18.531 16.6914 19.3119 15.1652 20.0971C14.9987 20.1829 14.9714 20.1295 14.9725 19.9708C14.9769 19.1975 14.9747 18.4226 14.9747 17.6476Z" fill="#833CFA"/>
</svg>
